<svg xmlns="http://www.w3.org/2000/svg" viewBox="0 0 64 64" role="img" aria-label="Reactive Thunderbolt Logo">
  <defs>
    <linearGradient id="boltFill" x1="0%" y1="0%" x2="100%" y2="100%">
      <stop offset="0%" stop-color="#6366f1"/>
      <stop offset="45%" stop-color="#8b5cf6"/>
      <stop offset="100%" stop-color="#ec4899"/>
    </linearGradient>
    <linearGradient id="ringGrad" x1="0%" y1="0%" x2="100%" y2="100%">
      <stop offset="0%" stop-color="#818cf8" stop-opacity="0.9" />
      <stop offset="100%" stop-color="#a78bfa" stop-opacity="0.4" />
    </linearGradient>
    <filter id="softGlow" x="-40%" y="-40%" width="180%" height="180%">
      <feGaussianBlur in="SourceGraphic" stdDeviation="3" result="blur" />
      <feColorMatrix in="blur" type="matrix" values="0 0 0 0 0.6  0 0 0 0 0.58  0 0 0 0 0.95  0 0 0 0.6 0" result="tint" />
      <feMerge>
        <feMergeNode in="tint" />
        <feMergeNode in="SourceGraphic" />
      </feMerge>
    </filter>
  </defs>
  <!-- Ambient ring -->
  <circle cx="32" cy="32" r="29" fill="none" stroke="url(#ringGrad)" stroke-width="2.5" stroke-dasharray="6 10" stroke-linecap="round" opacity="0.55" />
  <!-- Inner halo -->
  <circle cx="32" cy="32" r="20" fill="url(#ringGrad)" opacity="0.08" />
  <!-- Bolt -->
  <g filter="url(#softGlow)">
    <path d="M35.6 6.5 18.9 34.7c-.45.76.34 1.65 1.16 1.34l9.62-3.55c.63-.23 1.26.34 1.11.99l-3.95 16.9c-.23.96 1 .1 1.43-.48l17.92-24.5c.5-.69-.22-1.62-1.03-1.38l-9.48 2.82c-.64.19-1.21-.45-.97-1.07L37 7.02c.31-.82-.78-1.45-1.4-.52z" fill="url(#boltFill)" stroke="#ffffff" stroke-width="1.1" stroke-linejoin="round" />
  </g>
  <!-- Accent sparks -->
  <circle cx="15" cy="26" r="2" fill="#6366f1" opacity="0.55" />
  <circle cx="50" cy="20" r="1.6" fill="#ec4899" opacity="0.65" />
  <circle cx="46" cy="48" r="1.9" fill="#8b5cf6" opacity="0.5" />
</svg>