<?xml version="1.0" encoding="utf-8"?>
<!-- Generator: Adobe Illustrator 27.5.0, SVG Export Plug-In . SVG Version: 6.00 Build 0)  -->
<svg version="1.1" xmlns="http://www.w3.org/2000/svg" xmlns:xlink="http://www.w3.org/1999/xlink" x="0px" y="0px"
	 viewBox="0 0 600 500" style="enable-background:new 0 0 600 500;" xml:space="preserve">
<g id="BACKGROUND">
	<rect style="fill:#FFFFFF;" width="600" height="500"/>
	<path style="fill:#F2D3E8;" d="M565.529,349.446c2.648-61.341,2.99-122.401,1.353-183.805
		C565.027,96,509.363,39.855,439.734,37.616c-93.928-3.02-186.535-1.133-278.372,5.346C95.88,47.582,43.84,100.114,39.857,165.638
		c-3.699,60.849-4.25,121.848-0.874,182.882c3.741,67.631,58.451,121.169,126.133,123.822c91.283,3.576,180.51,4.58,271.501,2.991
		C506.135,474.119,562.53,418.912,565.529,349.446z"/>
	<path style="fill:#F2B3DE;" d="M458.514,318.402c-60.244-52.246-97.415-44.156-146.367,11.758s-105.916,60.268-152.006,21.102
		c-39.822-33.841-91.597-32.528-121.274-5.015c0.041,0.758,0.075,1.515,0.117,2.273c3.741,67.631,58.451,121.169,126.132,123.822
		c91.283,3.576,180.51,4.58,271.501,2.991c69.518-1.214,125.913-56.421,128.912-125.887c0.725-16.803,1.262-33.583,1.647-50.357
		C544.272,343.96,505.773,359.387,458.514,318.402z"/>
</g>
<g id="OBJECTS">
	<path style="fill:#FFE6F7;" d="M281.659,322.55c-38.589-9.908-79.312-21.029-106.822-49.847
		c-16.301-17.078-26.617-39.317-31.586-62.398c-9.948-46.213,2.935-98.492,38.542-129.583
		c20.072-17.527,45.904-27.515,72.185-31.919c26.282-4.404,53.162-3.523,79.724-1.386c28.219,2.271,57.231,6.245,81.609,20.641
		c36.931,21.809,57.691,66.438,54.86,109.234c-2.832,42.796-27.419,82.687-61.849,108.262
		C373.891,311.13,330.485,323.084,281.659,322.55z"/>
	<g>
		<g>
			
				<linearGradient id="SVGID_1_" gradientUnits="userSpaceOnUse" x1="234.2491" y1="410.7499" x2="234.2491" y2="297.9959" gradientTransform="matrix(0.6915 -0.7223 0.7223 0.6915 -236.3926 168.0074)">
				<stop  offset="0" style="stop-color:#F7E6D4;stop-opacity:0"/>
				<stop  offset="1" style="stop-color:#F7E6D4;stop-opacity:0.75"/>
			</linearGradient>
			<polygon style="opacity:0.3;fill:url(#SVGID_1_);" points="234.44,270.136 210.111,295.549 128.668,217.58 152.998,192.167 			
				"/>
			<path style="opacity:0.15;fill:#2E2854;" d="M140.514,188.438c-7.305,0.852-13.745,6.745-15.241,13.946
				c-1.497,7.202,2.06,15.172,8.421,18.866c6.361,3.694,15.046,2.834,20.559-2.036c5.513-4.87,7.439-13.383,4.559-20.15
				C155.931,192.295,148.435,187.513,140.514,188.438z"/>
			<path style="fill:#F7A145;" d="M137.806,186.403c-7.305,0.852-13.745,6.745-15.241,13.946c-1.497,7.202,2.06,15.172,8.421,18.866
				c6.361,3.694,15.046,2.834,20.559-2.036c5.513-4.87,7.439-13.383,4.559-20.15C153.224,190.26,145.728,185.478,137.806,186.403z"
				/>
			<path style="fill:#FF8330;" d="M137.009,190.916c-5.421,1.176-9.824,6.058-10.435,11.571c-0.612,5.511,2.616,11.241,7.645,13.576
				c5.031,2.334,11.489,1.101,15.305-2.924c3.814-4.025,4.702-10.542,2.101-15.439C149.023,192.802,143.074,189.601,137.009,190.916
				z"/>
			<path style="opacity:0.15;fill:#2E2854;" d="M156.105,197.029c-1.595-3.748-4.607-6.88-8.32-8.778
				c5.494,4.651,9.92,12.498,6.717,20.885c-3.29,8.615-9.931,11.237-14.137,12.349c4.078-0.137,8.119-1.6,11.181-4.305
				C157.059,212.31,158.985,203.796,156.105,197.029z"/>
			<path style="fill:#F5B878;" d="M122.565,200.349c-1.048,5.041,0.386,10.452,3.518,14.515c-1.924-3.319-4.404-9.096-1.496-16.523
				c2.015-5.148,6.245-9.031,11.291-11.579C129.395,188.33,123.928,193.79,122.565,200.349z"/>
			<g>
				<polygon style="fill:#F5B878;" points="144.105,199.66 132.642,197.058 135.741,208.397 142.589,206.58 				"/>
				<polygon style="fill:#F5B878;" points="136.762,209.375 147.103,210.902 145.127,200.638 143.536,207.487 				"/>
			</g>
		</g>
		<g>
			
				<linearGradient id="SVGID_00000152959664309235741210000000845948983820563860_" gradientUnits="userSpaceOnUse" x1="156.4018" y1="545.9053" x2="156.4018" y2="433.1532" gradientTransform="matrix(0.5202 -0.854 0.854 0.5202 -297.7315 264.1132)">
				<stop  offset="0" style="stop-color:#F7E6D4;stop-opacity:0"/>
				<stop  offset="1" style="stop-color:#F7E6D4;stop-opacity:0.75"/>
			</linearGradient>
			<polygon style="opacity:0.3;fill:url(#SVGID_00000152959664309235741210000000845948983820563860_);" points="258.983,399.503 
				240.681,429.549 144.39,370.896 162.692,340.849 			"/>
			<path style="opacity:0.15;fill:#2E2854;" d="M149.699,339.889c-6.952,2.402-11.975,9.54-11.889,16.895
				c0.085,7.356,5.271,14.376,12.278,16.616c7.006,2.242,15.304-0.464,19.642-6.405c4.338-5.941,4.39-14.669,0.124-20.659
				C165.585,340.344,157.237,337.284,149.699,339.889z"/>
			<path style="fill:#F7A145;" d="M146.618,338.484c-6.952,2.401-11.975,9.54-11.889,16.895c0.085,7.356,5.271,14.376,12.278,16.616
				c7.006,2.242,15.304-0.464,19.642-6.405c4.338-5.941,4.39-14.669,0.124-20.659C162.504,338.938,154.156,335.879,146.618,338.484z
				"/>
			<path style="fill:#FF8330;" d="M146.808,343.063c-5.042,2.313-8.293,8.027-7.706,13.543c0.587,5.514,4.969,10.416,10.383,11.617
				c5.415,1.199,11.457-1.392,14.319-6.144c2.86-4.751,2.327-11.305-1.265-15.53C158.947,342.323,152.449,340.475,146.808,343.063z"
				/>
			<path style="opacity:0.15;fill:#2E2854;" d="M166.772,344.931c-2.363-3.317-5.978-5.73-10.012-6.786
				c6.365,3.362,12.373,10.075,11.047,18.954c-1.363,9.12-7.285,13.108-11.154,15.097c3.953-1.01,7.586-3.307,9.995-6.607
				C170.986,359.649,171.038,350.921,166.772,344.931z"/>
			<path style="fill:#F5B878;" d="M134.728,355.378c0.059,5.148,2.622,10.125,6.554,13.421c-2.592-2.829-6.255-7.938-5.01-15.816
				c0.862-5.461,4.159-10.162,8.54-13.734C138.817,342.173,134.65,348.68,134.728,355.378z"/>
			<g>
				<polygon style="fill:#F5B878;" points="155.617,350.078 143.863,349.999 149.325,360.408 155.623,357.162 				"/>
				<polygon style="fill:#F5B878;" points="150.533,361.143 160.96,360.414 156.825,350.813 156.743,357.845 				"/>
			</g>
		</g>
		<g>
			
				<linearGradient id="SVGID_00000121997668588776963470000011257716387821887665_" gradientUnits="userSpaceOnUse" x1="342.7173" y1="582.0822" x2="342.7173" y2="469.3317" gradientTransform="matrix(0.7238 0.69 -0.69 0.7238 529.1214 -256.8816)">
				<stop  offset="0" style="stop-color:#F7E6D4;stop-opacity:0"/>
				<stop  offset="1" style="stop-color:#F7E6D4;stop-opacity:0.75"/>
			</linearGradient>
			<polygon style="opacity:0.3;fill:url(#SVGID_00000121997668588776963470000011257716387821887665_);" points="388.274,413.04 
				362.81,388.763 440.611,307.16 466.075,331.437 			"/>
			<path style="opacity:0.15;fill:#2E2854;" d="M469.778,318.945c-0.867-7.303-6.773-13.731-13.978-15.213
				c-7.206-1.482-15.168,2.091-18.848,8.46c-3.681,6.368-2.803,15.052,2.078,20.555c4.881,5.503,13.398,7.411,20.16,4.517
				C465.953,334.371,470.719,326.865,469.778,318.945z"/>
			<path style="fill:#F7A145;" d="M471.807,316.234c-0.867-7.303-6.773-13.731-13.978-15.212c-7.206-1.482-15.168,2.091-18.848,8.46
				c-3.681,6.369-2.803,15.052,2.078,20.555c4.881,5.503,13.398,7.411,20.16,4.517C467.982,331.659,472.748,324.154,471.807,316.234
				z"/>
			<path style="fill:#FF8330;" d="M467.293,315.446c-1.187-5.418-6.078-9.811-11.592-10.411c-5.513-0.6-11.235,2.639-13.56,7.674
				c-2.324,5.035-1.078,11.491,2.956,15.298c4.033,3.806,10.551,4.68,15.443,2.069C465.432,327.464,468.62,321.508,467.293,315.446z
				"/>
			<path style="opacity:0.15;fill:#2E2854;" d="M461.219,334.554c3.744-1.603,6.871-4.622,8.761-8.338
				c-4.64,5.504-12.478,9.946-20.871,6.76c-8.621-3.273-11.257-9.908-12.378-14.111c0.146,4.077,1.617,8.116,4.328,11.172
				C445.94,335.54,454.457,337.448,461.219,334.554z"/>
			<path style="fill:#F5B878;" d="M457.83,301.022c-5.043-1.038-10.451,0.408-14.508,3.548c3.315-1.931,9.087-4.422,16.52-1.53
				c5.152,2.005,9.044,6.226,11.602,11.267C469.863,307.827,464.392,302.371,457.83,301.022z"/>
			<g>
				<path style="fill:#F5B878;" d="M458.009,321.597c0.072,1.117-0.296,2.26-1.121,3.134l-0.159,0.168
					c-1.571,1.664-4.197,1.733-5.854,0.153l-0.073-0.07l-0.841,0.891l-1.929-1.839l0.841-0.891l-0.791-0.754l-0.841,0.891
					l-1.929-1.839l0.841-0.89l-0.45-0.429l-0.957-0.912l1.83-1.938l0.957,0.912l2.198-2.328l1.831-1.939l1.979-2.097l-0.957-0.912
					l1.831-1.939l0.957,0.912l0.45,0.429l1.029-1.09l1.929,1.839l-1.029,1.09l0.791,0.754l1.029-1.09l1.929,1.839l-1.037,1.099
					c1.427,1.536,1.439,3.947-0.018,5.49l-0.151,0.159C459.661,321.069,458.853,321.466,458.009,321.597z M454.8,323.06l0.159-0.168
					c0.563-0.596,0.537-1.54-0.056-2.105l-0.249-0.237l-2.994-2.855l-2.198,2.328l0.41,0.391l2.833,2.701
					C453.298,323.68,454.238,323.655,454.8,323.06 M455.47,313.659l-1.979,2.097l2.994,2.855c0.532,0.507,1.375,0.486,1.879-0.049
					l0.15-0.159c0.505-0.534,0.482-1.382-0.05-1.889l-2.584-2.464L455.47,313.659"/>
			</g>
		</g>
		<g>
			
				<linearGradient id="SVGID_00000026161462542241224200000001527400425151200914_" gradientUnits="userSpaceOnUse" x1="366.026" y1="247.0393" x2="366.026" y2="134.297" gradientTransform="matrix(0.996 -0.0899 0.0899 0.996 -112.5537 -18.4947)">
				<stop  offset="0" style="stop-color:#F7E6D4;stop-opacity:0"/>
				<stop  offset="1" style="stop-color:#F7E6D4;stop-opacity:0.75"/>
			</linearGradient>
			<polygon style="opacity:0.3;fill:url(#SVGID_00000026161462542241224200000001527400425151200914_);" points="291.737,193.069 
				256.698,196.232 246.561,83.941 281.601,80.778 			"/>
			<path style="opacity:0.15;fill:#2E2854;" d="M274.643,69.762c-6.066-4.159-14.792-3.95-20.653,0.494
				c-5.862,4.444-8.42,12.789-6.052,19.754c2.366,6.965,9.477,12.025,16.833,11.978c7.356-0.047,14.402-5.198,16.68-12.19
				C283.728,82.802,281.221,74.272,274.643,69.762z"/>
			<path style="fill:#F7A145;" d="M273.94,66.45c-6.066-4.159-14.792-3.95-20.653,0.494c-5.862,4.444-8.42,12.789-6.053,19.754
				c2.366,6.965,9.477,12.025,16.833,11.978c7.356-0.047,14.402-5.198,16.68-12.19C283.025,79.489,280.518,70.959,273.94,66.45z"/>
			<path style="fill:#FF8330;" d="M270.372,69.327c-4.858-2.677-11.386-1.891-15.47,1.862c-4.083,3.752-5.417,10.191-3.16,15.257
				c2.257,5.066,7.935,8.381,13.456,7.855c5.52-0.527,10.472-4.855,11.731-10.255C278.188,78.644,275.808,72.321,270.372,69.327z"/>
			<path style="opacity:0.15;fill:#2E2854;" d="M280.747,86.485c1.261-3.873,1.049-8.214-0.501-12.085
				c1.084,7.117-0.738,15.939-8.664,20.155c-8.142,4.33-14.87,1.942-18.771,0.016c3.163,2.577,7.171,4.13,11.257,4.104
				C271.423,98.628,278.469,93.478,280.747,86.485z"/>
			<path style="fill:#F5B878;" d="M253.287,66.943c-4.103,3.11-6.578,8.131-6.889,13.252c0.731-3.766,2.66-9.75,9.733-13.437
				c4.902-2.555,10.642-2.702,16.12-1.306C266.334,62.374,258.625,62.896,253.287,66.943z"/>
			<g>
				<path style="fill:#F5B878;" d="M268.884,80.363c0.888,0.682,1.505,1.711,1.619,2.908l0.022,0.23
					c0.217,2.278-1.461,4.299-3.741,4.505l-0.101,0.009l0.116,1.219l-2.655,0.24l-0.116-1.219l-1.088,0.098l0.116,1.219l-2.654,0.24
					l-0.116-1.219l-0.62,0.056l-1.316,0.119l-0.253-2.653l1.316-0.119l-0.303-3.187l-0.253-2.654l-0.273-2.87l-1.316,0.119
					l-0.253-2.654l1.316-0.119l0.62-0.056l-0.142-1.492l2.654-0.24l0.142,1.492l1.088-0.098l-0.142-1.492l2.655-0.24l0.143,1.504
					c2.095-0.062,3.917,1.517,4.118,3.63l0.021,0.218C269.576,78.772,269.342,79.642,268.884,80.363z M267.871,83.741l-0.022-0.23
					c-0.078-0.816-0.805-1.418-1.621-1.345l-0.343,0.031l-4.12,0.372l0.303,3.187l0.564-0.051l3.899-0.352
					C267.348,85.279,267.948,84.556,267.871,83.741 M261.239,77.044l0.273,2.87l4.12-0.372c0.732-0.066,1.271-0.715,1.201-1.446
					l-0.021-0.218c-0.07-0.731-0.722-1.272-1.454-1.206l-3.556,0.321L261.239,77.044"/>
			</g>
		</g>
		<g>
			
				<linearGradient id="SVGID_00000017500322038379286640000005399903758684165031_" gradientUnits="userSpaceOnUse" x1="505.5457" y1="350.7883" x2="505.5457" y2="238.0473" gradientTransform="matrix(0.7963 0.605 -0.605 0.7963 180.6392 -335.1788)">
				<stop  offset="0" style="stop-color:#F7E6D4;stop-opacity:0"/>
				<stop  offset="1" style="stop-color:#F7E6D4;stop-opacity:0.75"/>
			</linearGradient>
			<polygon style="opacity:0.3;fill:url(#SVGID_00000017500322038379286640000005399903758684165031_);" points="384.985,260.651 
				356.971,239.367 425.18,149.592 453.193,170.875 			"/>
			<path style="opacity:0.15;fill:#2E2854;" d="M455.48,158.048c-1.677-7.161-8.263-12.889-15.588-13.558
				c-7.326-0.669-14.84,3.771-17.786,10.511c-2.948,6.74-1.106,15.271,4.359,20.195c5.465,4.924,14.142,5.87,20.538,2.24
				C453.4,173.804,457.299,165.814,455.48,158.048z"/>
			<path style="fill:#F7A145;" d="M457.193,155.127c-1.677-7.161-8.263-12.889-15.588-13.558
				c-7.326-0.669-14.84,3.771-17.787,10.511c-2.947,6.74-1.106,15.271,4.359,20.195c5.465,4.924,14.142,5.87,20.538,2.239
				C455.114,170.883,459.012,162.893,457.193,155.127z"/>
			<path style="fill:#FF8330;" d="M452.619,154.848c-1.784-5.252-7.135-9.072-12.682-9.053c-5.545,0.019-10.871,3.876-12.619,9.139
				c-1.748,5.263,0.211,11.54,4.644,14.873c4.433,3.332,11.008,3.473,15.578,0.333C452.111,166.998,454.615,160.724,452.619,154.848
				z"/>
			<path style="opacity:0.15;fill:#2E2854;" d="M448.716,174.515c3.542-2.01,6.312-5.359,7.776-9.264
				c-3.997,5.987-11.29,11.276-19.986,9.047c-8.933-2.29-12.293-8.59-13.875-12.642c0.6,4.036,2.512,7.885,5.548,10.62
				C433.643,177.199,442.32,178.145,448.716,174.515z"/>
			<path style="fill:#F5B878;" d="M441.606,141.57c-5.127-0.468-10.34,1.571-14.022,5.145c3.079-2.289,8.537-5.409,16.246-3.364
				c5.344,1.417,9.683,5.178,12.787,9.902C454.323,146.99,448.277,142.178,441.606,141.57z"/>
			<g>
				<path style="fill:#F5B878;" d="M444.08,161.997c0.197,1.102-0.042,2.279-0.764,3.239l-0.139,0.185
					c-1.375,1.829-3.978,2.19-5.8,0.806l-0.081-0.061l-0.736,0.979l-2.122-1.612l0.736-0.979l-0.87-0.661l-0.736,0.979l-2.122-1.612
					l0.736-0.979l-0.495-0.376l-1.052-0.8l1.602-2.13l1.052,0.8l1.924-2.559l1.603-2.131l1.733-2.304l-1.052-0.8l1.603-2.131
					l1.052,0.8l0.495,0.376l0.901-1.198l2.122,1.612l-0.901,1.198l0.87,0.661l0.901-1.198l2.122,1.612l-0.908,1.208
					c1.589,1.367,1.87,3.761,0.595,5.458l-0.132,0.175C445.663,161.288,444.904,161.773,444.08,161.997z M441.054,163.808
					l0.139-0.185c0.493-0.655,0.362-1.59-0.291-2.086l-0.274-0.208l-3.294-2.503l-1.924,2.559l0.451,0.343l3.117,2.368
					C439.631,164.592,440.563,164.463,441.054,163.808 M440.671,154.391l-1.733,2.304l3.294,2.503
					c0.585,0.445,1.421,0.329,1.862-0.258l0.132-0.175c0.442-0.587,0.324-1.427-0.261-1.871l-2.843-2.16L440.671,154.391"/>
			</g>
		</g>
		<g>
			
				<linearGradient id="SVGID_00000042699721103291976840000006519616132592010670_" gradientUnits="userSpaceOnUse" x1="130.8735" y1="402.0904" x2="130.8735" y2="289.3398" gradientTransform="matrix(0.9302 -0.367 0.367 0.9302 -21.3153 -79.3556)">
				<stop  offset="0" style="stop-color:#F7E6D4;stop-opacity:0"/>
				<stop  offset="1" style="stop-color:#F7E6D4;stop-opacity:0.75"/>
			</linearGradient>
			<polygon style="opacity:0.3;fill:url(#SVGID_00000042699721103291976840000006519616132592010670_);" points="264.354,240.181 
				231.628,253.094 190.247,148.215 222.973,135.302 			"/>
			<path style="opacity:0.15;fill:#2E2854;" d="M213.192,126.695c-6.992-2.281-15.306,0.38-19.676,6.296
				c-4.372,5.917-4.473,14.644-0.238,20.659c4.234,6.015,12.483,8.866,19.527,6.747c7.044-2.119,12.353-9.047,12.567-16.398
				C225.585,136.645,220.775,129.167,213.192,126.695z"/>
			<path style="fill:#F7A145;" d="M211.583,123.715c-6.992-2.28-15.306,0.38-19.676,6.296c-4.372,5.917-4.473,14.644-0.238,20.659
				c4.234,6.015,12.483,8.866,19.527,6.747c7.044-2.119,12.353-9.047,12.566-16.398
				C223.976,133.664,219.166,126.187,211.583,123.715z"/>
			<path style="fill:#FF8330;" d="M208.972,127.481c-5.416-1.199-11.457,1.396-14.318,6.148c-2.86,4.751-2.324,11.305,1.269,15.529
				c3.594,4.224,9.976,5.804,15.125,3.743c5.148-2.062,8.679-7.61,8.364-13.146C219.097,134.217,215.031,128.822,208.972,127.481z"
				/>
			<path style="opacity:0.15;fill:#2E2854;" d="M223.763,141.018c0.118-4.071-1.309-8.176-3.888-11.453
				c3.046,6.522,3.786,15.501-2.631,21.78c-6.591,6.45-13.72,6.055-18.005,5.307c3.762,1.58,8.044,1.941,11.957,0.764
				C218.24,155.298,223.549,148.37,223.763,141.018z"/>
			<path style="fill:#F5B878;" d="M191.907,130.01c-3.059,4.141-4.019,9.656-2.873,14.657c-0.36-3.82-0.197-10.104,5.55-15.635
				c3.983-3.834,9.449-5.593,15.098-5.797C203.137,121.948,195.888,124.622,191.907,130.01z"/>
			<g>
				<path style="fill:#F5B878;" d="M214.132,142.439l-7.641,3.157l-0.453-5.021l2.002-1.572l-0.012-1.682l-2.132,1.678l-0.743-8.238
					c-0.025-0.273-0.307-0.444-0.56-0.339l-2.656,1.097c-0.168,0.07-0.27,0.243-0.249,0.424l1.124,9.484l-1.941,1.527l0.009,1.674
					l2.114-1.66l0.852,7.188l11.046-4.563l-0.198-2.804C214.673,142.509,214.388,142.333,214.132,142.439z"/>
			</g>
		</g>
		<g>
			
				<linearGradient id="SVGID_00000181054463180442983040000016935062139517830554_" gradientUnits="userSpaceOnUse" x1="240.728" y1="290.8727" x2="240.728" y2="178.1279" gradientTransform="matrix(0.888 0.4599 -0.4599 0.888 250.8265 -137.3041)">
				<stop  offset="0" style="stop-color:#F7E6D4;stop-opacity:0"/>
				<stop  offset="1" style="stop-color:#F7E6D4;stop-opacity:0.75"/>
			</linearGradient>
			<polygon style="opacity:0.3;fill:url(#SVGID_00000181054463180442983040000016935062139517830554_);" points="346.441,239.792 
				315.201,223.612 367.051,123.494 398.292,139.674 			"/>
			<path style="opacity:0.15;fill:#2E2854;" d="M398.351,126.645c-2.877-6.769-10.345-11.286-17.677-10.692
				c-7.332,0.594-13.977,6.253-15.727,13.398c-1.751,7.144,1.522,15.235,7.748,19.152c6.226,3.917,14.937,3.365,20.618-1.306
				C398.996,142.525,401.471,133.985,398.351,126.645z"/>
			<path style="fill:#F7A145;" d="M399.54,123.474c-2.877-6.769-10.345-11.286-17.677-10.692
				c-7.332,0.594-13.977,6.253-15.727,13.398c-1.751,7.144,1.522,15.235,7.748,19.152c6.226,3.917,14.937,3.365,20.618-1.306
				C400.186,139.354,402.66,130.814,399.54,123.474z"/>
			<path style="fill:#FF8330;" d="M394.985,123.981c-2.656-4.869-8.582-7.718-14.043-6.751c-5.46,0.967-10.048,5.678-10.87,11.162
				c-0.822,5.485,2.182,11.333,7.12,13.86c4.937,2.525,11.439,1.54,15.405-2.336C396.563,136.039,397.957,129.429,394.985,123.981z"
				/>
			<path style="opacity:0.15;fill:#2E2854;" d="M394.503,144.026c3.146-2.587,5.302-6.36,6.077-10.457
				c-2.914,6.583-9.195,13.041-18.145,12.331c-9.193-0.729-13.581-6.361-15.833-10.083c1.281,3.874,3.824,7.339,7.282,9.514
				C380.111,149.248,388.822,148.696,394.503,144.026z"/>
			<path style="fill:#F5B878;" d="M381.863,112.782c-5.132,0.416-9.919,3.317-12.935,7.467c2.642-2.782,7.486-6.789,15.432-6.093
				c5.507,0.483,10.425,3.446,14.292,7.57C395.32,115.947,388.541,112.241,381.863,112.782z"/>
			<g>
				<path style="fill:#F5B878;" d="M387.102,137.701l-7.401-3.685l3.487-3.642l2.501,0.476l1.259-1.115l-2.665-0.504l5.721-5.974
					c0.19-0.198,0.133-0.523-0.113-0.646l-2.573-1.281c-0.163-0.081-0.361-0.044-0.483,0.091l-6.409,7.08L378,128.042l-1.255,1.107
					l2.641,0.502l-4.858,5.366l10.699,5.327l1.983-1.992C387.405,138.155,387.351,137.824,387.102,137.701z"/>
			</g>
		</g>
	</g>
	<g>
		<g>
			<g>
				<path style="opacity:0.15;fill:#2E2854;" d="M276.017,332.985c1.224-15.881,1.353-31.809,0.385-47.7
					c-0.585-9.61-8.436-17.197-18.062-17.369c-38.666-0.691-77.366,0.423-115.943,2.773c-9.691,0.59-17.218,8.603-17.324,18.31
					c-0.166,15.161,0.346,30.325,1.685,46.016c0.796,9.334,8.407,16.594,17.77,16.942c37.192,1.384,74.775,0.932,114.329-1.886
					C268.033,349.418,275.311,342.156,276.017,332.985z"/>
				<path style="fill:#FFFFFF;" d="M267.654,326.974c1.224-15.881,1.353-31.809,0.385-47.7c-0.585-9.61-8.436-17.197-18.062-17.369
					c-38.666-0.691-77.366,0.423-115.943,2.773c-9.691,0.59-17.218,8.603-17.324,18.31c-0.166,15.161,0.346,30.325,1.685,46.016
					c0.796,9.334,8.407,16.594,17.77,16.942c37.192,1.384,74.775,0.932,114.329-1.886
					C259.669,343.407,266.948,336.145,267.654,326.974z"/>
				<path style="fill:none;stroke:#2E2854;stroke-width:1.5;stroke-linecap:round;stroke-linejoin:round;stroke-miterlimit:10;" d="
					M267.654,326.974c1.224-15.881,1.353-31.809,0.385-47.7c-0.585-9.61-8.436-17.197-18.062-17.369
					c-38.666-0.691-77.366,0.423-115.943,2.773c-9.691,0.59-17.218,8.603-17.324,18.31c-0.166,15.161,0.346,30.325,1.685,46.016
					c0.796,9.334,8.407,16.594,17.77,16.942c37.192,1.384,74.775,0.932,114.329-1.886
					C259.669,343.407,266.948,336.145,267.654,326.974z"/>
			</g>
			<g>
				<path style="fill:#5767BF;" d="M170.979,308.06c0.144-8.636-0.266-17.282-1.225-25.866c-0.354-3.178-2.898-5.647-6.079-5.972
					c-9.774-1-19.275-0.782-28.665,0.138c-3.469,0.339-6.086,3.314-6.044,6.799c0.107,8.827,0.333,17.343,0.658,25.49
					c0.135,3.433,2.833,6.226,6.261,6.453c9.655,0.641,19.366,0.626,29.161-0.47C168.387,314.258,170.922,311.421,170.979,308.06z"
					/>
				<g>
					<path style="fill:#F5B878;" d="M160.525,304.157h-12.326l2.234-7.177l3.654-1.027l0.94-2.324l-3.893,1.098l3.665-11.774
						c0.121-0.391-0.17-0.787-0.579-0.787h-4.285c-0.272,0-0.51,0.181-0.584,0.443l-3.85,13.707l-3.543,1l-0.94,2.311l3.858-1.085
						l-2.918,10.39h17.819l1.323-3.976C161.231,304.563,160.939,304.157,160.525,304.157z"/>
				</g>
			</g>
			<g>
				
					<line style="fill:none;stroke:#2E2854;stroke-width:1.5;stroke-linecap:round;stroke-linejoin:round;stroke-miterlimit:10;" x1="185.242" y1="283.985" x2="250.012" y2="283.985"/>
				
					<line style="fill:none;stroke:#2E2854;stroke-width:1.5;stroke-linecap:round;stroke-linejoin:round;stroke-miterlimit:10;" x1="185.242" y1="294.986" x2="250.012" y2="294.986"/>
				
					<line style="fill:none;stroke:#2E2854;stroke-width:1.5;stroke-linecap:round;stroke-linejoin:round;stroke-miterlimit:10;" x1="185.242" y1="305.987" x2="250.012" y2="305.987"/>
			</g>
			<rect x="145.374" y="326.149" style="fill:none;" width="104.637" height="15.429"/>
			<text transform="matrix(1 0 0 1 145.3745 334.3112)" style="fill:#76C9BF; font-family:'Montserrat-Bold'; font-size:11px;">36,24 $  (+0,77%)</text>
		</g>
		<g>
			<g>
				<path style="opacity:0.15;fill:#2E2854;" d="M206.69,179.805c1.252-19.956,1.374-39.982,0.365-59.951
					c-0.481-9.517-8.297-17.012-17.824-17.209c-31.417-0.652-62.859,0.555-94.208,3.057c-9.393,0.75-16.7,8.496-16.815,17.918
					c-0.235,19.193,0.232,38.347,1.57,58.273c0.62,9.229,8.096,16.513,17.336,16.943c30.315,1.412,60.965,0.895,93.125-2.081
					C199.14,195.932,206.13,188.726,206.69,179.805z"/>
				<path style="fill:#FFFFFF;" d="M197.033,170.875c1.252-19.956,1.374-39.982,0.365-59.951
					c-0.481-9.517-8.297-17.012-17.824-17.209c-31.417-0.652-62.859,0.555-94.208,3.057c-9.393,0.75-16.7,8.496-16.815,17.918
					c-0.235,19.193,0.232,38.347,1.57,58.273c0.62,9.229,8.096,16.513,17.336,16.943c30.315,1.412,60.965,0.895,93.125-2.081
					C189.483,187.002,196.473,179.796,197.033,170.875z"/>
				<path style="fill:none;stroke:#2E2854;stroke-width:1.5;stroke-linecap:round;stroke-linejoin:round;stroke-miterlimit:10;" d="
					M197.033,170.875c1.252-19.956,1.374-39.982,0.365-59.951c-0.481-9.517-8.297-17.012-17.824-17.209
					c-31.417-0.652-62.859,0.555-94.208,3.057c-9.393,0.75-16.7,8.496-16.815,17.918c-0.235,19.193,0.232,38.347,1.57,58.273
					c0.62,9.229,8.096,16.513,17.336,16.943c30.315,1.412,60.965,0.895,93.125-2.081
					C189.483,187.002,196.473,179.796,197.033,170.875z"/>
			</g>
			<g>
				<path style="fill:#5767BF;" d="M123.343,145.166c0.145-8.636-0.265-17.282-1.224-25.866c-0.355-3.178-2.899-5.647-6.079-5.972
					c-9.775-1-19.276-0.782-28.665,0.138c-3.469,0.34-6.087,3.314-6.044,6.799c0.107,8.827,0.333,17.343,0.657,25.49
					c0.136,3.433,2.834,6.226,6.262,6.453c9.654,0.641,19.366,0.626,29.161-0.47C120.751,151.364,123.287,148.527,123.343,145.166z"
					/>
				<g>
					<path style="fill:#F5B878;" d="M110.126,132.983c1.285,1.184,2.1,2.871,2.109,4.747l0.002,0.361
						c0.017,3.571-2.875,6.478-6.448,6.478h-0.158l0.009,1.911h-4.16l-0.009-1.911h-1.705l0.009,1.911h-4.16l-0.009-1.911h-0.971
						h-2.063l-0.02-4.16h2.063l-0.024-4.997l-0.02-4.162l-0.022-4.5h-2.063l-0.02-4.162h2.063h0.971l-0.011-2.339h4.16l0.011,2.339
						h1.705l-0.011-2.339h4.16l0.011,2.358c3.266,0.198,5.876,2.908,5.892,6.222l0.002,0.342
						C111.425,130.607,110.939,131.927,110.126,132.983z M108.077,138.092l-0.002-0.361c-0.006-1.279-1.052-2.318-2.331-2.318
						h-0.537H98.75l0.024,4.997h0.884h6.11C107.048,140.41,108.083,139.369,108.077,138.092 M98.708,126.75l0.022,4.5h6.457
						c1.147,0,2.076-0.932,2.071-2.079l-0.002-0.342c-0.006-1.147-0.944-2.079-2.091-2.079h-5.573H98.708"/>
				</g>
			</g>
			<g>
				
					<line style="fill:none;stroke:#2E2854;stroke-width:1.5;stroke-linecap:round;stroke-linejoin:round;stroke-miterlimit:10;" x1="134.587" y1="120.25" x2="180.477" y2="120.25"/>
				
					<line style="fill:none;stroke:#2E2854;stroke-width:1.5;stroke-linecap:round;stroke-linejoin:round;stroke-miterlimit:10;" x1="134.587" y1="131.251" x2="180.477" y2="131.251"/>
				
					<line style="fill:none;stroke:#2E2854;stroke-width:1.5;stroke-linecap:round;stroke-linejoin:round;stroke-miterlimit:10;" x1="134.587" y1="142.252" x2="180.477" y2="142.252"/>
			</g>
			<rect x="83.379" y="164.414" style="fill:none;" width="104.637" height="15.429"/>
			<text transform="matrix(1 0 0 1 83.3787 172.5763)" style="fill:#76C9BF; font-family:'Montserrat-Bold'; font-size:11px;">65.432 $  (+1,56%)</text>
		</g>
		<g>
			<g>
				<path style="opacity:0.15;fill:#2E2854;" d="M561.521,237.141c1.224-15.881,1.353-31.809,0.385-47.7
					c-0.585-9.61-8.436-17.197-18.062-17.369c-38.666-0.691-77.366,0.423-115.943,2.773c-9.691,0.59-17.218,8.603-17.324,18.31
					c-0.166,15.161,0.346,30.325,1.685,46.016c0.796,9.334,8.407,16.594,17.77,16.942c37.192,1.384,74.775,0.932,114.329-1.886
					C553.536,253.574,560.815,246.312,561.521,237.141z"/>
				<path style="fill:#FFFFFF;" d="M553.157,231.129c1.224-15.881,1.353-31.809,0.385-47.7c-0.585-9.61-8.436-17.197-18.062-17.369
					c-38.666-0.691-77.366,0.423-115.943,2.773c-9.691,0.59-17.218,8.603-17.324,18.31c-0.166,15.161,0.346,30.325,1.685,46.016
					c0.796,9.334,8.407,16.594,17.77,16.942c37.192,1.384,74.775,0.932,114.329-1.886
					C545.172,247.562,552.451,240.3,553.157,231.129z"/>
				<path style="fill:none;stroke:#2E2854;stroke-width:1.5;stroke-linecap:round;stroke-linejoin:round;stroke-miterlimit:10;" d="
					M553.157,231.129c1.224-15.881,1.353-31.809,0.385-47.7c-0.585-9.61-8.436-17.197-18.062-17.369
					c-38.666-0.691-77.366,0.423-115.943,2.773c-9.691,0.59-17.218,8.603-17.324,18.31c-0.166,15.161,0.346,30.325,1.685,46.016
					c0.796,9.334,8.407,16.594,17.77,16.942c37.192,1.384,74.775,0.932,114.329-1.886
					C545.172,247.562,552.451,240.3,553.157,231.129z"/>
			</g>
			<g>
				<path style="fill:#5767BF;" d="M456.483,212.216c0.144-8.636-0.266-17.282-1.225-25.866c-0.354-3.178-2.898-5.647-6.079-5.972
					c-9.774-1-19.275-0.782-28.665,0.138c-3.469,0.339-6.086,3.314-6.044,6.799c0.107,8.827,0.333,17.343,0.658,25.49
					c0.135,3.433,2.833,6.226,6.261,6.453c9.655,0.641,19.366,0.626,29.161-0.47C453.891,218.414,456.426,215.577,456.483,212.216z"
					/>
				<g>
					<polygon style="fill:#F5B878;" points="443.685,199.798 435.49,186.14 427.295,199.798 435.49,204.799 					"/>
					<polygon style="fill:#F5B878;" points="427.295,201.715 435.49,213.268 443.685,201.715 435.49,206.576 					"/>
				</g>
			</g>
			<g>
				
					<line style="fill:none;stroke:#2E2854;stroke-width:1.5;stroke-linecap:round;stroke-linejoin:round;stroke-miterlimit:10;" x1="470.745" y1="188.14" x2="535.516" y2="188.14"/>
				
					<line style="fill:none;stroke:#2E2854;stroke-width:1.5;stroke-linecap:round;stroke-linejoin:round;stroke-miterlimit:10;" x1="470.745" y1="199.141" x2="535.516" y2="199.141"/>
				
					<line style="fill:none;stroke:#2E2854;stroke-width:1.5;stroke-linecap:round;stroke-linejoin:round;stroke-miterlimit:10;" x1="470.745" y1="210.142" x2="535.516" y2="210.142"/>
			</g>
			<rect x="430.878" y="230.304" style="fill:none;" width="104.637" height="15.429"/>
			<text transform="matrix(1 0 0 1 430.8783 238.4666)" style="fill:#76C9BF; font-family:'Montserrat-Bold'; font-size:11px;">4.321 $  (+0,77%)</text>
		</g>
	</g>
	<g>
		<defs>
			<path id="SVGID_00000179626798128587893200000001276835352539521667_" d="M565.529,349.446
				c2.648-61.341,2.99-122.401,1.353-183.805C565.027,96,509.363,39.855,439.734,37.616c-93.928-3.02-186.535-1.133-278.372,5.346
				C95.88,47.582,43.84,100.114,39.857,165.638c-3.699,60.849-4.25,121.848-0.874,182.882
				c3.741,67.631,58.451,121.169,126.133,123.822c91.283,3.576,180.51,4.58,271.501,2.991
				C506.135,474.119,562.53,418.912,565.529,349.446z"/>
		</defs>
		<clipPath id="SVGID_00000167361121240704603210000012103106402481319838_">
			<use xlink:href="#SVGID_00000179626798128587893200000001276835352539521667_"  style="overflow:visible;"/>
		</clipPath>
		<g style="clip-path:url(#SVGID_00000167361121240704603210000012103106402481319838_);">
			<g>
				<path style="fill:#208DA8;" d="M257.215,258.921c-4.961-1.158-8.937-5.442-10.141-10.393c-1.204-4.95,0.227-10.373,3.379-14.375
					c4.478-5.685,11.742-8.312,18.725-10.213c17.905-4.871,36.533-6.747,55.088-6.76c5.449-0.003,10.947,0.158,16.246,1.43
					c5.3,1.271,10.436,3.734,14.125,7.746c3.688,4.012,5.754,9.703,4.65,15.039c-1.104,5.337-5.74,9.977-11.177,10.323
					L257.215,258.921z"/>
				<g>
					<path style="fill:#9E4950;" d="M397.785,407.751c6.503-3.509,10.474-10.416,12.888-17.4
						c5.082-14.704,4.559-31.269-1.438-45.625l-35.663,14.186L397.785,407.751z"/>
					<path style="fill:#D24D84;" d="M379.279,361.106c11.761-4.506,23.065-10.205,33.679-16.982
						c-0.835-5.831-3.168-10.704-5.501-15.577l-32.698,13.718L379.279,361.106z"/>
					<path style="fill:#208DA8;" d="M362.246,254.309c4.006,2.468,7.839,5.213,11.45,8.2c19.562,16.179,32.997,38.938,40.216,64.504
						c-11.504,8.238-23.73,15.465-36.494,21.572L362.246,254.309z"/>
				</g>
				<g>
					<path style="fill:#D24D84;" d="M327.127,241.093c0,0-5.671,7.231-21.913,7.824c-16.243,0.594-21.385-4.116-21.385-4.116
						c-7.88,2.255-15.581,5.215-22.999,8.81l0.623,230.707h84.105l0.002-238.262C339.586,243.774,333.403,242.092,327.127,241.093z"
						/>
					<path style="fill:#9E4950;" d="M302.976,240.788c-6.463,0.863-12.862,2.215-19.148,4.014
						c5.445,6.671,14.339,10.774,22.999,10.002c8.491-0.757,16.368-6.172,20.3-13.71
						C319.146,239.824,311.016,239.661,302.976,240.788z"/>
					<path style="opacity:0.15;fill:#2E2854;" d="M345.559,246.056c-5.447-2.081-11.069-3.657-16.775-4.676
						c-0.742,7.269-2.554,25.967-4.27,51.051l-12.105-10.793c0,0-15.265-0.296-27.354,0.018
						c-1.503-17.173-2.911-29.848-3.649-36.131c-7.036,2.153-13.921,4.862-20.577,8.088l0.623,230.707h26.357
						c4.055-49.755,3.349-101.616,1.221-144.612l2.651-3.674h11.513l18.209,18.322c-1.311,42.472-0.935,89.879,3.958,129.963h20.196
						L345.559,246.056z"/>
				</g>
				<g>
					<path style="fill:#9E4950;" d="M192.647,397.512c-1.405-2.823-2.482-5.82-3.216-8.862c-2.394-9.916-1.57-20.329,0.041-30.403
						l47.022,3.969L192.647,397.512z"/>
					<path style="fill:#D24D84;" d="M229.208,363.344c-14.75,0.966-29.641-0.23-44.049-3.536c0.969-5.553,2.112-11.549,3.254-17.543
						l42.938,3.383L229.208,363.344z"/>
					<path style="fill:#208DA8;" d="M233.129,271.017c-1.488,1.178-2.955,2.385-4.399,3.619
						c-21.091,18.028-37.188,41.838-45.221,69.574c15.192,3.457,30.673,5.645,46.228,6.532L233.129,271.017z"/>
				</g>
				<g>
					<path style="fill:#208DA8;" d="M228.544,313.88c-3.221,55.437-4.653,110.979-4.295,166.51
						c-2.226,0.372,58.067-1.067,58.067-1.067c2.987-52.496,2.821-105.171-0.498-157.646c-0.936-24.273-1.597-47.134-2.259-69.994
						c-0.115-4.009-0.445-8.498-3.445-11.16c-4.854-4.307-12.833-0.81-18.801-3.36l3.516,16.449
						c-9.804,4.752-19.116,10.61-27.7,17.406L228.544,313.88z"/>
					<path style="opacity:0.15;fill:#2E2854;" d="M282.344,330.527c-16.389,17.973-41.325,45.344-57.179,62.866
						c-0.283,10.411-0.498,20.823-0.656,31.237c6.92,0.25,19.084-2.501,33.413-19.696c14.019-16.822,21.746-37.112,25.568-49.954
						C283.183,346.825,282.804,338.674,282.344,330.527z"/>
					
						<path style="fill:none;stroke:#2E2854;stroke-width:1.5;stroke-linecap:round;stroke-linejoin:round;stroke-miterlimit:10;" d="
						M228.544,313.88c-3.221,55.437-4.653,110.979-4.295,166.51c-2.226,0.372,58.067-1.067,58.067-1.067
						c2.987-52.496,2.821-105.171-0.498-157.646c-0.936-24.273-1.597-47.134-2.259-69.994c-0.115-4.009-0.445-8.498-3.445-11.16
						c-4.854-4.307-12.833-0.81-18.801-3.36"/>
				</g>
				<g>
					<path style="fill:#208DA8;" d="M377.571,310.206c5.831,56.655,7.144,113.775,3.924,170.639
						c-0.785,0.687-51.455,0.485-51.455,0.485c-2.445-31.328-3.833-62.803-2.479-94.198c1.918-44.527,2.814-86.954,2.919-129.423
						c0.015-5.715,1.536-18.608,3.326-21.117c2.49-3.492,8.399-4.293,13.685-2.119l-1.931,11.584
						c5.795,2.214,11.393,4.992,16.687,8.253L377.571,310.206z"/>
					<path style="opacity:0.15;fill:#2E2854;" d="M328.398,365.811c10.122,18.168,35.185,58.82,54.8,54.857
						c0.005-11.352-0.164-22.704-0.518-34.051l-53.428-47.219C329.008,348.139,328.721,356.945,328.398,365.811z"/>
					
						<path style="fill:none;stroke:#2E2854;stroke-width:1.5;stroke-linecap:round;stroke-linejoin:round;stroke-miterlimit:10;" d="
						M377.571,310.206c5.831,56.655,7.144,113.775,3.924,170.639c-0.785,0.687-51.455,0.485-51.455,0.485
						c-2.445-31.328-3.833-62.803-2.479-94.198c1.918-44.527,2.814-86.954,2.919-129.423c0.015-5.715,1.536-18.608,3.326-21.117
						c2.49-3.492,8.399-4.293,13.685-2.119"/>
				</g>
				<g>
					<path style="fill:#9E4950;" d="M192.647,397.512c3.175,6.381,8.026,11.869,14.384,14.967
						c9.913,4.832,22.136,3.129,31.692-2.375c9.556-5.504,16.764-14.355,22.504-23.771c12.567-20.618,19.052-44.593,32.513-64.639
						c0,0-13.689-13.146-16.107-12.559c-6.466,15.936-20.606,27.297-34.544,37.372c-13.938,10.073-28.706,20.076-37.531,34.838
						L192.647,397.512z"/>
					
						<path style="fill:none;stroke:#2E2854;stroke-width:1.5;stroke-linecap:round;stroke-linejoin:round;stroke-miterlimit:10;" d="
						M277.634,309.134c-6.466,15.936-20.606,27.297-34.544,37.372c-13.938,10.073-28.706,20.076-37.531,34.838"/>
				</g>
				<g>
					
						<linearGradient id="SVGID_00000128472119196944952110000007771536799965978296_" gradientUnits="userSpaceOnUse" x1="285.6544" y1="344.5667" x2="285.6544" y2="231.8124" gradientTransform="matrix(0.8154 -0.5788 0.5788 0.8154 -130.006 200.6679)">
						<stop  offset="0" style="stop-color:#F7E6D4;stop-opacity:0"/>
						<stop  offset="1" style="stop-color:#F7E6D4;stop-opacity:0.75"/>
					</linearGradient>
					<polygon style="opacity:0.3;fill:url(#SVGID_00000128472119196944952110000007771536799965978296_);" points="316.696,306.108 
						288.008,326.473 222.745,234.533 251.434,214.169 					"/>
					<path style="opacity:0.15;fill:#2E2854;" d="M239.878,208.15c-7.335-0.542-14.771,4.029-17.6,10.819
						c-2.83,6.79-0.841,15.288,4.709,20.116c5.549,4.828,14.241,5.623,20.574,1.882c6.333-3.742,9.831-11.739,8.28-18.928
						C254.291,214.848,247.832,208.738,239.878,208.15z"/>
					<path style="fill:#F7A145;" d="M237.603,205.641c-7.335-0.542-14.771,4.029-17.599,10.819
						c-2.83,6.79-0.841,15.288,4.709,20.116c5.549,4.828,14.241,5.623,20.574,1.881c6.333-3.742,9.831-11.738,8.28-18.928
						C252.016,212.339,245.557,206.228,237.603,205.641z"/>
					<path style="fill:#FF8330;" d="M235.968,209.923c-5.545,0.132-10.791,4.095-12.432,9.393
						c-1.641,5.297,0.447,11.532,4.946,14.775c4.499,3.242,11.074,3.25,15.581,0.017c4.505-3.233,6.607-9.465,4.977-14.765
						C247.411,214.042,242.172,209.776,235.968,209.923z"/>
					<path style="opacity:0.15;fill:#2E2854;" d="M253.567,219.53c-0.859-3.981-3.226-7.626-6.514-10.191
						c4.518,5.605,7.383,14.146,2.654,21.777c-4.857,7.839-11.873,9.161-16.214,9.459c4.03,0.635,8.275-0.039,11.793-2.117
						C251.62,234.716,255.118,226.719,253.567,219.53z"/>
					<path style="fill:#F5B878;" d="M220.004,216.46c-1.98,4.752-1.594,10.337,0.715,14.918c-1.263-3.623-2.608-9.764,1.65-16.509
						c2.951-4.675,7.837-7.69,13.274-9.24C228.98,205.946,222.58,210.276,220.004,216.46z"/>
					<g>
						<path style="fill:#F5B878;" d="M240.236,220.209c1.11,0.142,2.162,0.721,2.862,1.698l0.135,0.188
							c1.334,1.859,0.9,4.451-0.966,5.776l-0.083,0.059l0.714,0.995l-2.173,1.543l-0.714-0.995l-0.891,0.632l0.714,0.995
							l-2.173,1.543l-0.714-0.995l-0.507,0.36l-1.078,0.765l-1.553-2.166l1.078-0.765l-1.866-2.602l-1.554-2.167l-1.68-2.343
							l-1.078,0.765l-1.554-2.167l1.078-0.765l0.507-0.36l-0.873-1.218l2.173-1.543l0.873,1.218l0.891-0.632l-0.873-1.218
							l2.173-1.543l0.881,1.228c1.78-1.108,4.149-0.66,5.386,1.065l0.128,0.178C240.033,218.486,240.268,219.356,240.236,220.209z
							 M241.059,223.638l-0.135-0.188c-0.478-0.666-1.409-0.821-2.077-0.347l-0.281,0.199l-3.373,2.395l1.866,2.602l0.462-0.328
							l3.192-2.266C241.382,225.231,241.537,224.303,241.059,223.638 M231.959,221.187l1.68,2.343l3.373-2.395
							c0.599-0.425,0.739-1.257,0.311-1.854l-0.128-0.178c-0.428-0.597-1.264-0.736-1.863-0.311l-2.912,2.067L231.959,221.187"/>
					</g>
				</g>
				<g>
					
						<linearGradient id="SVGID_00000085227073269115220970000018360259573739742879_" gradientUnits="userSpaceOnUse" x1="215.3819" y1="352.2323" x2="215.3819" y2="239.485" gradientTransform="matrix(0.7688 -0.6395 0.6395 0.7688 -135.9214 225.7078)">
						<stop  offset="0" style="stop-color:#F7E6D4;stop-opacity:0"/>
						<stop  offset="1" style="stop-color:#F7E6D4;stop-opacity:0.75"/>
					</linearGradient>
					<polygon style="opacity:0.3;fill:url(#SVGID_00000085227073269115220970000018360259573739742879_);" points="268.441,347.517 
						241.393,370.016 169.291,283.337 196.338,260.838 					"/>
					<path style="opacity:0.15;fill:#2E2854;" d="M184.356,255.721c-7.355,0.021-14.419,5.147-16.721,12.133
						c-2.302,6.987,0.331,15.308,6.234,19.697c5.902,4.39,14.629,4.518,20.658,0.302c6.029-4.215,8.905-12.456,6.809-19.505
						C199.238,261.297,192.331,255.698,184.356,255.721z"/>
					<path style="fill:#F7A145;" d="M181.896,253.393c-7.355,0.021-14.419,5.147-16.721,12.133
						c-2.302,6.987,0.331,15.308,6.234,19.697c5.902,4.39,14.629,4.518,20.658,0.302c6.029-4.215,8.904-12.456,6.808-19.505
						C196.779,258.969,189.871,253.37,181.896,253.393z"/>
					<path style="fill:#FF8330;" d="M180.593,257.787c-5.519,0.555-10.446,4.908-11.677,10.317
						c-1.231,5.407,1.328,11.464,6.061,14.353c4.734,2.888,11.291,2.394,15.537-1.175c4.245-3.568,5.864-9.942,3.834-15.102
						C192.317,261.019,186.768,257.166,180.593,257.787z"/>
					<path style="opacity:0.15;fill:#2E2854;" d="M198.875,266.021c-1.161-3.904-3.8-7.357-7.274-9.663
						c4.933,5.243,8.443,13.54,4.312,21.51c-4.243,8.187-11.138,10.042-15.443,10.671c4.067,0.325,8.248-0.672,11.596-3.013
						C198.096,281.311,200.971,273.07,198.875,266.021z"/>
					<path style="fill:#F5B878;" d="M165.175,265.526c-1.611,4.89-0.798,10.429,1.854,14.82c-1.537-3.516-3.347-9.536,0.382-16.587
						c2.585-4.887,7.226-8.267,12.528-10.228C173.321,254.357,167.271,259.164,165.175,265.526z"/>
					<g>
						<path style="fill:#F5B878;" d="M185.635,267.717c1.118,0.057,2.211,0.554,2.984,1.474l0.149,0.177
							c1.472,1.752,1.238,4.369-0.522,5.833l-0.078,0.065l0.788,0.938l-2.049,1.704l-0.788-0.938l-0.84,0.699l0.788,0.938
							l-2.049,1.704l-0.788-0.938l-0.478,0.398l-1.016,0.845l-1.715-2.041l1.016-0.845l-2.059-2.451l-1.715-2.042l-1.855-2.208
							l-1.016,0.845l-1.715-2.042l1.016-0.845l0.478-0.398l-0.964-1.147l2.049-1.704l0.964,1.147l0.84-0.699l-0.964-1.147
							l2.049-1.704l0.972,1.157c1.69-1.24,4.086-0.975,5.451,0.65l0.141,0.168C185.301,266.015,185.602,266.864,185.635,267.717z
							 M186.718,271.073l-0.149-0.177c-0.527-0.628-1.468-0.711-2.098-0.187l-0.265,0.22l-3.18,2.646l2.059,2.452l0.435-0.362
							l3.01-2.504C187.161,272.637,187.245,271.7,186.718,271.073 M177.457,269.326l1.855,2.208l3.18-2.646
							c0.565-0.47,0.641-1.31,0.168-1.872l-0.141-0.168c-0.473-0.563-1.317-0.637-1.882-0.168l-2.745,2.284L177.457,269.326"/>
					</g>
				</g>
				<g>
					
						<linearGradient id="SVGID_00000026144208282693431280000015382195170334916502_" gradientUnits="userSpaceOnUse" x1="332.4969" y1="322.1934" x2="332.4969" y2="209.444" gradientTransform="matrix(0.7752 0.6317 -0.6317 0.7752 243.981 -154.5654)">
						<stop  offset="0" style="stop-color:#F7E6D4;stop-opacity:0"/>
						<stop  offset="1" style="stop-color:#F7E6D4;stop-opacity:0.75"/>
					</linearGradient>
					<polygon style="opacity:0.3;fill:url(#SVGID_00000026144208282693431280000015382195170334916502_);" points="311.841,316.35 
						284.567,294.126 355.789,206.721 383.063,228.946 					"/>
					<path style="opacity:0.15;fill:#2E2854;" d="M385.784,216.204c-1.432-7.214-7.82-13.163-15.118-14.08
						c-7.299-0.918-14.96,3.264-18.134,9.9c-3.175,6.635-1.625,15.224,3.669,20.331c5.294,5.107,13.934,6.347,20.45,2.937
						C383.17,231.88,387.338,224.026,385.784,216.204z"/>
					<path style="fill:#F7A145;" d="M387.596,213.343c-1.432-7.214-7.82-13.163-15.118-14.08c-7.299-0.918-14.96,3.264-18.134,9.9
						c-3.175,6.635-1.625,15.224,3.67,20.331c5.294,5.107,13.934,6.347,20.45,2.937C384.982,229.019,389.15,221.165,387.596,213.343
						z"/>
					<path style="fill:#FF8330;" d="M383.034,212.908c-1.604-5.309-6.823-9.309-12.367-9.479c-5.542-0.17-10.996,3.504-12.923,8.704
						c-1.925,5.201-0.181,11.54,4.136,15.022c4.317,3.481,10.883,3.846,15.557,0.862
						C382.113,225.034,384.829,218.848,383.034,212.908z"/>
					<path style="opacity:0.15;fill:#2E2854;" d="M378.464,232.431c3.608-1.889,6.49-5.142,8.086-8.994
						c-4.198,5.848-11.667,10.886-20.282,8.362c-8.85-2.593-11.994-9.003-13.438-13.107c0.462,4.054,2.243,7.965,5.184,10.802
						C363.308,234.601,371.948,235.841,378.464,232.431z"/>
					<path style="fill:#F5B878;" d="M372.478,199.263c-5.108-0.642-10.388,1.219-14.188,4.665c3.155-2.183,8.716-5.115,16.351-2.81
						c5.292,1.598,9.501,5.504,12.443,10.331C385.004,205.112,379.125,200.098,372.478,199.263z"/>
					<g>
						<polygon style="fill:#F5B878;" points="374.884,220.679 376.563,209.045 365.508,213.039 367.865,219.72 						"/>
						<polygon style="fill:#F5B878;" points="364.614,214.135 363.917,224.565 373.991,221.776 367.036,220.737 						"/>
					</g>
				</g>
				<g>
					
						<linearGradient id="SVGID_00000006703395850727238250000009566170921927269051_" gradientUnits="userSpaceOnUse" x1="324.4625" y1="414.42" x2="324.4625" y2="301.6748" gradientTransform="matrix(0.8581 0.5135 -0.3941 0.6586 233.3143 -81.9068)">
						<stop  offset="0" style="stop-color:#F7E6D4;stop-opacity:0"/>
						<stop  offset="1" style="stop-color:#F7E6D4;stop-opacity:0.75"/>
					</linearGradient>
					<polygon style="opacity:0.3;fill:url(#SVGID_00000006703395850727238250000009566170921927269051_);" points="363.506,366.674 
						333.317,348.608 377.752,274.356 407.941,292.422 					"/>
					<path style="opacity:0.15;fill:#2E2854;" d="M408.799,279.421c-2.456-6.933-9.633-11.9-16.987-11.757
						c-7.355,0.143-14.334,5.384-16.519,12.407c-2.187,7.023,0.584,15.3,6.558,19.591c5.974,4.292,14.703,4.275,20.66-0.038
						C408.469,295.31,411.463,286.938,408.799,279.421z"/>
					<path style="fill:#F7A145;" d="M410.181,276.329c-2.456-6.933-9.633-11.9-16.987-11.757
						c-7.355,0.143-14.334,5.383-16.52,12.407c-2.186,7.023,0.584,15.3,6.558,19.591c5.974,4.292,14.703,4.275,20.66-0.038
						C409.851,292.218,412.845,283.846,410.181,276.329z"/>
					<path style="fill:#FF8330;" d="M405.604,276.555c-2.352-5.023-8.092-8.23-13.602-7.6c-5.509,0.63-10.377,5.051-11.535,10.474
						c-1.157,5.424,1.482,11.446,6.256,14.27c4.773,2.823,11.323,2.239,15.52-1.386
						C406.438,288.688,408.235,282.175,405.604,276.555z"/>
					<path style="opacity:0.15;fill:#2E2854;" d="M403.892,296.533c3.299-2.389,5.683-6.023,6.707-10.065
						c-3.312,6.391-9.978,12.452-18.867,11.195c-9.131-1.292-13.165-7.182-15.184-11.035c1.041,3.945,3.366,7.559,6.685,9.943
						C389.207,300.862,397.935,300.846,403.892,296.533z"/>
					<path style="fill:#F5B878;" d="M393.193,264.572c-5.147,0.1-10.104,2.702-13.369,6.659c2.808-2.615,7.889-6.317,15.776-5.134
						c5.467,0.82,10.194,4.079,13.801,8.432C406.431,268.557,399.891,264.442,393.193,264.572z"/>
					<g>
						<path style="fill:#F5B878;" d="M396.894,289.765l-7.161-4.132l3.704-3.421l2.467,0.628l1.325-1.035l-2.63-0.667l6.076-5.612
							c0.201-0.186,0.165-0.514-0.073-0.651l-2.489-1.436c-0.158-0.091-0.357-0.066-0.487,0.061l-6.832,6.673l-2.394-0.607
							l-1.321,1.027l2.605,0.663l-5.178,5.058l10.352,5.973l2.102-1.866C397.168,290.237,397.134,289.904,396.894,289.765z"/>
					</g>
				</g>
				<path style="fill:#9E4950;" d="M334.791,312.487c-1.266-1.995-2.458-4.034-3.567-6.117c-3.334-6.262-7.459-12.46-13.136-16.128
					l-2.338,22.246H334.791z"/>
				<g>
					<path style="fill:#5767BF;" d="M315.774,262.58c2.257,19.241,3.759,38.569,4.501,57.927c0.186,4.832-3.333,9.02-8.127,9.653
						c-8.008,1.058-16.131,1.646-24.271,1.739c-4.786,0.055-8.856-3.506-9.416-8.26c-2.234-18.992-3.294-38.125-3.805-57.232
						c-0.127-4.765,3.341-8.875,8.063-9.526c7.241-0.998,14.712-1.806,22.918-2.533C310.686,253.901,315.184,257.546,315.774,262.58
						z"/>
					<path style="fill:#2E2854;" d="M302.844,286.745c-2.659-2.032-6.62-2.153-9.398-0.289c-2.779,1.864-4.169,5.575-3.298,8.806
						c0.87,3.23,3.937,5.741,7.275,5.956c3.338,0.216,6.702-1.88,7.981-4.971C306.682,293.155,305.935,289.106,302.844,286.745z"/>
				</g>
				<g>
					<path style="fill:#9E4950;" d="M397.785,407.751c-7.854,4.239-17.847,2.528-25.512-2.047
						c-7.664-4.574-13.493-11.604-19.164-18.499c-13.706-16.66-25.487-35.099-40.813-49.773c-4.266-4.084-9.474-7.053-14.211-10.58
						c-0.914-0.681-1.857-1.394-2.392-2.401c-0.534-1.007-0.532-2.394,0.316-3.156c1.083-0.97,2.786-0.452,4.099,0.173
						c3.105,1.481,6.048,3.299,8.933,5.405c-4.888-4.011-9.805-8.051-13.907-12.862c-0.66-0.774-1.31-1.59-1.627-2.555
						c-0.317-0.966-0.239-2.123,0.444-2.876c0.607-0.671,1.585-0.905,2.485-0.808c0.899,0.095,1.74,0.482,2.547,0.89
						c5.594,2.832,10.393,6.982,15.288,10.927c-4.876-4.514-9.753-9.028-14.423-13.753c-1.03-1.043-2.078-2.14-2.573-3.52
						c-0.495-1.379-0.28-3.124,0.888-4.008c0.835-0.633,1.992-0.706,3.004-0.436c1.012,0.268,1.915,0.84,2.791,1.413
						c5.649,3.69,11.013,7.815,16.19,12.647c-4.789-5.495-9.577-10.988-14.367-16.482c-1.206-1.384-2.495-3.18-1.83-4.891
						c0.541-1.388,2.244-2.033,3.72-1.818c1.475,0.214,2.762,1.089,3.954,1.981c5.46,4.09,10.167,9.084,14.844,14.05l8.321,7.715
						c5.806,9.146,13.171,17.348,21.276,24.521c7.122,6.303,15.328,11.299,22.383,17.678c7.055,6.379,13.102,14.648,13.951,24.121
						L397.785,407.751z"/>
					
						<path style="fill:none;stroke:#2E2854;stroke-width:1.5;stroke-linecap:round;stroke-linejoin:round;stroke-miterlimit:10;" d="
						M312.296,337.433c-4.266-4.084-9.474-7.053-14.211-10.58c-0.914-0.681-1.857-1.394-2.392-2.401
						c-0.534-1.007-0.532-2.394,0.316-3.156c1.083-0.97,2.786-0.452,4.099,0.173c3.105,1.481,6.048,3.299,8.933,5.405
						c-4.888-4.011-9.805-8.051-13.907-12.862c-0.66-0.774-1.31-1.59-1.627-2.555c-0.317-0.966-0.239-2.123,0.444-2.876
						c0.607-0.671,1.585-0.905,2.485-0.808c0.899,0.095,1.74,0.482,2.547,0.89c5.594,2.832,10.393,6.982,15.288,10.927
						c-4.876-4.514-9.753-9.028-14.423-13.753c-1.03-1.043-2.078-2.14-2.573-3.52c-0.495-1.379-0.28-3.124,0.888-4.008
						c0.835-0.633,1.992-0.706,3.004-0.436c1.012,0.268,1.915,0.84,2.791,1.413c5.649,3.69,11.013,7.815,16.19,12.647
						c-4.789-5.495-9.577-10.988-14.367-16.482c-1.206-1.384-2.495-3.18-1.83-4.891c0.541-1.388,2.244-2.033,3.72-1.818
						c1.475,0.214,2.762,1.089,3.954,1.981c5.46,4.09,10.167,9.084,14.844,14.05"/>
					
						<path style="fill:none;stroke:#2E2854;stroke-width:1.5;stroke-linecap:round;stroke-linejoin:round;stroke-miterlimit:10;" d="
						M334.791,312.487c5.806,9.146,13.171,17.348,21.276,24.521c7.122,6.303,15.328,11.299,22.383,17.678
						c7.055,6.379,13.102,14.648,13.951,24.121"/>
				</g>
			</g>
			<g>
				<g>
					<path style="fill:#9E4950;" d="M294.098,223.324c-0.02,6.917-0.038,13.834-0.058,20.749c0,0,22.755-0.957,21.672-0.388
						c-0.651-7.633-1.302-15.266-1.955-22.899L294.098,223.324z"/>
					<path style="opacity:0.15;fill:#2E2854;" d="M314.663,231.392c-0.302-3.535-0.603-7.07-0.905-10.605l-19.66,2.537
						c-0.008,2.759-0.015,5.518-0.023,8.277C299.16,232.184,306.693,232.585,314.663,231.392z"/>
				</g>
				<g>
					<g>
						<path style="fill:#654687;" d="M293.284,119.012c-4.197-5.881-4.94-13.873-2.593-20.707
							c3.142-9.146,11.91-16.209,21.557-16.895c9.647-0.686,19.52,5.314,22.963,14.351c3.444,9.036-0.154,20.345-8.407,25.388
							L293.284,119.012z"/>
						<path style="opacity:0.15;fill:#2E2854;" d="M289.988,111.615c0.619,2.649,1.71,5.174,3.296,7.397l33.52,2.138
							c2.131-1.302,3.945-3.028,5.414-5.019C320.314,107.286,303.493,105.508,289.988,111.615z"/>
					</g>
					<path style="fill:#654687;" d="M345.985,182.52c6.025-12.381,6.819-27.285,1.78-40.1
						c-5.037-12.814-15.925-23.276-29.052-27.436c-13.125-4.161-28.228-1.801-39.239,6.467c-8.787-0.369-17.314,2.799-22.867,8.576
						c-5.553,5.777-8.35,13.813-8.899,21.807c-0.551,7.994,0.988,15.997,3.422,25.733
						C283.443,183.866,316.797,190.165,345.985,182.52z"/>
				</g>
				<g>
					<g>
						<path style="fill:#9E4950;" d="M259.277,173.671c-2.53-3.37-6.91-5.534-11.396-5.627c-4.485-0.094-8.959,1.885-11.638,5.147
							c-2.545,3.1-3.425,7.157-3.017,11.013c0.63,5.947,4.493,11.74,10.459,14.265c5.967,2.525,13.873,1.182,17.765-3.624
							L259.277,173.671z"/>
						<g>
							
								<path style="fill:none;stroke:#2E2854;stroke-width:1.5;stroke-linecap:round;stroke-linejoin:round;stroke-miterlimit:10;" d="
								M240.708,182.403c3.123-3.014,7.563-4.613,11.891-4.283"/>
							
								<path style="fill:none;stroke:#2E2854;stroke-width:1.5;stroke-linecap:round;stroke-linejoin:round;stroke-miterlimit:10;" d="
								M249.262,187.586c-1.795-2.489-2.898-5.473-3.163-8.532"/>
						</g>
						<path style="fill:#F7A145;" d="M250.857,197.484c-1.245-0.527-2.853,0.085-3.433,1.306c-0.58,1.221-0.038,2.853,1.157,3.486
							c1.195,0.633,2.85,0.162,3.533-1.005C252.797,200.104,252.523,198.189,250.857,197.484z"/>
					</g>
					<g>
						<path style="fill:#9E4950;" d="M341.338,174.742c2.618-3.303,7.052-5.352,11.539-5.327c4.486,0.023,8.907,2.118,11.5,5.449
							c2.463,3.166,3.237,7.244,2.728,11.088c-0.785,5.928-4.798,11.619-10.827,13.987c-6.031,2.368-13.9,0.82-17.665-4.087
							L341.338,174.742z"/>
						<g>
							
								<path style="fill:none;stroke:#2E2854;stroke-width:1.5;stroke-linecap:round;stroke-linejoin:round;stroke-miterlimit:10;" d="
								M359.673,183.956c-3.044-3.094-7.44-4.809-11.776-4.592"/>
							
								<path style="fill:none;stroke:#2E2854;stroke-width:1.5;stroke-linecap:round;stroke-linejoin:round;stroke-miterlimit:10;" d="
								M350.987,188.914c1.859-2.441,3.04-5.395,3.384-8.446"/>
						</g>
						<path style="fill:#F7A145;" d="M349.133,198.767c1.258-0.495,2.85,0.159,3.398,1.395c0.548,1.236-0.036,2.853-1.247,3.454
							c-1.211,0.601-2.853,0.087-3.506-1.097C347.126,201.336,347.449,199.429,349.133,198.767z"/>
					</g>
					<g>
						<path style="fill:#9E4950;" d="M342.75,167.104c-0.075,10.099-0.322,20.321-3.005,30.057
							c-2.684,9.737-8.077,19.076-16.533,24.598c-9.165,5.983-21.082,6.822-31.607,3.824c-11.107-3.162-20.99-10.442-27.305-20.112
							c-6.315-9.669-9.007-21.646-7.196-33.349c0.978-4.689,2.002-9.493,4.569-13.538c2.566-4.045,7.044-7.233,11.822-6.881
							c5.27,0.389,9.401,4.784,14.523,6.087c5.282,1.346,10.815-0.773,15.6-3.386c4.785-2.612,9.41-5.811,14.757-6.877
							c5.795-1.156,12.081,0.464,16.594,4.278C339.481,155.62,342.791,161.512,342.75,167.104z"/>
						<g>
							<path style="fill:#B35B62;" d="M281.476,221.38c1.959-1.059,3.597-2.716,4.507-4.751c1.738-3.889,0.733-8.88-2.543-11.784
								c-3.188-2.827-8.225-3.323-11.903-1.173c-2.112,1.235-3.68,3.29-4.465,5.603C271.032,214.188,275.958,218.318,281.476,221.38
								z"/>
							<path style="fill:#B35B62;" d="M334.792,209.146c-0.758-2.212-2.229-4.184-4.219-5.417c-3.621-2.245-8.669-1.881-11.93,0.862
								c-3.35,2.818-4.486,7.78-2.85,11.714c1.186,2.85,3.78,5.014,6.733,5.869c0.227-0.14,0.46-0.269,0.683-0.415
								C328.056,218.594,331.892,214.174,334.792,209.146z"/>
						</g>
						
							<path style="fill:none;stroke:#2E2854;stroke-width:1.5;stroke-linecap:round;stroke-linejoin:round;stroke-miterlimit:10;" d="
							M296.263,178.077c-0.416,2.173-0.735,4.387-0.922,6.682c1.786,0.09,3.582-0.024,5.343-0.337"/>
						
							<path style="fill:none;stroke:#2E2854;stroke-width:1.5;stroke-linecap:round;stroke-linejoin:round;stroke-miterlimit:10;" d="
							M285.635,196.047c9.12,0.636,18.388-0.956,26.773-4.596"/>
						<g>
							
								<path style="fill:none;stroke:#2E2854;stroke-width:1.5;stroke-linecap:round;stroke-linejoin:round;stroke-miterlimit:10;" d="
								M270.591,176.848c1.488-2.053,3.983-3.338,6.518-3.356c2.536-0.019,5.05,1.227,6.569,3.258"/>
							
								<path style="fill:none;stroke:#2E2854;stroke-width:1.5;stroke-linecap:round;stroke-linejoin:round;stroke-miterlimit:10;" d="
								M331.757,176.023c-1.435-2.091-3.895-3.441-6.429-3.525c-2.534-0.085-5.079,1.095-6.651,3.086"/>
							<g>
								
									<path style="fill:none;stroke:#F7A145;stroke-width:3;stroke-linecap:round;stroke-linejoin:round;stroke-miterlimit:10;" d="
									M293.727,175.668c1.646-1.435,3.809-2.282,5.998-2.292c2.523-0.005,5.021,1.113,6.71,2.972"/>
								
									<path style="fill:none;stroke:#F7A145;stroke-width:3;stroke-linecap:round;stroke-linejoin:round;stroke-miterlimit:10;" d="
									M286.849,162.592c-14.756-11.322-36.228,9.001-23.107,24.185C279.185,204.651,306.598,177.746,286.849,162.592z"/>
								
									<path style="fill:none;stroke:#F7A145;stroke-width:3;stroke-linecap:round;stroke-linejoin:round;stroke-miterlimit:10;" d="
									M313.498,161.435c15.046-10.933,35.98,9.944,22.467,24.78C320.061,203.678,293.36,176.067,313.498,161.435z"/>
							</g>
						</g>
					</g>
				</g>
			</g>
		</g>
	</g>
	<g>
		<path style="fill:#F2D3E8;" d="M537.432,464.075c-2.164-1.486-5.449-1-7.075,1.061c-1.626,2.061-1.32,5.388,0.668,7.1
			c1.99,1.714,5.343,1.514,7.098-0.437C539.878,469.845,540.156,465.946,537.432,464.075z"/>
		<path style="fill:#F2D3E8;" d="M48.24,422.062c-2.165-1.486-5.449-1-7.075,1.061s-1.32,5.388,0.668,7.1
			c1.99,1.714,5.343,1.514,7.098-0.437C50.687,427.832,50.965,423.934,48.24,422.062z"/>
		<path style="fill:#F2D3E8;" d="M514.787,36.786c-2.164-1.486-5.449-1-7.075,1.061c-1.626,2.061-1.32,5.388,0.668,7.1
			c1.99,1.714,5.343,1.514,7.098-0.437C517.234,42.556,517.512,38.657,514.787,36.786z"/>
		<path style="fill:#F2D3E8;" d="M76.821,34.477c-2.805-2.652-7.404-3.166-10.725-1.199c-3.321,1.966-5.08,6.246-4.103,9.98
			c0.978,3.735,4.608,6.604,8.467,6.692c3.859,0.088,7.616-2.613,8.763-6.299C80.119,40.764,79.499,37.009,76.821,34.477z"/>
		<path style="fill:#F2D3E8;" d="M567.375,420.544c-2.805-2.652-7.404-3.166-10.725-1.199c-3.321,1.966-5.08,6.246-4.103,9.98
			c0.978,3.735,4.608,6.604,8.467,6.692c3.859,0.088,7.617-2.613,8.763-6.299C570.674,426.832,570.053,423.077,567.375,420.544z"/>
		<path style="fill:#FFFFFF;" d="M93.247,271.852c-2.805-2.652-7.404-3.166-10.725-1.199c-3.321,1.966-5.08,6.246-4.103,9.98
			c0.978,3.735,4.608,6.604,8.467,6.692c3.859,0.088,7.617-2.613,8.763-6.299C96.546,278.14,95.926,274.384,93.247,271.852z"/>
		<g>
			<path style="fill:none;stroke:#2E2854;stroke-width:1.5;stroke-linecap:round;stroke-linejoin:round;stroke-miterlimit:10;" d="
				M250.012,305.987c-0.054,2.765-0.107,5.532-0.16,8.297"/>
			
				<line style="fill:none;stroke:#2E2854;stroke-width:1.5;stroke-linecap:round;stroke-linejoin:round;stroke-miterlimit:10;" x1="245.659" y1="310.012" x2="253.921" y2="309.821"/>
		</g>
		<g>
			<path style="fill:none;stroke:#2E2854;stroke-width:1.5;stroke-linecap:round;stroke-linejoin:round;stroke-miterlimit:10;" d="
				M338.936,65.659c-0.054,2.765-0.107,5.532-0.16,8.297"/>
			
				<line style="fill:none;stroke:#2E2854;stroke-width:1.5;stroke-linecap:round;stroke-linejoin:round;stroke-miterlimit:10;" x1="334.583" y1="69.685" x2="342.845" y2="69.493"/>
		</g>
		<path style="fill:#F2D3E8;" d="M542.784,62.584c-1.531-0.204-3.123,0.915-3.449,2.423c-0.326,1.509,0.661,3.185,2.14,3.632
			c1.478,0.446,3.228-0.405,3.791-1.843C545.829,65.358,545.288,62.919,542.784,62.584z"/>
		<path style="fill:#F2D3E8;" d="M122.639,37.944c-1.531-0.204-3.123,0.915-3.449,2.423c-0.326,1.509,0.661,3.185,2.14,3.632
			c1.478,0.445,3.228-0.405,3.791-1.843C125.683,40.717,125.143,38.279,122.639,37.944z"/>
		<path style="fill:#F2D3E8;" d="M57.251,66.733c-1.531-0.204-3.123,0.915-3.449,2.423c-0.326,1.509,0.661,3.185,2.14,3.632
			c1.478,0.445,3.228-0.405,3.791-1.843C60.295,69.506,59.755,67.068,57.251,66.733z"/>
		<path style="fill:#F2D3E8;" d="M74.177,462.134c-1.531-0.204-3.123,0.915-3.449,2.423c-0.326,1.509,0.661,3.185,2.14,3.632
			c1.478,0.446,3.228-0.405,3.791-1.843C77.221,464.907,76.68,462.469,74.177,462.134z"/>
		<path style="fill:#FFFFFF;" d="M177.981,430.681c-1.531-0.204-3.123,0.915-3.449,2.423c-0.326,1.509,0.661,3.185,2.14,3.632
			c1.478,0.445,3.228-0.405,3.791-1.843C181.025,433.455,180.484,431.016,177.981,430.681z"/>
		<path style="fill:#FFFFFF;" d="M539.239,304.133c-1.531-0.204-3.123,0.915-3.449,2.423c-0.326,1.509,0.661,3.185,2.14,3.632
			c1.478,0.445,3.228-0.405,3.791-1.843C542.284,306.907,541.743,304.468,539.239,304.133z"/>
		<path style="fill:#FFFFFF;" d="M507.08,382.124c-1.531-0.204-3.123,0.915-3.449,2.423c-0.326,1.509,0.661,3.185,2.14,3.632
			c1.478,0.446,3.228-0.405,3.791-1.842C510.124,384.898,509.584,382.46,507.08,382.124z"/>
		<path style="fill:#FFFFFF;" d="M506.917,113.543c-1.531-0.204-3.123,0.915-3.449,2.423c-0.326,1.509,0.661,3.185,2.14,3.632
			c1.478,0.446,3.228-0.405,3.791-1.842C509.961,116.316,509.421,113.878,506.917,113.543z"/>
		<g>
			<path style="fill:none;stroke:#FFFFFF;stroke-width:1.5;stroke-linecap:round;stroke-linejoin:round;stroke-miterlimit:10;" d="
				M361.099,274.246c-0.054,2.765-0.107,5.532-0.16,8.297"/>
			
				<line style="fill:none;stroke:#FFFFFF;stroke-width:1.5;stroke-linecap:round;stroke-linejoin:round;stroke-miterlimit:10;" x1="356.746" y1="278.271" x2="365.008" y2="278.08"/>
		</g>
		<g>
			<path style="fill:none;stroke:#FFFFFF;stroke-width:1.5;stroke-linecap:round;stroke-linejoin:round;stroke-miterlimit:10;" d="
				M326.307,129.217c-0.054,2.765-0.108,5.532-0.16,8.297"/>
			
				<line style="fill:none;stroke:#FFFFFF;stroke-width:1.5;stroke-linecap:round;stroke-linejoin:round;stroke-miterlimit:10;" x1="321.955" y1="133.242" x2="330.216" y2="133.051"/>
		</g>
		<g>
			<path style="fill:none;stroke:#FFFFFF;stroke-width:1.5;stroke-linecap:round;stroke-linejoin:round;stroke-miterlimit:10;" d="
				M237.681,112.985c-0.054,2.766-0.108,5.532-0.161,8.297"/>
			
				<line style="fill:none;stroke:#FFFFFF;stroke-width:1.5;stroke-linecap:round;stroke-linejoin:round;stroke-miterlimit:10;" x1="233.328" y1="117.011" x2="241.59" y2="116.82"/>
		</g>
		<g>
			<path style="fill:none;stroke:#2E2854;stroke-width:1.5;stroke-linecap:round;stroke-linejoin:round;stroke-miterlimit:10;" d="
				M485.517,308.657c-0.054,2.765-0.108,5.532-0.161,8.297"/>
			
				<line style="fill:none;stroke:#2E2854;stroke-width:1.5;stroke-linecap:round;stroke-linejoin:round;stroke-miterlimit:10;" x1="481.165" y1="312.683" x2="489.426" y2="312.492"/>
		</g>
		<g>
			<path style="fill:none;stroke:#2E2854;stroke-width:1.5;stroke-linecap:round;stroke-linejoin:round;stroke-miterlimit:10;" d="
				M190.39,222.835c-0.054,2.765-0.108,5.532-0.161,8.297"/>
			
				<line style="fill:none;stroke:#2E2854;stroke-width:1.5;stroke-linecap:round;stroke-linejoin:round;stroke-miterlimit:10;" x1="186.037" y1="226.86" x2="194.299" y2="226.669"/>
		</g>
		<g>
			<path style="fill:none;stroke:#2E2854;stroke-width:1.5;stroke-linecap:round;stroke-linejoin:round;stroke-miterlimit:10;" d="
				M430.855,116.101c-0.054,2.765-0.108,5.532-0.16,8.297"/>
			
				<line style="fill:none;stroke:#2E2854;stroke-width:1.5;stroke-linecap:round;stroke-linejoin:round;stroke-miterlimit:10;" x1="426.503" y1="120.127" x2="434.764" y2="119.936"/>
		</g>
		<path style="fill:none;stroke:#2E2854;stroke-width:1.5;stroke-linecap:round;stroke-linejoin:round;stroke-miterlimit:10;" d="
			M423.423,434.346c0-1.499-1.215-2.714-2.714-2.714c-1.499,0-2.714,1.215-2.714,2.714c0,1.499,1.215,2.714,2.714,2.714
			C422.207,437.06,423.423,435.845,423.423,434.346z"/>
		
			<circle style="fill:none;stroke:#2E2854;stroke-width:1.5;stroke-linecap:round;stroke-linejoin:round;stroke-miterlimit:10;" cx="76.861" cy="233.485" r="2.714"/>
		
			<circle style="fill:none;stroke:#2E2854;stroke-width:1.5;stroke-linecap:round;stroke-linejoin:round;stroke-miterlimit:10;" cx="561.219" cy="453.196" r="2.714"/>
		
			<circle style="fill:none;stroke:#2E2854;stroke-width:1.5;stroke-linecap:round;stroke-linejoin:round;stroke-miterlimit:10;" cx="188.016" cy="59.643" r="2.714"/>
		
			<circle style="fill:none;stroke:#2E2854;stroke-width:1.5;stroke-linecap:round;stroke-linejoin:round;stroke-miterlimit:10;" cx="529.109" cy="137.911" r="2.714"/>
	</g>
</g>
</svg>
