<?xml version="1.0" encoding="utf-8"?>
<!-- Generator: Adobe Illustrator 27.5.0, SVG Export Plug-In . SVG Version: 6.00 Build 0)  -->
<svg version="1.1" xmlns="http://www.w3.org/2000/svg" xmlns:xlink="http://www.w3.org/1999/xlink" x="0px" y="0px"
	 viewBox="0 0 500 500" style="enable-background:new 0 0 500 500;" xml:space="preserve">
<g id="BACKGROUND">
	<rect style="fill:#FFFFFF;" width="500" height="500"/>
</g>
<g id="OBJECTS">
	<g>
		
			<line style="fill:none;stroke:#222221;stroke-width:0.5;stroke-miterlimit:10;" x1="224.351" y1="444.359" x2="67.402" y2="444.359"/>
		<g>
			<path style="fill:#DBE0FC;" d="M310.511,352.706c-5.193,1.62-10.758,2.258-15.814,4.323
				c-17.197,7.024-21.858,30.444-15.896,46.536c6.786,18.317,32.87,27.613,50.508,29.43c15.942,1.642,45.814,6.103,59.923-3.801
				c39.734-27.891,40.672-119.177-18.888-121.978c-7.259-0.341-14.804,0.656-21.025,4.413c-15.022,9.071-18.456,31.33-34.129,39.224
				C313.683,351.612,312.115,352.206,310.511,352.706z"/>
			<path style="fill:#DBE0FC;" d="M91.173,403.257c-1.495-0.944-2.951-1.958-4.363-3.044c-7.746-5.962-13.835-13.849-18.813-22.261
				c-25.635-43.323-29.201-108.87,0.529-151.027c20.92-29.664,56.474-45.55,80.691-72.59c20.479-22.866,39.969-41.973,64.903-60.005
				c26.336-19.047,60.915-26.247,92.665-19.296c16.953,3.711,36.923,14.03,52.595,21.866c17.492,8.745,33.907,19.852,48.162,33.266
				c28.253,26.586,47.483,63.005,44.708,102.581c-1.056,15.06-7.279,30.297-18.258,40.848
				c-12.845,12.344-27.387,10.003-43.973,8.021c-25.791-3.082-52.443-2.741-77.106,5.409c-36.98,12.22-55.491,43.905-79.092,72.091
				c-25.068,29.938-55.389,52.85-95.99,54.795C121.649,414.686,104.777,411.848,91.173,403.257z"/>
		</g>
		<g>
			<g>
				<g>
					
						<rect x="105.56" y="329.734" style="fill:#FFFFFF;stroke:#222221;stroke-width:0.5;stroke-miterlimit:10;" width="45.763" height="109.831"/>
					<path style="fill:#FFFFFF;stroke:#222221;stroke-width:0.5;stroke-miterlimit:10;" d="M179.04,334.069H77.844
						c-1.356,0-2.456-1.1-2.456-2.456V319.28c0-1.356,1.1-2.456,2.456-2.456H179.04c1.356,0,2.456,1.1,2.456,2.456v12.333
						C181.496,332.969,180.396,334.069,179.04,334.069z"/>
				</g>
				
					<ellipse style="fill:#FFFFFF;stroke:#222221;stroke-width:0.5;stroke-miterlimit:10;" cx="77.306" cy="325.447" rx="5.385" ry="8.752"/>
				
					<ellipse style="fill:#FFFFFF;stroke:#222221;stroke-width:0.5;stroke-miterlimit:10;" cx="178.822" cy="325.447" rx="5.385" ry="8.752"/>
			</g>
			<g>
				
					<line style="fill:#FFFFFF;stroke:#222221;stroke-width:0.5;stroke-miterlimit:10;" x1="114.562" y1="334.631" x2="114.562" y2="438.649"/>
				
					<line style="fill:#FFFFFF;stroke:#222221;stroke-width:0.5;stroke-miterlimit:10;" x1="123.563" y1="334.631" x2="123.563" y2="438.649"/>
				
					<line style="fill:#FFFFFF;stroke:#222221;stroke-width:0.5;stroke-miterlimit:10;" x1="132.565" y1="334.631" x2="132.565" y2="438.649"/>
				
					<line style="fill:#FFFFFF;stroke:#222221;stroke-width:0.5;stroke-miterlimit:10;" x1="141.566" y1="334.631" x2="141.566" y2="438.649"/>
			</g>
			<path style="fill:#FFFFFF;stroke:#222221;stroke-width:0.5;stroke-miterlimit:10;" d="M163.07,444.15H93.058l0,0
				c0-6.076,4.926-11.002,11.002-11.002h48.008C158.144,433.148,163.07,438.073,163.07,444.15L163.07,444.15z"/>
		</g>
		<g>
			<g>
				<polygon style="fill:none;stroke:#222221;stroke-width:0.5;stroke-miterlimit:10;" points="119.783,130.695 76.656,130.695 
					55.092,168.044 76.656,205.393 119.783,205.393 141.347,168.044 				"/>
				<polygon style="fill:none;stroke:#222221;stroke-width:0.5;stroke-miterlimit:10;" points="184.518,93.552 141.39,93.552 
					119.827,130.901 141.39,168.251 184.518,168.251 206.081,130.901 				"/>
				<polygon style="fill:#5F76E8;stroke:#000000;stroke-width:0.5;stroke-miterlimit:10;" points="249.252,56.409 206.125,56.409 
					184.561,93.759 206.125,131.108 249.252,131.108 270.815,93.759 				"/>
				<polygon style="fill:#A8DCA4;stroke:#000000;stroke-width:0.5;stroke-miterlimit:10;" points="184.164,168.545 141.036,168.545 
					119.473,205.894 141.036,243.243 184.164,243.243 205.727,205.894 				"/>
				<polygon style="fill:none;stroke:#222221;stroke-width:0.5;stroke-miterlimit:10;" points="248.898,131.402 205.771,131.402 
					184.207,168.751 205.771,206.101 248.898,206.101 270.462,168.751 				"/>
				<polygon style="fill:#A8DCA4;stroke:#000000;stroke-width:0.5;stroke-miterlimit:10;" points="313.632,94.259 270.505,94.259 
					248.941,131.609 270.505,168.958 313.632,168.958 335.196,131.609 				"/>
				<polygon style="fill:#D89CC7;stroke:#000000;stroke-width:0.5;stroke-miterlimit:10;" points="248.898,206.041 205.771,206.041 
					184.207,243.39 205.771,280.74 248.898,280.74 270.462,243.39 				"/>
				<polygon style="fill:none;stroke:#222221;stroke-width:0.5;stroke-miterlimit:10;" points="120.092,55.998 76.965,55.998 
					55.402,93.348 76.965,130.697 120.092,130.697 141.656,93.348 				"/>
				<polygon style="fill:none;stroke:#222221;stroke-width:0.5;stroke-miterlimit:10;" points="313.632,168.898 270.505,168.898 
					248.941,206.248 270.505,243.597 313.632,243.597 335.196,206.248 				"/>
				<polygon style="fill:none;stroke:#222221;stroke-width:0.5;stroke-miterlimit:10;" points="378.367,131.756 335.239,131.756 
					313.676,169.105 335.239,206.454 378.367,206.454 399.93,169.105 				"/>
			</g>
			<g>
				<g>
					<path style="fill:#D47172;stroke:#000000;stroke-width:0.5;stroke-miterlimit:10;" d="M164.36,144.124
						c-11.76,0-21.293-12.644-21.293-12.644s9.533-12.644,21.293-12.644c11.76,0,21.293,12.644,21.293,12.644
						S176.12,144.124,164.36,144.124z"/>
					<ellipse cx="164.271" cy="131.496" rx="9.034" ry="12.583"/>
				</g>
			</g>
			<path style="fill:#D47172;stroke:#000000;stroke-width:0.5;stroke-miterlimit:10;" d="M209.049,206.575
				c0,2.067-1.675,3.742-3.742,3.742c-2.067,0-3.742-1.675-3.742-3.742c0-2.067,1.675-3.742,3.742-3.742
				C207.373,202.833,209.049,204.509,209.049,206.575z"/>
			<path style="fill:#D47172;stroke:#000000;stroke-width:0.5;stroke-miterlimit:10;" d="M253.457,206.575
				c0,2.067-1.675,3.742-3.742,3.742c-2.067,0-3.742-1.675-3.742-3.742c0-2.067,1.675-3.742,3.742-3.742
				C251.782,202.833,253.457,204.509,253.457,206.575z"/>
			<path style="fill:#222221;" d="M274.203,168.751c0,2.066-1.675,3.742-3.742,3.742c-2.067,0-3.742-1.675-3.742-3.742
				c0-2.067,1.675-3.742,3.742-3.742C272.528,165.01,274.203,166.685,274.203,168.751z"/>
			<path style="fill:#222221;" d="M317.374,168.958c0,2.067-1.675,3.742-3.742,3.742s-3.742-1.675-3.742-3.742
				c0-2.067,1.675-3.742,3.742-3.742S317.374,166.891,317.374,168.958z"/>
			<path style="fill:#222221;" d="M188.321,93.553c0,2.067-1.675,3.742-3.742,3.742c-2.067,0-3.742-1.675-3.742-3.742
				c0-2.067,1.675-3.742,3.742-3.742C186.645,89.811,188.321,91.486,188.321,93.553z"/>
			<path style="fill:#D47172;stroke:#000000;stroke-width:0.5;stroke-miterlimit:10;" d="M274.203,243.39
				c0,2.066-1.675,3.742-3.742,3.742c-2.067,0-3.742-1.675-3.742-3.742c0-2.067,1.675-3.742,3.742-3.742
				C272.528,239.648,274.203,241.324,274.203,243.39z"/>
			<path style="fill:#222221;" d="M339.131,132.298c0,2.067-1.675,3.742-3.742,3.742c-2.067,0-3.742-1.675-3.742-3.742
				c0-2.067,1.675-3.742,3.742-3.742C337.456,128.557,339.131,130.232,339.131,132.298z"/>
			<path style="fill:#222221;" d="M209.049,131.468c0,2.067-1.675,3.742-3.742,3.742c-2.067,0-3.742-1.675-3.742-3.742
				c0-2.066,1.675-3.742,3.742-3.742C207.373,127.726,209.049,129.401,209.049,131.468z"/>
			<path style="fill:#222221;" d="M145.565,94.51c0,2.067-1.675,3.742-3.742,3.742c-2.066,0-3.742-1.675-3.742-3.742
				c0-2.067,1.675-3.742,3.742-3.742C143.89,90.769,145.565,92.444,145.565,94.51z"/>
			<path style="fill:#222221;" d="M253.457,131.468c0,2.067-1.675,3.742-3.742,3.742c-2.067,0-3.742-1.675-3.742-3.742
				c0-2.066,1.675-3.742,3.742-3.742C251.782,127.726,253.457,129.401,253.457,131.468z"/>
			<path style="fill:#222221;" d="M144.671,168.723c0,2.067-1.675,3.742-3.742,3.742c-2.067,0-3.742-1.675-3.742-3.742
				c0-2.066,1.675-3.742,3.742-3.742C142.996,164.982,144.671,166.657,144.671,168.723z"/>
			<path style="fill:#222221;" d="M58.834,168.044c0,2.067-1.675,3.742-3.742,3.742s-3.742-1.675-3.742-3.742
				s1.675-3.742,3.742-3.742S58.834,165.977,58.834,168.044z"/>
			<path style="fill:#222221;" d="M123.987,130.657c0,2.067-1.675,3.742-3.742,3.742c-2.067,0-3.742-1.675-3.742-3.742
				c0-2.066,1.675-3.742,3.742-3.742C122.311,126.915,123.987,128.591,123.987,130.657z"/>
			<path style="fill:#222221;" d="M79.98,131.374c0,2.067-1.675,3.742-3.742,3.742c-2.067,0-3.742-1.675-3.742-3.742
				s1.675-3.742,3.742-3.742C78.305,127.632,79.98,129.308,79.98,131.374z"/>
			<path style="fill:#222221;" d="M188.259,168.723c0,2.067-1.675,3.742-3.742,3.742c-2.067,0-3.742-1.675-3.742-3.742
				c0-2.066,1.675-3.742,3.742-3.742C186.584,164.982,188.259,166.657,188.259,168.723z"/>
			<circle style="fill:#222221;" cx="140.929" cy="243.235" r="3.742"/>
			<path style="fill:#D47172;stroke:#000000;stroke-width:0.5;stroke-miterlimit:10;" d="M188.259,243.235
				c0,2.067-1.675,3.742-3.742,3.742c-2.067,0-3.742-1.675-3.742-3.742c0-2.067,1.675-3.742,3.742-3.742
				C186.584,239.493,188.259,241.168,188.259,243.235z"/>
			<g>
				<g>
					<polygon style="fill:#D47172;stroke:#000000;stroke-width:0.5;stroke-miterlimit:10;" points="116.657,156.577 98.229,168.076 
						79.92,156.577 98.229,145.079 					"/>
					<polygon style="fill:#A8DCA4;stroke:#000000;stroke-width:0.5;stroke-miterlimit:10;" points="98.17,190.038 79.906,177.983 
						79.906,156.666 98.229,168.034 					"/>
					<polygon style="fill:#5F76E8;stroke:#000000;stroke-width:0.5;stroke-miterlimit:10;" points="98.17,190.038 116.66,177.983 
						116.66,156.666 98.229,168.034 					"/>
				</g>
				<g>
					<defs>
						<polygon id="SVGID_1_" points="98.17,190.038 116.66,177.983 116.66,156.666 98.229,168.034 						"/>
					</defs>
					<clipPath id="SVGID_00000177460322351897955140000005003179713218873261_">
						<use xlink:href="#SVGID_1_"  style="overflow:visible;"/>
					</clipPath>
					
						<line style="clip-path:url(#SVGID_00000177460322351897955140000005003179713218873261_);fill:#D47172;stroke:#000000;stroke-miterlimit:10;" x1="96.799" y1="173.38" x2="118.74" y2="159.95"/>
					
						<line style="clip-path:url(#SVGID_00000177460322351897955140000005003179713218873261_);fill:#D47172;stroke:#000000;stroke-miterlimit:10;" x1="96.799" y1="177.541" x2="118.74" y2="164.112"/>
					
						<line style="clip-path:url(#SVGID_00000177460322351897955140000005003179713218873261_);fill:#D47172;stroke:#000000;stroke-miterlimit:10;" x1="96.799" y1="181.702" x2="118.74" y2="168.273"/>
					
						<line style="clip-path:url(#SVGID_00000177460322351897955140000005003179713218873261_);fill:#D47172;stroke:#000000;stroke-miterlimit:10;" x1="96.799" y1="185.863" x2="118.74" y2="172.434"/>
				</g>
			</g>
			<g>
				<g>
					<polygon style="fill:#A8DCA4;stroke:#000000;stroke-width:0.5;stroke-miterlimit:10;" points="245.415,78.967 227.815,89.949 
						210.328,78.967 227.815,67.984 					"/>
					<polygon style="fill:#D89CC7;stroke:#000000;stroke-width:0.5;stroke-miterlimit:10;" points="227.758,110.924 210.314,99.411 
						210.314,79.052 227.815,89.909 					"/>
					<polygon style="fill:#222221;stroke:#222221;stroke-width:0.5;stroke-miterlimit:10;" points="227.758,110.924 245.417,99.411 
						245.417,79.052 227.815,89.909 					"/>
				</g>
				<g>
					<defs>
						<polygon id="SVGID_00000128481033878970965690000011748231059050219957_" points="227.758,110.924 210.314,99.411 
							210.314,79.052 227.815,89.909 						"/>
					</defs>
					<clipPath id="SVGID_00000181047797042888938720000013043109905775727276_">
						<use xlink:href="#SVGID_00000128481033878970965690000011748231059050219957_"  style="overflow:visible;"/>
					</clipPath>
					<path style="clip-path:url(#SVGID_00000181047797042888938720000013043109905775727276_);fill:#222221;" d="M215.784,89.242
						c-0.075,0.202-0.164,0.399-0.258,0.589c-0.914,1.838-3.883,5.12-6.048,5.315c-1.729,0.156-2.867-1.262-2.231-2.899
						c0.804-2.071,3.863-2.476,5.19-4.134c0.578-0.722,1.046-1.737,1.966-1.827c0.756-0.074,1.427,0.61,1.573,1.355
						C216.081,88.177,215.977,88.724,215.784,89.242z"/>
					<path style="clip-path:url(#SVGID_00000181047797042888938720000013043109905775727276_);fill:#222221;" d="M213.63,99.548
						c0.617-1.536,1.455-3.272,3.067-3.647c0.495-0.115,1.05-0.07,1.457,0.234c0.858,0.641,0.646,1.961,0.345,2.989
						c-0.369,1.263-0.738,2.526-1.107,3.79c-0.539,1.843-2.135,4.795-4.538,3.273C210.598,104.759,212.928,101.298,213.63,99.548z"
						/>
					<path style="clip-path:url(#SVGID_00000181047797042888938720000013043109905775727276_);fill:#222221;" d="M218.303,90.308
						c-0.065,0.247-0.109,0.513-0.023,0.752c0.21,0.583,1.012,0.656,1.616,0.516c2.469-0.573,4.183-2.854,5.147-5.198
						c0.254-0.618,0.474-1.268,0.458-1.936c-0.026-1.068-0.883-2.171-2.055-1.912c-0.935,0.207-1.154,1.412-1.571,2.115
						C220.756,86.532,218.874,88.138,218.303,90.308z"/>
					<path style="clip-path:url(#SVGID_00000181047797042888938720000013043109905775727276_);fill:#222221;" d="M222.649,95.656
						c0.221,1.38,4.403,3.258,5.028,3.537c2.527,1.13,6.624-0.875,3.469-2.957c-1.613-1.064-3.557-1.401-5.437-1.69
						c-0.575-0.088-1.17-0.159-1.733-0.013C222.93,94.804,222.576,95.203,222.649,95.656z"/>
					<path style="clip-path:url(#SVGID_00000181047797042888938720000013043109905775727276_);fill:#222221;" d="M223.962,104.4
						c0.291-0.625,1.094-1.236,1.588-0.756c0.15,0.145,0.215,0.355,0.27,0.556c0.538,1.948,0.703,3.999,0.483,6.008
						c-0.161,1.467-2.093,3.616-3.168,1.542C222.497,110.521,223.38,105.65,223.962,104.4z"/>
				</g>
			</g>
			<g>
				<g>
					<path style="fill:#D89CC7;stroke:#000000;stroke-width:0.5;stroke-miterlimit:10;" d="M277.976,122.968
						c-0.562-2.159-2.519-3.756-4.854-3.756c-2.773,0-5.022,2.248-5.022,5.022v20.087c0,2.773,2.248,5.022,5.022,5.022
						c2.335,0,4.292-1.596,4.854-3.755c0.562,2.159,2.519,3.755,4.854,3.755h0c2.335,0,4.292-1.596,4.854-3.756
						c0.562,2.159,2.519,3.756,4.854,3.756h0c2.335,0,4.292-1.596,4.854-3.756c0.562,2.159,2.519,3.756,4.854,3.756l0,0
						c2.335,0,4.292-1.596,4.854-3.755c0.562,2.159,2.519,3.755,4.854,3.755c2.773,0,5.022-2.248,5.022-5.022v-20.087
						c0-2.773-2.248-5.022-5.022-5.022c-2.335,0-4.292,1.596-4.854,3.756c-0.562-2.159-2.519-3.756-4.854-3.756l0,0
						c-2.335,0-4.292,1.596-4.854,3.756c-0.562-2.159-2.519-3.756-4.854-3.756h0c-2.335,0-4.292,1.596-4.854,3.756
						c-0.562-2.159-2.519-3.756-4.854-3.756h0C280.495,119.212,278.538,120.808,277.976,122.968z"/>
					<path style="fill:#D47172;stroke:#000000;stroke-width:0.5;stroke-miterlimit:10;" d="M292.539,128.728
						c-2.667,0-4.893,1.882-5.427,4.39c-0.534-2.508-2.759-4.39-5.427-4.39c-3.065,0-5.55,2.485-5.55,5.55
						c0,3.065,2.485,5.55,5.55,5.55c2.667,0,4.893-1.882,5.427-4.39c0.534,2.508,2.759,4.39,5.427,4.39s4.893-1.882,5.427-4.39
						c0.533,2.508,2.759,4.39,5.427,4.39c3.065,0,5.55-2.485,5.55-5.55c0-3.065-2.485-5.55-5.55-5.55
						c-2.667,0-4.893,1.882-5.427,4.39C297.432,130.61,295.207,128.728,292.539,128.728z"/>
				</g>
				<path style="fill:#D89CC7;stroke:#000000;stroke-width:0.5;stroke-miterlimit:10;" d="M311.933,147.765
					c1.862,0,3.371-1.509,3.371-3.37v-13.482"/>
				<path style="fill:none;stroke:#000000;stroke-width:0.5;stroke-miterlimit:10;" d="M302.199,130.157
					c1.234-0.324,2.624,0.023,3.561,0.889"/>
				<path style="fill:none;stroke:#000000;stroke-width:0.5;stroke-miterlimit:10;" d="M306.813,132.217
					c0.478,0.757,0.759,1.637,0.809,2.531"/>
				<path style="fill:none;stroke:#000000;stroke-width:0.5;stroke-miterlimit:10;" d="M291.946,130.385
					c1.453-0.416,3.152,0.356,3.794,1.724"/>
				<path style="fill:none;stroke:#000000;stroke-width:0.5;stroke-miterlimit:10;" d="M296.021,136.354
					c0.305-0.994,0.313-2.077,0.022-3.075"/>
				<path style="fill:none;stroke:#000000;stroke-width:0.5;stroke-miterlimit:10;" d="M284.351,136.528
					c0.582-1.405,0.498-3.07-0.222-4.41"/>
				<path style="fill:none;stroke:#000000;stroke-width:0.5;stroke-miterlimit:10;" d="M310.152,146.443
					c0.507,0.335,1.203,0.251,1.731-0.049c0.529-0.3,0.927-0.78,1.313-1.249"/>
				<path style="fill:none;stroke:#000000;stroke-width:0.5;stroke-miterlimit:10;" d="M315.419,127.701c0-0.538,0-1.076,0-1.615"/>
			</g>
			<g>
				
					<ellipse transform="matrix(0.7071 -0.7071 0.7071 0.7071 -63.6764 205.8498)" cx="216.645" cy="179.789" rx="10.658" ry="10.658"/>
				
					<ellipse transform="matrix(0.7071 -0.7071 0.7071 0.7071 -56.5031 223.1677)" cx="241.136" cy="179.789" rx="10.658" ry="10.658"/>
				<ellipse transform="matrix(0.2308 -0.973 0.973 0.2308 22.6735 343.6148)" cx="228.666" cy="157.467" rx="10.658" ry="10.658"/>
				<g>
					
						<ellipse transform="matrix(0.7071 -0.7071 0.7071 0.7071 -63.7939 204.1973)" style="fill:#A8DCA4;stroke:#000000;stroke-width:0.5;stroke-miterlimit:10;" cx="214.591" cy="179.105" rx="10.658" ry="10.658"/>
					<g>
						<path d="M213.969,184.983c-0.055,0.011-0.099,0.016-0.133,0.016c-0.033,0-0.066,0-0.099,0c-0.342,0-0.651-0.011-0.926-0.033
							c-0.276-0.022-0.532-0.055-0.769-0.099c-0.237-0.044-0.466-0.099-0.686-0.165c-0.221-0.066-0.447-0.138-0.678-0.215
							c0.022-0.242,0.069-0.488,0.14-0.736c0.072-0.248,0.152-0.488,0.24-0.719c0.375,0.121,0.761,0.229,1.158,0.322
							c0.397,0.094,0.876,0.141,1.439,0.141c0.904,0,1.577-0.176,2.018-0.529c0.441-0.353,0.661-0.838,0.661-1.455
							c0-0.309-0.047-0.568-0.14-0.777c-0.094-0.209-0.234-0.391-0.422-0.546c-0.188-0.154-0.424-0.295-0.711-0.422
							c-0.286-0.126-0.623-0.273-1.009-0.438l-0.794-0.331c-0.331-0.132-0.634-0.281-0.91-0.447
							c-0.276-0.165-0.516-0.361-0.719-0.587c-0.204-0.226-0.361-0.493-0.471-0.802c-0.11-0.308-0.165-0.678-0.165-1.108
							c0-0.849,0.256-1.543,0.769-2.084c0.512-0.54,1.248-0.876,2.208-1.009v-1.604c0.165-0.044,0.353-0.066,0.562-0.066
							c0.22,0,0.419,0.022,0.595,0.066v1.538c0.463,0.022,0.918,0.072,1.364,0.149c0.447,0.077,0.83,0.176,1.15,0.298
							c-0.055,0.463-0.177,0.921-0.364,1.373c-0.298-0.11-0.64-0.207-1.025-0.289c-0.386-0.083-0.832-0.124-1.34-0.124
							c-0.695,0-1.229,0.132-1.604,0.397c-0.375,0.265-0.562,0.673-0.562,1.224c0,0.264,0.049,0.494,0.149,0.686
							c0.099,0.193,0.245,0.364,0.438,0.513c0.193,0.149,0.424,0.284,0.695,0.405c0.27,0.122,0.576,0.254,0.918,0.397l0.629,0.265
							c0.397,0.165,0.755,0.336,1.075,0.513c0.32,0.176,0.593,0.386,0.819,0.629c0.226,0.243,0.402,0.529,0.529,0.86
							c0.127,0.331,0.19,0.733,0.19,1.207c0,0.937-0.267,1.701-0.802,2.29c-0.535,0.59-1.287,0.979-2.258,1.166v1.902
							c-0.088,0.022-0.182,0.039-0.281,0.05c-0.099,0.011-0.193,0.017-0.281,0.017c-0.099,0-0.199-0.006-0.298-0.017
							c-0.099-0.011-0.198-0.027-0.298-0.05V184.983z"/>
					</g>
				</g>
				<g>
					
						<ellipse transform="matrix(0.2308 -0.973 0.973 0.2308 9.6317 370.3931)" style="fill:#A8DCA4;stroke:#000000;stroke-width:0.5;stroke-miterlimit:10;" cx="239.082" cy="179.105" rx="10.658" ry="10.658"/>
					<g>
						<path d="M238.46,184.983c-0.055,0.011-0.099,0.016-0.132,0.016c-0.033,0-0.066,0-0.099,0c-0.342,0-0.651-0.011-0.926-0.033
							c-0.276-0.022-0.532-0.055-0.769-0.099c-0.237-0.044-0.466-0.099-0.686-0.165c-0.221-0.066-0.447-0.138-0.678-0.215
							c0.022-0.242,0.069-0.488,0.141-0.736c0.072-0.248,0.152-0.488,0.24-0.719c0.375,0.121,0.761,0.229,1.158,0.322
							c0.397,0.094,0.876,0.141,1.439,0.141c0.904,0,1.577-0.176,2.018-0.529c0.441-0.353,0.661-0.838,0.661-1.455
							c0-0.309-0.047-0.568-0.141-0.777c-0.094-0.209-0.234-0.391-0.422-0.546c-0.188-0.154-0.425-0.295-0.711-0.422
							c-0.287-0.126-0.623-0.273-1.009-0.438l-0.794-0.331c-0.331-0.132-0.634-0.281-0.91-0.447
							c-0.276-0.165-0.516-0.361-0.719-0.587c-0.204-0.226-0.361-0.493-0.471-0.802c-0.11-0.308-0.165-0.678-0.165-1.108
							c0-0.849,0.256-1.543,0.769-2.084c0.513-0.54,1.249-0.876,2.208-1.009v-1.604c0.165-0.044,0.353-0.066,0.562-0.066
							c0.22,0,0.419,0.022,0.595,0.066v1.538c0.463,0.022,0.918,0.072,1.364,0.149c0.447,0.077,0.83,0.176,1.15,0.298
							c-0.055,0.463-0.177,0.921-0.364,1.373c-0.298-0.11-0.64-0.207-1.025-0.289c-0.386-0.083-0.833-0.124-1.34-0.124
							c-0.695,0-1.229,0.132-1.604,0.397c-0.375,0.265-0.562,0.673-0.562,1.224c0,0.264,0.05,0.494,0.149,0.686
							c0.099,0.193,0.245,0.364,0.438,0.513c0.193,0.149,0.424,0.284,0.695,0.405c0.27,0.122,0.576,0.254,0.918,0.397l0.628,0.265
							c0.397,0.165,0.755,0.336,1.075,0.513c0.32,0.176,0.592,0.386,0.818,0.629c0.226,0.243,0.402,0.529,0.529,0.86
							c0.127,0.331,0.19,0.733,0.19,1.207c0,0.937-0.267,1.701-0.802,2.29c-0.535,0.59-1.287,0.979-2.258,1.166v1.902
							c-0.088,0.022-0.182,0.039-0.281,0.05c-0.099,0.011-0.193,0.017-0.281,0.017c-0.099,0-0.199-0.006-0.298-0.017
							c-0.099-0.011-0.199-0.027-0.298-0.05V184.983z"/>
					</g>
				</g>
				<g>
					
						<ellipse transform="matrix(0.2308 -0.973 0.973 0.2308 21.76 341.0903)" style="fill:#A8DCA4;stroke:#000000;stroke-width:0.5;stroke-miterlimit:10;" cx="226.613" cy="156.782" rx="10.658" ry="10.658"/>
					<g>
						<path d="M225.991,162.66c-0.055,0.011-0.099,0.016-0.132,0.016c-0.033,0-0.066,0-0.099,0c-0.342,0-0.651-0.011-0.926-0.033
							c-0.276-0.022-0.532-0.055-0.769-0.099c-0.237-0.044-0.466-0.099-0.686-0.165c-0.221-0.066-0.447-0.138-0.678-0.215
							c0.022-0.242,0.069-0.488,0.14-0.736c0.072-0.248,0.152-0.488,0.24-0.719c0.375,0.122,0.761,0.229,1.158,0.323
							c0.397,0.094,0.876,0.141,1.439,0.141c0.904,0,1.577-0.176,2.018-0.529c0.441-0.353,0.661-0.838,0.661-1.455
							c0-0.309-0.047-0.568-0.141-0.777c-0.094-0.209-0.234-0.391-0.422-0.546c-0.187-0.154-0.424-0.295-0.711-0.422
							c-0.287-0.127-0.623-0.273-1.009-0.438l-0.794-0.331c-0.331-0.132-0.634-0.281-0.91-0.446
							c-0.276-0.165-0.516-0.361-0.719-0.587c-0.204-0.226-0.361-0.493-0.471-0.802c-0.11-0.309-0.165-0.678-0.165-1.108
							c0-0.849,0.256-1.544,0.769-2.084c0.513-0.54,1.249-0.877,2.208-1.009v-1.604c0.165-0.044,0.353-0.066,0.562-0.066
							c0.22,0,0.419,0.022,0.595,0.066v1.538c0.463,0.022,0.918,0.072,1.364,0.149c0.447,0.077,0.83,0.177,1.149,0.298
							c-0.055,0.463-0.177,0.921-0.364,1.373c-0.298-0.11-0.64-0.207-1.026-0.289c-0.386-0.083-0.833-0.124-1.34-0.124
							c-0.695,0-1.23,0.132-1.604,0.397c-0.375,0.265-0.562,0.673-0.562,1.224c0,0.264,0.049,0.494,0.149,0.686
							c0.099,0.193,0.245,0.364,0.438,0.513c0.193,0.149,0.424,0.284,0.695,0.405c0.27,0.122,0.576,0.254,0.918,0.397l0.628,0.265
							c0.397,0.165,0.755,0.336,1.075,0.513c0.32,0.176,0.592,0.386,0.818,0.628c0.226,0.243,0.402,0.529,0.529,0.86
							c0.127,0.331,0.19,0.733,0.19,1.207c0,0.937-0.268,1.701-0.802,2.291c-0.535,0.59-1.287,0.979-2.258,1.166v1.902
							c-0.088,0.022-0.182,0.039-0.281,0.05c-0.099,0.011-0.193,0.016-0.281,0.016c-0.099,0-0.199-0.006-0.298-0.016
							c-0.099-0.011-0.198-0.028-0.298-0.05V162.66z"/>
					</g>
				</g>
			</g>
			<g>
				<g>
					
						<ellipse transform="matrix(0.7071 -0.7071 0.7071 0.7071 -15.8748 302.6124)" style="fill:#D47172;stroke:#000000;stroke-width:0.5;stroke-miterlimit:10;" cx="357.348" cy="170.469" rx="22.923" ry="22.923"/>
					
						<ellipse style="fill:none;stroke:#000000;stroke-width:0.5;stroke-miterlimit:10;" cx="357.348" cy="170.469" rx="17.4" ry="22.923"/>
					<path style="fill:none;stroke:#000000;stroke-width:0.5;stroke-miterlimit:10;" d="M357.348,147.546
						c3.54,0,6.41,10.263,6.41,22.923c0,12.66-2.87,22.923-6.41,22.923c-3.54,0-6.409-10.263-6.409-22.923
						C350.939,157.809,353.808,147.546,357.348,147.546z"/>
				</g>
				<g>
					<defs>
						
							<ellipse id="SVGID_00000021109306357615227880000002600764190165520572_" transform="matrix(0.7071 -0.7071 0.7071 0.7071 -15.8748 302.6124)" cx="357.348" cy="170.469" rx="22.923" ry="22.923"/>
					</defs>
					<clipPath id="SVGID_00000115491639715929420960000013787192546141073065_">
						<use xlink:href="#SVGID_00000021109306357615227880000002600764190165520572_"  style="overflow:visible;"/>
					</clipPath>
					
						<ellipse style="clip-path:url(#SVGID_00000115491639715929420960000013787192546141073065_);fill:none;stroke:#000000;stroke-width:0.5;stroke-miterlimit:10;" cx="357.348" cy="196.77" rx="22.923" ry="16.008"/>
					
						<ellipse style="clip-path:url(#SVGID_00000115491639715929420960000013787192546141073065_);fill:none;stroke:#000000;stroke-width:0.5;stroke-miterlimit:10;" cx="357.348" cy="144.739" rx="22.923" ry="16.008"/>
					
						<line style="clip-path:url(#SVGID_00000115491639715929420960000013787192546141073065_);fill:none;stroke:#000000;stroke-width:0.5;stroke-miterlimit:10;" x1="331.04" y1="171.781" x2="382.604" y2="171.781"/>
				</g>
				<path style="fill:none;stroke:#000000;stroke-width:0.5;stroke-miterlimit:10;" d="M378.125,174.239
					c-0.214,1.637-0.656,3.244-1.31,4.76"/>
				<path style="fill:none;stroke:#000000;stroke-width:0.5;stroke-miterlimit:10;" d="M377.762,164.26
					c0.496,1.982,0.68,4.041,0.544,6.079"/>
			</g>
			<g>
				<g>
					<path style="fill:#5F76E8;stroke:#000000;stroke-width:0.5;stroke-miterlimit:10;" d="M291.809,191.841
						c15.887,0,28.766,5.972,28.766,13.339c0,4.361-4.239,7.356-7.731,9.096c-2.672,1.331-5.549,2.242-8.457,2.9
						c-3.904,0.877-7.99,1.387-12.094,1.461c-0.351,4.283-2.067,8.459-4.9,11.695c-1.071,1.223-2.394,2.366-4.003,2.597
						c2.66-4.291,3.885-9.413,3.631-14.451c-5.195-0.4-10.308-1.548-15.001-3.616c-3.88-1.71-8.978-4.843-8.978-9.682
						C263.042,197.814,275.922,191.841,291.809,191.841z"/>
					<path style="fill:none;stroke:#000000;stroke-width:0.5;stroke-miterlimit:10;" d="M311.729,204.133
						c-0.267,2.38-2.422,4.361-4.714,4.333c-2.292-0.028-4.402-2.062-4.615-4.447c-0.08-0.896,0.181-1.952,0.971-2.307
						c0.791-0.355,1.756,0.229,2.088,1.059c0.333,0.83,0.164,1.793-0.178,2.619c-1.04,2.512-3.738,4.152-6.341,3.854
						c-2.602-0.298-4.897-2.51-5.392-5.198c-0.169-0.919-0.071-2.027,0.668-2.554c0.917-0.653,2.288,0.117,2.608,1.228
						s-0.146,2.317-0.817,3.241c-1.396,1.924-3.763,2.908-6.04,2.805c-1.022-0.046-2.36-0.295-3.21-0.91
						c-1.247-0.904-2.495-3.808-1.515-5.268c0.194-0.288,0.507-0.514,0.843-0.499c0.229,0.01,0.444,0.129,0.618,0.285
						c0.447,0.402,0.649,1.04,0.666,1.656c0.036,1.271-0.678,2.691-1.48,3.622c-1.492,1.733-4.084,2.251-6.141,1.347
						c-2.056-0.904-3.493-3.103-3.695-5.425c-0.076-0.871,0.28-2.031,1.115-1.986c0.616,0.033,0.982,0.736,1.117,1.364
						c0.391,1.814-0.163,3.821-1.42,5.137c-1.257,1.317-3.175,1.901-4.911,1.495"/>
				</g>
				<path style="fill:none;stroke:#000000;stroke-width:0.5;stroke-miterlimit:10;" d="M316.969,208.153
					c-1.231,2.825-4.266,4.413-7.226,5.267"/>
				<path style="fill:none;stroke:#000000;stroke-width:0.5;stroke-miterlimit:10;" d="M274.057,197.143
					c-2.314,0.762-4.503,1.906-6.451,3.369"/>
			</g>
			<path style="fill:#222221;" d="M209.049,56.361c0,2.067-1.675,3.742-3.742,3.742c-2.067,0-3.742-1.675-3.742-3.742
				c0-2.067,1.675-3.742,3.742-3.742C207.373,52.619,209.049,54.294,209.049,56.361z"/>
			<path style="fill:#222221;" d="M253.457,56.361c0,2.067-1.675,3.742-3.742,3.742c-2.067,0-3.742-1.675-3.742-3.742
				c0-2.067,1.675-3.742,3.742-3.742C251.782,52.619,253.457,54.294,253.457,56.361z"/>
			<g>
				<g>
					<path style="fill:#222221;" d="M96.271,111.98c-0.056-1.792,1.352-3.29,3.143-3.345c1.792-0.056,3.29,1.352,3.345,3.143
						c0.004,0.113-0.015,0.22-0.023,0.33c1.26-0.252,2.475-0.622,3.634-1.101c-0.074-0.094-0.155-0.181-0.219-0.286
						c-0.944-1.524-0.474-3.525,1.049-4.469c1.524-0.944,3.525-0.474,4.469,1.049c0.063,0.102,0.104,0.211,0.155,0.317
						c0.958-0.84,1.833-1.772,2.611-2.78c-0.12-0.047-0.241-0.085-0.357-0.148c-1.58-0.848-2.173-2.815-1.325-4.395
						c0.848-1.58,2.815-2.173,4.395-1.325c0.118,0.063,0.219,0.145,0.326,0.22c0.411-1.2,0.708-2.452,0.88-3.741
						c-0.14,0.023-0.279,0.052-0.425,0.056c-1.792,0.056-3.289-1.352-3.345-3.143c-0.056-1.792,1.352-3.29,3.143-3.345
						c0.149-0.005,0.293,0.015,0.438,0.03c-0.251-1.289-0.626-2.531-1.113-3.714c-0.121,0.103-0.242,0.206-0.381,0.292
						c-1.524,0.944-3.525,0.474-4.469-1.05c-0.944-1.524-0.474-3.524,1.049-4.469c0.14-0.087,0.287-0.149,0.433-0.211
						c-0.858-0.983-1.812-1.879-2.847-2.674c-0.056,0.161-0.114,0.322-0.197,0.477c-0.848,1.58-2.815,2.173-4.395,1.326
						c-1.58-0.848-2.173-2.815-1.325-4.395c0.083-0.154,0.184-0.291,0.287-0.425c-1.226-0.418-2.504-0.718-3.823-0.887
						c0.035,0.174,0.065,0.349,0.071,0.532c0.056,1.792-1.352,3.289-3.143,3.345c-1.792,0.056-3.289-1.352-3.345-3.143
						c-0.006-0.175,0.014-0.344,0.036-0.512c-1.303,0.259-2.557,0.646-3.751,1.147c0.115,0.132,0.229,0.268,0.324,0.422
						c0.944,1.524,0.474,3.525-1.05,4.469C89,80.52,87,80.05,86.055,78.526c-0.089-0.143-0.153-0.294-0.217-0.445
						c-0.977,0.864-1.866,1.825-2.654,2.864c0.156,0.055,0.312,0.111,0.463,0.191c1.58,0.847,2.173,2.815,1.325,4.395
						c-0.848,1.58-2.815,2.173-4.395,1.326c-0.138-0.074-0.259-0.167-0.382-0.258c-0.405,1.214-0.694,2.48-0.856,3.784
						c0.151-0.026,0.3-0.056,0.458-0.061c1.792-0.056,3.289,1.352,3.345,3.143c0.056,1.792-1.352,3.289-3.143,3.345
						c-0.138,0.004-0.271-0.015-0.405-0.028c0.26,1.274,0.642,2.502,1.134,3.671c0.106-0.086,0.208-0.177,0.327-0.251
						c1.524-0.944,3.525-0.474,4.469,1.049c0.944,1.524,0.474,3.525-1.05,4.469c-0.105,0.065-0.217,0.107-0.326,0.159
						c0.846,0.952,1.782,1.82,2.795,2.592c0.046-0.115,0.082-0.231,0.142-0.343c0.848-1.579,2.815-2.173,4.395-1.325
						c1.58,0.848,2.173,2.815,1.325,4.395c-0.055,0.103-0.127,0.189-0.191,0.283c1.189,0.398,2.427,0.684,3.703,0.848
						C96.301,112.214,96.274,112.101,96.271,111.98z M85.627,93.235c-0.227-7.302,5.508-13.405,12.81-13.632
						c7.302-0.227,13.405,5.508,13.632,12.81c0.227,7.302-5.508,13.405-12.81,13.633C91.958,106.272,85.854,100.537,85.627,93.235z"
						/>
				</g>
				<path style="fill:#222221;" d="M108.743,90.134c-1.484-5.45-7.124-8.676-12.574-7.193c-5.45,1.484-8.676,7.124-7.192,12.574
					c1.484,5.449,7.124,8.676,12.574,7.192C107.001,101.224,110.227,95.584,108.743,90.134z M100.54,98.992
					c-3.401,0.926-6.92-1.087-7.846-4.488c-0.926-3.401,1.088-6.921,4.488-7.847c3.401-0.926,6.92,1.088,7.846,4.489
					C105.954,94.546,103.94,98.066,100.54,98.992z"/>
			</g>
			<polygon points="157.119,192.062 157.119,215.151 175.955,203.683 			"/>
		</g>
		<g>
			<g>
				<g>
					
						<ellipse style="fill:#D47172;stroke:#000000;stroke-width:0.5;stroke-miterlimit:10;" cx="85.639" cy="305.765" rx="7.688" ry="7.207"/>
					
						<ellipse style="fill:#D47172;stroke:#000000;stroke-width:0.5;stroke-miterlimit:10;" cx="85.639" cy="291.831" rx="7.688" ry="7.207"/>
					
						<ellipse style="fill:#D47172;stroke:#000000;stroke-width:0.5;stroke-miterlimit:10;" cx="85.639" cy="277.897" rx="7.688" ry="7.207"/>
					
						<ellipse style="fill:#D47172;stroke:#000000;stroke-width:0.5;stroke-miterlimit:10;" cx="85.639" cy="263.963" rx="7.688" ry="7.207"/>
					
						<ellipse style="fill:#D47172;stroke:#000000;stroke-width:0.5;stroke-miterlimit:10;" cx="85.639" cy="250.03" rx="7.688" ry="7.207"/>
					
						<ellipse style="fill:#D47172;stroke:#000000;stroke-width:0.5;stroke-miterlimit:10;" cx="85.639" cy="236.096" rx="7.688" ry="7.207"/>
				</g>
				<g>
					
						<ellipse style="fill:#D47172;stroke:#000000;stroke-width:0.5;stroke-miterlimit:10;" cx="170.042" cy="305.765" rx="7.688" ry="7.207"/>
					
						<ellipse style="fill:#D47172;stroke:#000000;stroke-width:0.5;stroke-miterlimit:10;" cx="170.042" cy="291.831" rx="7.688" ry="7.207"/>
					
						<ellipse style="fill:#D47172;stroke:#000000;stroke-width:0.5;stroke-miterlimit:10;" cx="170.042" cy="277.897" rx="7.688" ry="7.207"/>
					
						<ellipse style="fill:#D47172;stroke:#000000;stroke-width:0.5;stroke-miterlimit:10;" cx="170.042" cy="263.963" rx="7.688" ry="7.207"/>
					
						<ellipse style="fill:#D47172;stroke:#000000;stroke-width:0.5;stroke-miterlimit:10;" cx="170.042" cy="250.03" rx="7.688" ry="7.207"/>
					
						<ellipse style="fill:#D47172;stroke:#000000;stroke-width:0.5;stroke-miterlimit:10;" cx="170.042" cy="236.096" rx="7.688" ry="7.207"/>
				</g>
				<g>
					
						<ellipse style="fill:#D47172;stroke:#000000;stroke-width:0.5;stroke-miterlimit:10;" cx="93.006" cy="228.729" rx="7.207" ry="7.688"/>
					
						<ellipse style="fill:#D47172;stroke:#000000;stroke-width:0.5;stroke-miterlimit:10;" cx="106.94" cy="228.729" rx="7.207" ry="7.688"/>
					
						<ellipse style="fill:#D47172;stroke:#000000;stroke-width:0.5;stroke-miterlimit:10;" cx="120.874" cy="228.729" rx="7.207" ry="7.688"/>
					
						<ellipse style="fill:#D47172;stroke:#000000;stroke-width:0.5;stroke-miterlimit:10;" cx="134.807" cy="228.729" rx="7.207" ry="7.688"/>
					
						<ellipse style="fill:#D47172;stroke:#000000;stroke-width:0.5;stroke-miterlimit:10;" cx="148.741" cy="228.729" rx="7.207" ry="7.688"/>
					
						<ellipse style="fill:#D47172;stroke:#000000;stroke-width:0.5;stroke-miterlimit:10;" cx="162.675" cy="228.729" rx="7.207" ry="7.688"/>
				</g>
				<g>
					
						<ellipse style="fill:#D47172;stroke:#000000;stroke-width:0.5;stroke-miterlimit:10;" cx="93.006" cy="313.132" rx="7.207" ry="7.688"/>
					
						<ellipse style="fill:#D47172;stroke:#000000;stroke-width:0.5;stroke-miterlimit:10;" cx="106.94" cy="313.132" rx="7.207" ry="7.688"/>
					
						<ellipse style="fill:#D47172;stroke:#000000;stroke-width:0.5;stroke-miterlimit:10;" cx="120.874" cy="313.132" rx="7.207" ry="7.688"/>
					
						<ellipse style="fill:#D47172;stroke:#000000;stroke-width:0.5;stroke-miterlimit:10;" cx="134.807" cy="313.132" rx="7.207" ry="7.688"/>
					
						<ellipse style="fill:#D47172;stroke:#000000;stroke-width:0.5;stroke-miterlimit:10;" cx="148.741" cy="313.132" rx="7.207" ry="7.688"/>
					
						<ellipse style="fill:#D47172;stroke:#000000;stroke-width:0.5;stroke-miterlimit:10;" cx="162.675" cy="313.132" rx="7.207" ry="7.688"/>
				</g>
				
					<rect x="85.639" y="228.729" style="fill:#FFFFFF;stroke:#222221;stroke-width:0.5;stroke-miterlimit:10;" width="84.403" height="84.403"/>
			</g>
			<g>
				<path d="M112.899,259.13c0.436,2.187,0.743,4.388,0.374,6.489c-0.431,2.455-1.915,4.59-3.521,6.497
					c-1.606,1.906-3.388,3.697-4.613,5.868c-0.838,1.486-1.429,3.811,0.021,5.16c1.105,1.029,3.391,0.998,4.76,0.899
					c4.932-0.358,10.072-1.034,14.712-2.806c4.606-1.759,8.883-4.916,10.938-9.398c2.32-5.06,1.522-10.934,0.678-16.436
					c-0.566-3.688-1.171-7.484-3.105-10.675c-1.49-2.458-3.737-4.498-4.636-7.227c-2.613-7.928-12.74-0.012-14.969,4.447
					c-1.793,3.587-2.178,7.717-1.698,11.658C112.058,255.391,112.526,257.256,112.899,259.13z"/>
				<path style="fill:#5F76E8;stroke:#000000;stroke-width:0.5;stroke-miterlimit:10;" d="M97.695,312.949h58.721
					c0.798-0.555,1.435-1.391,1.83-2.663c1.115-3.59-0.11-7.504-0.969-11.011c-1.318-5.38-3.084-10.65-5.276-15.738
					c-1.078-2.502-2.286-5.001-4.127-7.008c-3.979-4.338-10.262-4.55-15.79-4.631c-7.556-0.11-15.621-0.171-22.086,4.349
					c-3.488,2.439-6.299,5.734-8.715,9.238c-4.152,6.023-7.303,13.009-7.384,20.324C93.856,309.657,94.782,311.902,97.695,312.949z"
					/>
				<path style="fill:#FFFFFF;stroke:#222221;stroke-width:0.5;stroke-miterlimit:10;" d="M122.125,266.78
					c-3.864,2.52-7.483,5.407-10.831,8.579c2.382,0.744,4.647,2.758,6.675,3.776c2.327,1.168,5.316,1.392,7.878,1.395
					c1.889,0.003,3.772-0.162,5.65-0.358c3.786-2.589,7.841-4.786,12.086-6.525c-0.554,0.227-5.258-6.991-5.763-7.743
					c-1.825-2.715-3.519-5.519-5.072-8.398c-1.579-2.926-2.718-6.095-4.295-9.003c-1.252-2.309-4.401-1.51-6.016,0.248
					c-1.251,1.362-1.796,3.236-1.996,5.074c-0.244,2.244,0.114,4.478,0.591,6.667C121.49,262.593,121.688,264.716,122.125,266.78z"
					/>
				<path style="fill:#FFFFFF;stroke:#222221;stroke-width:0.5;stroke-miterlimit:10;" d="M115.546,249.823
					c-0.058,2.091,0.072,4.221,0.775,6.191c0.703,1.97,2.033,3.781,3.903,4.719c3.142,1.577,7.171,0.294,9.561-2.285
					c2.39-2.578,3.401-6.157,3.776-9.653c0.199-1.853,0.239-3.745-0.181-5.56c-0.725-3.135-2.943-5.956-5.94-7.13
					c-2.872-1.125-7.2-0.551-9.337,1.892C115.821,240.605,115.637,246.541,115.546,249.823z"/>
				<path d="M122.027,236.801c-0.169,0.338-0.327,0.713-0.247,1.082c0.253,1.167,3.116,1.467,4.033,2.066
					c1.504,0.982,2.659,2.477,3.405,4.098c1.147,2.49,1.457,5.27,1.752,7.996c0.53,4.887,1.059,9.774,1.589,14.662
					c0.753,6.951,4.432,13.261,11.838,14.585c1.933,0.345,4.278,0.097,5.308-1.574c0.525-0.852,0.59-1.932,0.347-2.903
					c-0.51-2.045-2.119-4.065-3.9-5.143c-1.431-0.866-3.106-1.463-4.124-2.79c-0.493-0.644-0.79-1.413-1.081-2.17
					c-1.469-3.827-1.577-7.079-1.589-11.118c-0.009-3.144-0.271-6.286-0.781-9.388c-0.636-3.869-1.915-8.04-5.229-10.135
					c-1.83-1.157-4.037-1.511-6.176-1.841C124.416,233.801,123.266,234.324,122.027,236.801z"/>
				<path d="M117.354,240.05c-0.214,0.102-0.435,0.205-0.672,0.211c-0.236,0.006-0.493-0.113-0.572-0.336
					c-0.081-0.229,0.043-0.476,0.174-0.679c1.229-1.905,3.821-3.716,6.077-4.055c-0.74,1.123-0.885,2.467-1.949,3.287
					C119.504,239.176,118.378,239.563,117.354,240.05z"/>
				<path style="fill:#FFFFFF;stroke:#222221;stroke-width:0.5;stroke-miterlimit:10;" d="M119.556,255.014
					c0.767,0.675,1.925,0.868,2.869,0.478"/>
				<path style="fill:#FFFFFF;stroke:#222221;stroke-width:0.5;stroke-miterlimit:10;" d="M121.571,248.626
					c-0.286,0.999-0.573,1.998-0.86,2.997"/>
				<g>
					<path style="fill:#FFFFFF;stroke:#222221;stroke-width:0.5;stroke-miterlimit:10;" d="M114.252,308.514
						c-0.672,0.283-1.318,0.624-1.928,1.03c-1.131,0.752-2.1,1.834-2.436,3.15c-0.609,2.383,0.762,6.316,3.692,6.421
						c0.52,0.019,1.011-0.256,1.396-0.607c0.384-0.351,0.689-0.779,1.043-1.161c0.965-1.039,2.566-2.043,3.997-2.064
						c1.228-0.018,2.59,0.046,3.764-0.38c3.403-1.233,6.439-0.565,10.07-0.523c3.889,0.045,7.78-0.06,11.661-0.316
						c3.952-0.26,11.341,0.824,11.782-4.411c0.249-2.956-0.87-6.109-3.928-7.118c-1.468-0.484-3.061-0.417-4.592-0.202
						c-8.708,1.228-16.457,5.244-25.37,4.672c-1.494-0.096-2.623,0.285-4.077,0.434
						C117.598,307.616,115.867,307.835,114.252,308.514z"/>
					<path style="fill:#FFFFFF;stroke:#222221;stroke-width:0.5;stroke-miterlimit:10;" d="M111.261,308.448
						c0.087-0.011,0.173-0.022,0.26-0.034c0.872-0.118,3.587-0.901,4.172,0.064c0.705,1.148,1.598,2.181,2.632,3.044
						c2.118,1.768,4.743,2.745,7.352,3.544c0.946,0.29,1.899,0.581,2.884,0.684c1.901,0.199,3.676-0.494,4.401-2.377
						c0.784-2.038-0.833-3.947-2.39-5.099c-1.274-0.943-2.739-1.588-4.139-2.332c-0.628-0.334-1.325-1.373-0.07-1.152
						c0.877,0.155,1.603,0.745,2.386,1.169c0.783,0.424,1.802,0.672,2.528,0.155c0.167-0.119,0.315-0.289,0.333-0.493
						c0.035-0.4-0.409-0.653-0.783-0.801c-1.66-0.653-3.321-1.306-4.981-1.959c-6.309-2.481-13.267-3.789-19.809-5.57
						c-2.155-0.587-4.491-1.166-6.568-0.347c-2.332,0.919-3.716,3.435-4.034,5.922c-0.108,0.849-0.112,1.729,0.157,2.542
						c0.532,1.608,2.072,2.717,3.7,3.185c1.628,0.468,3.355,0.397,5.047,0.323C106.657,308.815,108.978,308.74,111.261,308.448z"/>
					<path style="fill:none;stroke:#222221;stroke-width:0.5;stroke-miterlimit:10;" d="M113.746,319.039
						c0.061-1.578,0.847-3.113,2.092-4.084c0.782-0.609,1.711-0.992,2.628-1.368"/>
					<path style="fill:none;stroke:#222221;stroke-width:0.5;stroke-miterlimit:10;" d="M112.152,318.62
						c-0.809-2.749,1.089-5.649,3.505-6.854"/>
					<path style="fill:none;stroke:#222221;stroke-width:0.5;stroke-miterlimit:10;" d="M110.622,317.114
						c-0.428-2.677,0.836-5.194,2.844-6.197"/>
					<path style="fill:none;stroke:#222221;stroke-width:0.5;stroke-miterlimit:10;" d="M133.149,312.291
						c-2.384-1.696-4.933-3.16-7.599-4.366"/>
					<path style="fill:none;stroke:#222221;stroke-width:0.5;stroke-miterlimit:10;" d="M132.72,313.725
						c-2.994-1.037-5.866-2.427-8.536-4.133"/>
					<path style="fill:none;stroke:#222221;stroke-width:0.5;stroke-miterlimit:10;" d="M131.759,314.98
						c-2.706-0.445-5.32-1.445-7.631-2.921"/>
				</g>
				<path style="fill:none;stroke:#222221;stroke-width:0.5;stroke-miterlimit:10;" d="M143.187,303.407
					c-1.164-4.926-2.328-9.853-3.492-14.779"/>
				<path style="fill:none;stroke:#222221;stroke-width:0.5;stroke-miterlimit:10;" d="M109.587,298.304
					c1.273-2.627,2.547-5.255,3.821-7.882"/>
			</g>
		</g>
		<polygon style="fill:#222221;" points="405.073,84.57 381.538,84.57 369.77,104.952 381.538,125.335 405.073,125.335 
			416.841,104.952 		"/>
		<g>
			<g>
				<text transform="matrix(1 0 0 1 276.2855 66.0566)" style="fill:#222221; font-family:'Antonio-Bold'; font-size:28.8078px;">NTF</text>
			</g>
			<polygon style="fill:none;stroke:#222221;stroke-width:0.5;stroke-miterlimit:10;" points="309.882,26.173 276.81,26.173 
				260.274,54.814 276.81,83.455 309.882,83.455 326.418,54.814 			"/>
		</g>
		<polygon style="fill:#A8DCA4;stroke:#000000;stroke-width:0.5;stroke-miterlimit:10;" points="406.164,36.705 382.628,36.705 
			370.86,57.087 382.628,77.47 406.164,77.47 417.931,57.087 		"/>
		<polygon style="fill:#222221;" points="362.599,58.671 339.063,58.671 327.296,79.053 339.063,99.435 362.599,99.435 
			374.366,79.053 		"/>
		<g>
			<defs>
				<polygon id="SVGID_00000170268577120110751860000002169612606608581256_" points="248.898,206.041 205.771,206.041 
					184.207,243.39 205.771,280.74 248.898,280.74 270.462,243.39 				"/>
			</defs>
			<clipPath id="SVGID_00000182530548591045444070000017117909760001844360_">
				<use xlink:href="#SVGID_00000170268577120110751860000002169612606608581256_"  style="overflow:visible;"/>
			</clipPath>
			<g style="clip-path:url(#SVGID_00000182530548591045444070000017117909760001844360_);">
				<g>
					
						<line style="fill:none;stroke:#000000;stroke-width:2;stroke-miterlimit:10;" x1="265.647" y1="218.882" x2="244.008" y2="218.882"/>
					
						<line style="fill:none;stroke:#000000;stroke-width:2;stroke-miterlimit:10;" x1="240.374" y1="218.882" x2="231.662" y2="218.882"/>
					
						<line style="fill:none;stroke:#000000;stroke-width:2;stroke-miterlimit:10;" x1="229.366" y1="218.882" x2="223.751" y2="218.882"/>
					
						<line style="fill:none;stroke:#000000;stroke-width:2;stroke-miterlimit:10;" x1="222.043" y1="218.882" x2="219.799" y2="218.882"/>
					
						<line style="fill:none;stroke:#000000;stroke-width:2;stroke-miterlimit:10;" x1="216.681" y1="218.882" x2="193.459" y2="218.882"/>
				</g>
				<g>
					
						<line style="fill:none;stroke:#000000;stroke-width:2;stroke-miterlimit:10;" x1="270.462" y1="226.391" x2="251.49" y2="226.391"/>
					
						<line style="fill:none;stroke:#000000;stroke-width:2;stroke-miterlimit:10;" x1="246.982" y1="226.391" x2="222.327" y2="226.391"/>
					
						<line style="fill:none;stroke:#000000;stroke-width:2;stroke-miterlimit:10;" x1="218.283" y1="226.391" x2="215.498" y2="226.391"/>
					
						<line style="fill:none;stroke:#000000;stroke-width:2;stroke-miterlimit:10;" x1="210.393" y1="226.391" x2="197.979" y2="226.391"/>
					
						<line style="fill:none;stroke:#000000;stroke-width:2;stroke-miterlimit:10;" x1="194.111" y1="226.391" x2="186.878" y2="226.391"/>
				</g>
				<g>
					
						<line style="fill:none;stroke:#000000;stroke-width:2;stroke-miterlimit:10;" x1="265.647" y1="247.469" x2="244.008" y2="247.469"/>
					
						<line style="fill:none;stroke:#000000;stroke-width:2;stroke-miterlimit:10;" x1="240.374" y1="247.469" x2="231.662" y2="247.469"/>
					
						<line style="fill:none;stroke:#000000;stroke-width:2;stroke-miterlimit:10;" x1="229.366" y1="247.469" x2="223.751" y2="247.469"/>
					
						<line style="fill:none;stroke:#000000;stroke-width:2;stroke-miterlimit:10;" x1="222.043" y1="247.469" x2="219.799" y2="247.469"/>
					
						<line style="fill:none;stroke:#000000;stroke-width:2;stroke-miterlimit:10;" x1="216.681" y1="247.469" x2="193.459" y2="247.469"/>
				</g>
				<g>
					
						<line style="fill:none;stroke:#000000;stroke-width:2;stroke-miterlimit:10;" x1="265.647" y1="254.977" x2="251.49" y2="254.977"/>
					
						<line style="fill:none;stroke:#000000;stroke-width:2;stroke-miterlimit:10;" x1="246.982" y1="254.977" x2="226.66" y2="254.977"/>
					
						<line style="fill:none;stroke:#000000;stroke-width:2;stroke-miterlimit:10;" x1="221.172" y1="254.977" x2="218.869" y2="254.977"/>
					
						<line style="fill:none;stroke:#000000;stroke-width:2;stroke-miterlimit:10;" x1="215.208" y1="254.977" x2="197.979" y2="254.977"/>
					
						<line style="fill:none;stroke:#000000;stroke-width:2;stroke-miterlimit:10;" x1="195.555" y1="254.977" x2="190.664" y2="254.747"/>
				</g>
				<g>
					<g>
						
							<line style="fill:none;stroke:#000000;stroke-width:2;stroke-miterlimit:10;" x1="265.647" y1="263.293" x2="258.452" y2="263.293"/>
						
							<line style="fill:none;stroke:#000000;stroke-width:2;stroke-miterlimit:10;" x1="254.819" y1="263.293" x2="231.662" y2="263.293"/>
						
							<line style="fill:none;stroke:#000000;stroke-width:2;stroke-miterlimit:10;" x1="227.44" y1="263.293" x2="220.862" y2="263.293"/>
						
							<line style="fill:none;stroke:#000000;stroke-width:2;stroke-miterlimit:10;" x1="217.163" y1="263.293" x2="193.459" y2="263.293"/>
					</g>
					<g>
						
							<line style="fill:none;stroke:#000000;stroke-width:2;stroke-miterlimit:10;" x1="265.647" y1="270.802" x2="251.49" y2="270.802"/>
						
							<line style="fill:none;stroke:#000000;stroke-width:2;stroke-miterlimit:10;" x1="246.982" y1="270.802" x2="226.66" y2="270.802"/>
						
							<line style="fill:none;stroke:#000000;stroke-width:2;stroke-miterlimit:10;" x1="221.172" y1="270.802" x2="218.869" y2="270.802"/>
						
							<line style="fill:none;stroke:#000000;stroke-width:2;stroke-miterlimit:10;" x1="215.208" y1="270.802" x2="197.979" y2="270.802"/>
						
							<line style="fill:none;stroke:#000000;stroke-width:2;stroke-miterlimit:10;" x1="195.555" y1="270.802" x2="190.664" y2="270.572"/>
					</g>
					<polyline style="fill:none;stroke:#000000;stroke-width:2;stroke-miterlimit:10;" points="267.779,261.263 270.249,263.764 
						267.684,266.36 					"/>
				</g>
				<polyline style="fill:none;stroke:#000000;stroke-width:2;stroke-miterlimit:10;" points="270.154,216.959 267.684,219.459 
					270.249,222.056 				"/>
				<polyline style="fill:none;stroke:#000000;stroke-width:2;stroke-miterlimit:10;" points="187.808,216.446 190.278,218.946 
					187.713,221.542 				"/>
			</g>
		</g>
		<g>
			<defs>
				<polygon id="SVGID_00000172427307409052253320000002434319797458082994_" points="405.073,84.57 381.538,84.57 369.77,104.952 
					381.538,125.335 405.073,125.335 416.841,104.952 				"/>
			</defs>
			<clipPath id="SVGID_00000103976283480611284780000006929867394470494141_">
				<use xlink:href="#SVGID_00000172427307409052253320000002434319797458082994_"  style="overflow:visible;"/>
			</clipPath>
			<g style="clip-path:url(#SVGID_00000103976283480611284780000006929867394470494141_);">
				<g>
					<line style="fill:none;stroke:#A8DCA4;stroke-miterlimit:10;" x1="431.097" y1="91.894" x2="417.443" y2="91.894"/>
					<line style="fill:none;stroke:#A8DCA4;stroke-miterlimit:10;" x1="415.151" y1="91.894" x2="409.654" y2="91.894"/>
					<line style="fill:none;stroke:#A8DCA4;stroke-miterlimit:10;" x1="408.205" y1="91.894" x2="404.662" y2="91.894"/>
					<line style="fill:none;stroke:#A8DCA4;stroke-miterlimit:10;" x1="403.585" y1="91.894" x2="402.168" y2="91.894"/>
					<line style="fill:none;stroke:#A8DCA4;stroke-miterlimit:10;" x1="400.201" y1="91.894" x2="385.549" y2="91.894"/>
				</g>
				<g>
					<line style="fill:none;stroke:#A8DCA4;stroke-miterlimit:10;" x1="434.135" y1="96.048" x2="422.164" y2="96.048"/>
					<line style="fill:none;stroke:#A8DCA4;stroke-miterlimit:10;" x1="419.32" y1="96.048" x2="403.763" y2="96.048"/>
					<line style="fill:none;stroke:#A8DCA4;stroke-miterlimit:10;" x1="401.212" y1="96.048" x2="399.455" y2="96.048"/>
					<line style="fill:none;stroke:#A8DCA4;stroke-miterlimit:10;" x1="396.233" y1="96.048" x2="388.4" y2="96.048"/>
					<line style="fill:none;stroke:#A8DCA4;stroke-miterlimit:10;" x1="385.96" y1="96.048" x2="381.396" y2="96.048"/>
				</g>
				<g>
					<line style="fill:none;stroke:#A8DCA4;stroke-miterlimit:10;" x1="431.097" y1="107.709" x2="417.443" y2="107.709"/>
					<line style="fill:none;stroke:#A8DCA4;stroke-miterlimit:10;" x1="415.151" y1="107.709" x2="409.654" y2="107.709"/>
					<line style="fill:none;stroke:#A8DCA4;stroke-miterlimit:10;" x1="408.205" y1="107.709" x2="404.662" y2="107.709"/>
					<line style="fill:none;stroke:#A8DCA4;stroke-miterlimit:10;" x1="403.585" y1="107.709" x2="402.168" y2="107.709"/>
					<line style="fill:none;stroke:#A8DCA4;stroke-miterlimit:10;" x1="400.201" y1="107.709" x2="385.549" y2="107.709"/>
				</g>
				<g>
					<line style="fill:none;stroke:#A8DCA4;stroke-miterlimit:10;" x1="431.097" y1="111.864" x2="422.164" y2="111.864"/>
					<line style="fill:none;stroke:#A8DCA4;stroke-miterlimit:10;" x1="419.32" y1="111.864" x2="406.497" y2="111.864"/>
					<line style="fill:none;stroke:#A8DCA4;stroke-miterlimit:10;" x1="403.035" y1="111.864" x2="401.581" y2="111.864"/>
					<line style="fill:none;stroke:#A8DCA4;stroke-miterlimit:10;" x1="399.271" y1="111.864" x2="388.4" y2="111.864"/>
					<line style="fill:none;stroke:#A8DCA4;stroke-miterlimit:10;" x1="386.872" y1="111.864" x2="383.785" y2="111.736"/>
				</g>
				<g>
					<g>
						<line style="fill:none;stroke:#A8DCA4;stroke-miterlimit:10;" x1="431.097" y1="116.464" x2="426.557" y2="116.464"/>
						<line style="fill:none;stroke:#A8DCA4;stroke-miterlimit:10;" x1="424.265" y1="116.464" x2="409.654" y2="116.464"/>
						<line style="fill:none;stroke:#A8DCA4;stroke-miterlimit:10;" x1="406.99" y1="116.464" x2="402.839" y2="116.464"/>
						<line style="fill:none;stroke:#A8DCA4;stroke-miterlimit:10;" x1="400.505" y1="116.464" x2="385.549" y2="116.464"/>
					</g>
					<g>
						<line style="fill:none;stroke:#A8DCA4;stroke-miterlimit:10;" x1="431.097" y1="120.618" x2="422.164" y2="120.618"/>
						<line style="fill:none;stroke:#A8DCA4;stroke-miterlimit:10;" x1="419.32" y1="120.618" x2="406.497" y2="120.618"/>
						<line style="fill:none;stroke:#A8DCA4;stroke-miterlimit:10;" x1="403.035" y1="120.618" x2="401.581" y2="120.618"/>
						<line style="fill:none;stroke:#A8DCA4;stroke-miterlimit:10;" x1="399.271" y1="120.618" x2="388.4" y2="120.618"/>
						<line style="fill:none;stroke:#A8DCA4;stroke-miterlimit:10;" x1="386.872" y1="120.618" x2="383.785" y2="120.491"/>
					</g>
					<polyline style="fill:none;stroke:#A8DCA4;stroke-miterlimit:10;" points="432.442,115.341 434,116.725 432.382,118.161 					
						"/>
				</g>
				<polyline style="fill:none;stroke:#A8DCA4;stroke-miterlimit:10;" points="433.94,90.83 432.382,92.213 434,93.65 				"/>
				<polyline style="fill:none;stroke:#A8DCA4;stroke-miterlimit:10;" points="381.983,90.546 383.542,91.929 381.923,93.366 				
					"/>
			</g>
		</g>
		<g>
			<defs>
				<polygon id="SVGID_00000080898008570033908330000012602830516713461122_" points="362.111,58.63 338.576,58.63 326.808,79.013 
					338.576,99.395 362.111,99.395 373.879,79.013 				"/>
			</defs>
			<clipPath id="SVGID_00000178918986579039686410000010275133547614060435_">
				<use xlink:href="#SVGID_00000080898008570033908330000012602830516713461122_"  style="overflow:visible;"/>
			</clipPath>
			<g style="clip-path:url(#SVGID_00000178918986579039686410000010275133547614060435_);">
				<g>
					<line style="fill:none;stroke:#A8DCA4;stroke-miterlimit:10;" x1="359.467" y1="65.176" x2="345.814" y2="65.176"/>
					<line style="fill:none;stroke:#A8DCA4;stroke-miterlimit:10;" x1="343.521" y1="65.176" x2="338.025" y2="65.176"/>
					<line style="fill:none;stroke:#A8DCA4;stroke-miterlimit:10;" x1="336.576" y1="65.176" x2="333.033" y2="65.176"/>
					<line style="fill:none;stroke:#A8DCA4;stroke-miterlimit:10;" x1="331.955" y1="65.176" x2="330.539" y2="65.176"/>
					<line style="fill:none;stroke:#A8DCA4;stroke-miterlimit:10;" x1="328.572" y1="65.176" x2="313.919" y2="65.176"/>
				</g>
				<g>
					<line style="fill:none;stroke:#A8DCA4;stroke-miterlimit:10;" x1="362.505" y1="69.33" x2="350.535" y2="69.33"/>
					<line style="fill:none;stroke:#A8DCA4;stroke-miterlimit:10;" x1="347.69" y1="69.33" x2="332.134" y2="69.33"/>
					<line style="fill:none;stroke:#A8DCA4;stroke-miterlimit:10;" x1="329.582" y1="69.33" x2="327.825" y2="69.33"/>
					<line style="fill:none;stroke:#A8DCA4;stroke-miterlimit:10;" x1="324.604" y1="69.33" x2="316.771" y2="69.33"/>
					<line style="fill:none;stroke:#A8DCA4;stroke-miterlimit:10;" x1="314.331" y1="69.33" x2="309.767" y2="69.33"/>
				</g>
				<g>
					<line style="fill:none;stroke:#A8DCA4;stroke-miterlimit:10;" x1="359.467" y1="80.991" x2="345.814" y2="80.991"/>
					<line style="fill:none;stroke:#A8DCA4;stroke-miterlimit:10;" x1="343.521" y1="80.991" x2="338.025" y2="80.991"/>
					<line style="fill:none;stroke:#A8DCA4;stroke-miterlimit:10;" x1="336.576" y1="80.991" x2="333.033" y2="80.991"/>
					<line style="fill:none;stroke:#A8DCA4;stroke-miterlimit:10;" x1="331.955" y1="80.991" x2="330.539" y2="80.991"/>
					<line style="fill:none;stroke:#A8DCA4;stroke-miterlimit:10;" x1="328.572" y1="80.991" x2="313.919" y2="80.991"/>
				</g>
				<g>
					<line style="fill:none;stroke:#A8DCA4;stroke-miterlimit:10;" x1="359.467" y1="85.146" x2="350.535" y2="85.146"/>
					<line style="fill:none;stroke:#A8DCA4;stroke-miterlimit:10;" x1="347.69" y1="85.146" x2="334.868" y2="85.146"/>
					<line style="fill:none;stroke:#A8DCA4;stroke-miterlimit:10;" x1="331.405" y1="85.146" x2="329.952" y2="85.146"/>
					<line style="fill:none;stroke:#A8DCA4;stroke-miterlimit:10;" x1="327.642" y1="85.146" x2="316.771" y2="85.146"/>
					<line style="fill:none;stroke:#A8DCA4;stroke-miterlimit:10;" x1="315.242" y1="85.146" x2="312.156" y2="85.018"/>
				</g>
				<g>
					<g>
						<line style="fill:none;stroke:#A8DCA4;stroke-miterlimit:10;" x1="359.467" y1="89.746" x2="354.928" y2="89.746"/>
						<line style="fill:none;stroke:#A8DCA4;stroke-miterlimit:10;" x1="352.635" y1="89.746" x2="338.025" y2="89.746"/>
						<line style="fill:none;stroke:#A8DCA4;stroke-miterlimit:10;" x1="335.36" y1="89.746" x2="331.21" y2="89.746"/>
						<line style="fill:none;stroke:#A8DCA4;stroke-miterlimit:10;" x1="328.876" y1="89.746" x2="313.919" y2="89.746"/>
					</g>
					<g>
						<line style="fill:none;stroke:#A8DCA4;stroke-miterlimit:10;" x1="359.467" y1="93.9" x2="350.535" y2="93.9"/>
						<line style="fill:none;stroke:#A8DCA4;stroke-miterlimit:10;" x1="347.69" y1="93.9" x2="334.868" y2="93.9"/>
						<line style="fill:none;stroke:#A8DCA4;stroke-miterlimit:10;" x1="331.405" y1="93.9" x2="329.952" y2="93.9"/>
						<line style="fill:none;stroke:#A8DCA4;stroke-miterlimit:10;" x1="327.642" y1="93.9" x2="316.771" y2="93.9"/>
						<line style="fill:none;stroke:#A8DCA4;stroke-miterlimit:10;" x1="315.242" y1="93.9" x2="312.156" y2="93.773"/>
					</g>
					<polyline style="fill:none;stroke:#A8DCA4;stroke-miterlimit:10;" points="360.813,88.623 362.371,90.007 360.753,91.443 					
						"/>
				</g>
				<polyline style="fill:none;stroke:#A8DCA4;stroke-miterlimit:10;" points="362.311,64.112 360.753,65.495 362.371,66.932 				
					"/>
				<polyline style="fill:none;stroke:#A8DCA4;stroke-miterlimit:10;" points="310.354,63.828 311.912,65.211 310.294,66.648 				
					"/>
			</g>
		</g>
		<g>
			
				<line style="fill:none;stroke:#222221;stroke-width:0.5;stroke-miterlimit:10;" x1="428.618" y1="443.632" x2="260.406" y2="443.632"/>
			
				<line style="fill:none;stroke:#222221;stroke-width:0.5;stroke-miterlimit:10;" x1="438.333" y1="437.248" x2="228.485" y2="437.248"/>
			
				<line style="fill:none;stroke:#222221;stroke-width:0.5;stroke-miterlimit:10;" x1="215.839" y1="437.248" x2="201.56" y2="437.248"/>
			
				<line style="fill:none;stroke:#222221;stroke-width:0.5;stroke-miterlimit:10;" x1="441.386" y1="443.354" x2="434.725" y2="443.354"/>
			<g>
				<path style="fill:#FFFFFF;stroke:#000000;stroke-width:0.5;stroke-miterlimit:10;" d="M329.833,384.098
					c3.189,3.572,6.967,6.888,11.019,9.447c2.37,1.497,4.909,2.693,7.377,4.009c0.056,0.07,0.117,0.135,0.173,0.206
					c0.792,1.026,1.574,2.253,1.323,3.524c-0.299,1.514-1.926,2.37-3.435,2.696c-3.998,0.863-9.944,0.385-13.897-0.599
					c-8.254-2.054-16.346-5.64-22.087-12.11c-5.831-6.573-8.417-15.196-9.271-23.772c-0.897-8.998-1.466-17.16,2.056-25.811
					c1.031-2.533,2.358-5.021,4.404-6.835c2.047-1.814,4.929-2.859,7.574-2.165c2.403,0.631,4.289,2.607,5.318,4.869
					c1.028,2.262,1.301,4.792,1.361,7.276c0.159,6.568-1.526,12.881-0.987,19.48C321.374,371.825,324.882,378.552,329.833,384.098z"
					/>
				<path style="fill:#FFFFFF;stroke:#000000;stroke-width:0.5;stroke-miterlimit:10;" d="M324.945,319.129
					c-0.079-0.429-0.148-0.859-0.21-1.288c-0.624-4.283-1.208-9.639,3.454-10.992c1.773-0.515,4.169-1.074,6.401-1.341
					c1.414-0.169,2.502-1.297,2.621-2.716c0.196-2.339,0.453-4.674,0.77-7c-7.733-0.186-10.355-7.7-11.34-14.228
					c-1.151-7.635-0.912-17.165,5.815-22.28c4.287-3.26,10.291-4.039,15.329-2.134c5.038,1.905,8.986,6.379,10.412,11.573
					c1.054,3.842,1.034,8.566,0.806,12.53c-0.258,4.489-1.088,8.925-1.338,13.415c-0.168,3.019,0.089,6.538,1.726,9.174
					c0.744,1.198,1.667,2.22,2.937,2.874c0.92,0.474,3.325,0.218,3.898,0.848c3.272,3.597,6.332,7.406,9.889,10.709c0,0,0,0,0,0.001
					c-8.385,3.516-17.155,6.034-26.115,7.571c-6.287,1.078-18.981,4.798-23.319-1.889
					C325.743,322.51,325.26,320.833,324.945,319.129z"/>
				<path style="fill:#D47172;stroke:#000000;stroke-width:0.5;stroke-miterlimit:10;" d="M399.235,340.289
					c-0.897-11.08-5.857-22.418-15.947-27.959c-6.167-3.386-12.86-4.378-19.597-5.965c-0.198-0.047-0.408-0.093-0.6-0.026
					c-0.263,0.092-0.41,0.365-0.538,0.612c-3.218,6.221-10.178,10.309-17.178,10.089c-7.276-0.229-12.835-4.675-16.66-10.496
					c-4.96,1.654-9.896,3.554-14.233,6.475c-14.151,9.531-15.055,29.622-16.883,45.02c1.912,0.06,22.646,3.51,22.522,2.897
					c0.621,3.074,0.07,2.596,0.194,5.664c0.229,5.661,0.648,11.313,1.153,16.955c0.575,6.421,1.562,12.73,2.994,18.976
					c14.554,4.846,31.16,3.665,46.767,2.258c4.45-0.401,9.067-0.854,12.915-3.124c10.827-6.387,11.288-25.262,12.834-36.248
					C398.174,356.919,399.938,348.967,399.235,340.289z"/>
				<path d="M287.244,450.391c1.886-2.196,4.412-3.896,6.86-5.509c8.179-5.392,18.608-11.812,28.908-11.217
					c6.105,0.352,14.584,4.495,15.848,10.957c0.143,0.729,0.204,1.51-0.088,2.193c-0.727,1.698-3.021,1.851-4.869,1.867
					c-14.87,0.132-28.358,8.516-42.939,11.44c-1.585,0.318-3.358,0.537-4.706-0.355c-2.05-1.356-1.921-4.483-0.825-6.683
					C285.923,452.103,286.539,451.212,287.244,450.391z"/>
				<path style="fill:#5F76E8;stroke:#000000;stroke-width:0.5;stroke-miterlimit:10;" d="M253.416,385.688
					c3.185-3.527,7.721-5.811,12.374-6.682c6.528-1.222,13.271-0.038,19.674,1.726c13.567,3.736,26.288,10.033,39.927,13.537
					c6.047,1.554,9.99,0.977,15.901,0.501c7.493-0.604,15.187,0.133,22.727-0.313c7.048-0.417,14.674-0.963,21.261,0.979
					c0.87-0.572,1.737-1.144,2.601-1.711c7.369-4.835,14.71-9.649,23.951-7.888c7.265,1.385,14.271,5.068,18.772,11.049
					c4.781,6.354,3.346,14.65-0.938,20.985c-3.547,5.244-8.789,9.105-14.218,12.361c-18.729,11.235-39.185,18.12-61.287,16.586
					c-2.958-0.206-6.446-0.239-8.576,2.137c-0.801,0.893-1.266,5.789-3.045,5.578c-2.188-0.259-6.403-0.873-8.471-1.62
					c-11.168-4.034-22.335-8.068-33.503-12.103c-9.812-3.544-19.696-7.123-28.635-12.501c-7.732-4.651-14.734-10.943-18.839-19.094
					c-2.96-5.876-5.389-13.619-2.299-19.724C251.499,388.097,252.387,386.828,253.416,385.688z"/>
				<path style="fill:none;stroke:#000000;stroke-width:0.5;stroke-miterlimit:10;" d="M392.029,402.577
					c-6.278,3.138-12.851,5.144-18.866,8.862c-6.013,3.716-11.699,8.045-18.228,10.854c-4.235,1.822-9.066,2.608-13.127,4.625"/>
				<path d="M345.853,448.109c1.003-2.282,2.239-4.52,3.289-6.693c0.698-1.445,1.156-2.94,1.922-4.363
					c0.109-0.203,0.232-0.419,0.441-0.516c0.18-0.083,0.388-0.062,0.584-0.038c2.969,0.353,5.938,0.705,8.907,1.058
					c2.174,0.258,5.303,0.034,6.93,1.706c0.909,0.934,1.453,2.153,2.061,3.306c4.275,8.104,17.781,14.542,16.46,24.989
					c-2.171,17.159-23.542-5.87-28.701-10.252c-3.401-2.889-8.822-4.992-13.18-5.704
					C344.899,450.427,345.346,449.262,345.853,448.109z"/>
				<path style="fill:#FFFFFF;stroke:#000000;stroke-width:0.5;stroke-miterlimit:10;" d="M334.248,405.528
					c-0.809-0.409-1.425-1.135-1.906-2.514c-0.805-2.305-0.332-5.038,0.964-7.07c1.824-2.858,5.016-4.593,8.284-5.495
					c3.268-0.902,6.683-1.084,10.043-1.539c5.691-0.771,11.274-2.342,16.532-4.652c2.514-1.104,5.047-2.454,6.663-4.673
					c1.783-2.447,2.205-5.598,2.572-8.603c0.547-4.476,1.094-8.953,1.641-13.429c0.475-3.888,0.984-7.886,2.876-11.316
					c1.891-3.431,5.519-6.204,9.424-5.892c3.331,0.267,6.173,2.715,7.812,5.627c2.669,4.741,3.974,11.933,4.791,17.296
					c0.918,6.031,0.319,12.197-0.781,18.161c-1.429,7.754-5.737,14.359-12.69,18.239c-15.573,8.69-35.448,8.122-52.653,6.519
					C336.325,406.05,335.163,405.991,334.248,405.528z"/>
				<path d="M339.939,252.707c-0.934,0.113-1.868,0.232-2.803,0.318c-3.562,0.326-7.393,0.236-10.367,2.222
					c-3.312,2.212-4.95,7.792-2.902,11.407c2.192,3.868,11.898,1.758,15.492,1.67c2.934-0.072,7.421-0.535,7.53,3.462
					c0.019,0.712,0.039,1.423,0.058,2.135c0.011,0.398,0.024,0.807,0.179,1.174c0.276,0.655,0.937,1.044,1.531,1.434
					c1.67,1.096,3.158,2.408,3.821,4.306c0.703,2.015,1.022,4.224,2.273,6.016c0.32,0.458,0.686,0.882,1.051,1.305
					c0.672,0.777,1.344,1.555,2.016,2.332c0.413-0.311,0.616-0.822,0.796-1.306c3.861-10.385,7.605-22.86-1.628-31.674
					c-3.344-3.192-7.919-5.061-12.542-5.123C342.936,252.363,341.437,252.526,339.939,252.707z"/>
				<path style="fill:none;stroke:#000000;stroke-width:0.5;stroke-miterlimit:10;" d="M283.84,391.697
					c12.572,5.686,22.69,15.563,34.137,23.267c10.69,7.195,22.526,12.481,34.295,17.73c-0.615,1.349-0.865,2.68-1.479,4.029"/>
				<path style="fill:none;stroke:#222221;stroke-width:0.5;stroke-miterlimit:10;" d="M337.552,284.378
					c-0.751,2.452-3.748,3.941-6.157,3.06"/>
				<g>
					<path style="fill:#FFFFFF;stroke:#000000;stroke-width:0.5;stroke-miterlimit:10;" d="M350.238,283.665
						c4.634,1.159,7.52-3.725,6.111-6.909c-1.96-4.433-8.177-3.697-9.315,0.962"/>
					<path style="fill:none;stroke:#222221;stroke-width:0.5;stroke-miterlimit:10;" d="M352.61,276.381
						c-0.872-0.24-1.878-0.096-2.607,0.374c-0.729,0.469-1.162,1.251-1.121,2.025"/>
				</g>
				<path style="fill:#D47172;stroke:#000000;stroke-width:0.5;stroke-miterlimit:10;" d="M372.135,333.053
					c1.962,7.818,1.527,31.656,1.581,35.991c3.211-0.049,6.421-0.173,9.626-0.389c7.548-0.508,15.046-1.46,22.504-2.681
					c-0.397-4.235-0.872-8.462-1.459-12.674c-1.875-13.454-5.382-26.487-14.939-36.14"/>
				<g>
					<path d="M373.613,412.437h-71.278c-1.044,0-1.89-0.846-1.89-1.89l0,0c0-1.044,0.846-1.89,1.89-1.89h71.278
						c1.044,0,1.89,0.846,1.89,1.89l0,0C375.503,411.591,374.657,412.437,373.613,412.437z"/>
					<path d="M363.04,409.874h-62.382L287.7,377.876c-0.422-1.042,0.345-2.18,1.469-2.18h58.963c0.646,0,1.227,0.392,1.469,0.99
						L363.04,409.874z"/>
					<path style="fill:none;stroke:#FFFFFF;stroke-width:0.5;stroke-miterlimit:10;" d="M318.803,392.805
						c0.663,1.733,2.9,3.139,4.997,3.139c2.096,0,3.258-1.405,2.595-3.139c-0.663-1.733-2.9-3.139-4.997-3.139
						C319.302,389.667,318.14,391.072,318.803,392.805z"/>
				</g>
				<path style="fill:#D47172;stroke:#000000;stroke-width:0.5;stroke-miterlimit:10;" d="M320.121,360.936
					c-0.527-7.49-0.495-18.406-0.042-25.901"/>
				<path d="M337.951,295.608l-0.163,0.395c0.162,1.107,0.084,2.211-0.091,3.313c0.273-0.069,0.546-0.135,0.815-0.218
					c2.451-0.759,4.481-2.759,5.508-5.111C342.169,295.01,340.065,295.572,337.951,295.608z"/>
			</g>
		</g>
		<g>
			<polygon style="fill:none;stroke:#222221;stroke-width:0.5;stroke-miterlimit:10;" points="426.966,218.06 394.326,218.06 
				378.006,246.327 394.326,274.595 426.966,274.595 443.286,246.327 			"/>
			<text transform="matrix(1 0 0 1 392.8829 257.7019)" style="font-family:'Antonio-Bold'; font-size:25.9864px;">buy</text>
		</g>
		<g>
			<polygon style="fill:none;stroke:#222221;stroke-width:0.5;stroke-miterlimit:10;" points="274.858,297.991 242.218,297.991 
				225.897,326.258 242.218,354.526 274.858,354.526 291.178,326.258 			"/>
			<text transform="matrix(1 0 0 1 238.7749 337.6329)" style="font-family:'Antonio-Bold'; font-size:25.9864px;">bild</text>
		</g>
		<path style="fill:none;stroke:#222221;stroke-width:0.5;stroke-miterlimit:10;" d="M356.354,297.976c0,1.043,0,1.245,0,2.288"/>
		<path style="fill:none;stroke:#222221;stroke-width:0.5;stroke-miterlimit:10;" d="M356.441,301.602
			c0.129,1.511,0.597,3.035,1.727,3.885"/>
		<path style="fill:none;stroke:#222221;stroke-width:0.5;stroke-miterlimit:10;" d="M399.52,342.855
			c1.458,5.05,2.235,10.296,2.304,15.552"/>
		<path style="fill:none;stroke:#222221;stroke-width:0.5;stroke-miterlimit:10;" d="M402.066,360.998c0,0.518,0,1.036,0,1.554"/>
		<path style="fill:none;stroke:#222221;stroke-width:0.5;stroke-miterlimit:10;" d="M303.618,333.794
			c-1.303,4.214-2.159,8.566-2.549,12.96"/>
		<path style="fill:none;stroke:#222221;stroke-width:0.5;stroke-miterlimit:10;" d="M428.67,400.479
			c1.506,2.598,1.713,5.787,1.181,8.742c-0.532,2.955-1.745,5.737-2.948,8.488"/>
		<path style="fill:none;stroke:#222221;stroke-width:0.5;stroke-miterlimit:10;" d="M424.178,420.121
			c-1.7,2.257-3.749,4.249-6.053,5.885"/>
		<path style="fill:none;stroke:#222221;stroke-width:0.5;stroke-miterlimit:10;" d="M425.107,415.897
			c-1.218,1.842-2.7,3.509-4.387,4.935"/>
		<path style="fill:none;stroke:#222221;stroke-width:0.5;stroke-miterlimit:10;" d="M415.301,427.334
			c-1.21,0.91-2.529,1.677-3.919,2.278"/>
		<path style="fill:none;stroke:#222221;stroke-width:0.5;stroke-miterlimit:10;" d="M253.311,404.799
			c0.675,1.982,1.584,3.884,2.7,5.656"/>
		<path style="fill:none;stroke:#222221;stroke-width:0.5;stroke-miterlimit:10;" d="M257.787,413.156
			c0.818,1.149,1.753,2.215,2.787,3.176"/>
		<path style="fill:none;stroke:#222221;stroke-width:0.5;stroke-miterlimit:10;" d="M256.855,409.518
			c0.467,0.802,1.02,1.555,1.645,2.241"/>
		<path style="fill:none;stroke:#222221;stroke-width:0.5;stroke-miterlimit:10;" d="M397.216,390.567
			c-1.377,2.199-3.283,4.062-5.513,5.389"/>
	</g>
</g>
</svg>
