<?xml version="1.0" encoding="utf-8"?>
<!-- Generator: Adobe Illustrator 27.5.0, SVG Export Plug-In . SVG Version: 6.00 Build 0)  -->
<svg version="1.1" id="Capa_1" xmlns="http://www.w3.org/2000/svg" xmlns:xlink="http://www.w3.org/1999/xlink" x="0px" y="0px"
	 viewBox="0 0 492.797 425.197" style="enable-background:new 0 0 492.797 425.197;" xml:space="preserve">
<linearGradient id="SVGID_1_" gradientUnits="userSpaceOnUse" x1="246.3985" y1="224.7988" x2="246.3985" y2="1.5771">
	<stop  offset="0" style="stop-color:#FEC02A"/>
	<stop  offset="0.9791" style="stop-color:#F7942F"/>
</linearGradient>
<rect y="0" style="fill:url(#SVGID_1_);" width="492.797" height="212.598"/>
<linearGradient id="SVGID_00000048467983091632225940000014657647340645351834_" gradientUnits="userSpaceOnUse" x1="246.3985" y1="437.3979" x2="246.3985" y2="214.1761">
	<stop  offset="0" style="stop-color:#0075BD"/>
	<stop  offset="0.1785" style="stop-color:#006CB2"/>
	<stop  offset="0.9791" style="stop-color:#1A488D"/>
</linearGradient>
<rect y="212.599" style="fill:url(#SVGID_00000048467983091632225940000014657647340645351834_);" width="492.797" height="212.598"/>
<g>
	<path style="fill:#56ACCD;" d="M147.326,248.641h-17.447v-2.495h10.42c2.946,0,5.336-2.389,5.336-5.336
		c0-2.947-2.389-5.335-5.336-5.335h-37.584c-2.947,0-5.336,2.389-5.336,5.335c0,2.947,2.389,5.336,5.336,5.336h10.419v2.495h-3.392
		c-2.946,0-5.336,2.389-5.336,5.336c0,2.948,2.389,5.336,5.336,5.336h37.584c2.947,0,5.336-2.389,5.336-5.336
		C152.662,251.029,150.272,248.641,147.326,248.641z"/>
	<path style="fill:#56ACCD;" d="M404.808,268.472h-17.447v-2.494h10.42c2.946,0,5.335-2.389,5.335-5.336
		c0-2.947-2.389-5.335-5.335-5.335h-37.584c-2.947,0-5.336,2.389-5.336,5.335c0,2.947,2.389,5.336,5.336,5.336h10.419v2.494h-3.392
		c-2.947,0-5.335,2.389-5.335,5.336c0,2.947,2.388,5.336,5.335,5.336h37.584c2.946,0,5.336-2.389,5.336-5.336
		C410.144,270.861,407.754,268.472,404.808,268.472z"/>
	<path style="fill:#56ACCD;" d="M394.897,372.364H377.45v-2.494h10.42c2.946,0,5.335-2.389,5.335-5.336
		c0-2.947-2.389-5.335-5.335-5.335h-37.584c-2.947,0-5.336,2.389-5.336,5.335c0,2.947,2.389,5.336,5.336,5.336h10.419v2.494h-3.392
		c-2.947,0-5.336,2.389-5.336,5.336c0,2.947,2.389,5.336,5.336,5.336h37.583c2.947,0,5.336-2.389,5.336-5.336
		C400.233,374.753,397.844,372.364,394.897,372.364z"/>
	<path style="fill:#56ACCD;" d="M178.166,393.047h-17.447v-2.495h10.42c2.946,0,5.335-2.389,5.335-5.336
		c0-2.947-2.389-5.335-5.335-5.335h-37.584c-2.948,0-5.337,2.389-5.337,5.335c0,2.947,2.389,5.336,5.337,5.336h10.418v2.495h-3.392
		c-2.947,0-5.336,2.389-5.336,5.335c0,2.948,2.389,5.336,5.336,5.336h37.584c2.946,0,5.336-2.389,5.336-5.336
		C183.502,395.436,181.112,393.047,178.166,393.047z"/>
	<g>
		
			<path style="fill:none;stroke:#FFFFFF;stroke-width:1.4896;stroke-linecap:round;stroke-linejoin:round;stroke-dasharray:2.7204,3.6272;" d="
			M392.739,319.143c0,35.712-28.95,64.662-64.661,64.662c-35.711,0-64.663-28.95-64.663-64.662s28.952-64.662,64.663-64.662
			C363.789,254.482,392.739,283.431,392.739,319.143z"/>
	</g>
	<g>
		
			<circle style="fill:none;stroke:#FFFFFF;stroke-width:1.4426;stroke-linecap:round;stroke-linejoin:round;stroke-dasharray:2.6344,3.5126;" cx="174.641" cy="310.994" r="62.622"/>
	</g>
	<g>
		<g>
			<rect x="174.701" y="279.147" style="fill:#8BD7F8;" width="149.822" height="111.267"/>
			<rect x="174.701" y="279.147" style="fill:#1C2B38;" width="149.822" height="20.807"/>
			<g>
				<path style="fill:#8BD7F8;" d="M287.165,289.55c0,2.091-1.693,3.784-3.783,3.784c-2.089,0-3.784-1.693-3.784-3.784
					c0-2.089,1.694-3.783,3.784-3.783C285.472,285.767,287.165,287.461,287.165,289.55z"/>
				<path style="fill:#FFD11D;" d="M298.801,289.55c0,2.091-1.695,3.784-3.784,3.784c-2.089,0-3.784-1.693-3.784-3.784
					c0-2.089,1.694-3.783,3.784-3.783C297.105,285.767,298.801,287.461,298.801,289.55z"/>
				<path style="fill:#8BD7F8;" d="M310.34,289.55c0,2.091-1.693,3.784-3.784,3.784c-2.089,0-3.784-1.693-3.784-3.784
					c0-2.089,1.695-3.783,3.784-3.783C308.647,285.767,310.34,287.461,310.34,289.55z"/>
			</g>
		</g>
		<g>
			<rect x="243.108" y="339.21" style="fill:#263642;" width="96.248" height="63.511"/>
			<rect x="243.108" y="382.953" style="fill:#8BD7F8;" width="96.248" height="13.39"/>
			<g>
				<rect x="266.128" y="356.887" style="fill:#8BD7F8;" width="21.018" height="14.079"/>
				<rect x="253.407" y="349.847" style="fill:#FFD11D;" width="21.018" height="14.08"/>
			</g>
			<rect x="295.813" y="351.827" style="fill:#FFD11D;" width="36.952" height="3.066"/>
			<rect x="295.813" y="356.887" style="fill:#FFD11D;" width="36.952" height="3.066"/>
		</g>
		<g>
			<path style="fill:#FFD11D;" d="M238.045,378.136c0,14.962-12.128,27.091-27.09,27.091c-14.962,0-27.091-12.128-27.091-27.091
				c0-14.961,12.129-27.09,27.091-27.09C225.917,351.046,238.045,363.175,238.045,378.136z"/>
			<path style="fill:#263642;" d="M231.508,378.136c0,11.352-9.203,20.554-20.553,20.554c-11.352,0-20.554-9.202-20.554-20.554
				c0-11.351,9.202-20.553,20.554-20.553C222.305,357.583,231.508,366.785,231.508,378.136z"/>
			<path style="fill:#FFD11D;" d="M218.053,380.964c-0.3-0.705-0.717-1.329-1.241-1.853c-0.519-0.518-1.107-0.966-1.749-1.336
				c-0.633-0.362-1.403-0.746-2.292-1.138l-0.049-0.022v-7.239c0.306,0.094,0.584,0.221,0.829,0.384
				c0.583,0.388,1.117,1.004,1.588,1.829l0.129,0.228l2.482-1.593l-0.108-0.203c-0.635-1.186-1.507-2.116-2.59-2.764
				c-0.718-0.429-1.498-0.715-2.33-0.862v-0.871h-2.738v0.889c-0.386,0.071-0.762,0.169-1.129,0.298
				c-0.805,0.287-1.537,0.707-2.175,1.248c-0.642,0.545-1.145,1.207-1.499,1.966c-0.353,0.76-0.532,1.61-0.532,2.527
				c0,0.833,0.137,1.577,0.406,2.21c0.267,0.633,0.649,1.199,1.132,1.683c0.477,0.477,1.013,0.891,1.593,1.227
				c0.568,0.33,1.265,0.687,2.078,1.062l0.126,0.054v9.157c-0.766-0.156-1.446-0.519-2.027-1.086
				c-0.811-0.791-1.31-1.776-1.486-2.929l-0.042-0.278l-3.024,0.847l0.046,0.228c0.38,1.858,1.254,3.375,2.597,4.505
				c1.113,0.939,2.435,1.487,3.936,1.652v1.014h2.738v-1.156c0.395-0.09,0.782-0.208,1.153-0.36c0.911-0.37,1.726-0.902,2.424-1.578
				c0.701-0.679,1.249-1.48,1.63-2.38c0.381-0.901,0.575-1.884,0.575-2.92C218.505,382.493,218.352,381.671,218.053,380.964z
				 M213.064,380.124c0.422,0.228,0.822,0.506,1.186,0.832c0.353,0.313,0.64,0.698,0.851,1.139c0.209,0.438,0.315,0.961,0.315,1.558
				c0,0.599-0.123,1.165-0.363,1.685c-0.243,0.523-0.581,0.983-1.007,1.371c-0.389,0.355-0.835,0.635-1.323,0.846v-7.605
				C212.843,380.007,212.958,380.067,213.064,380.124z M209.889,375.32c-0.374-0.198-0.735-0.434-1.073-0.701
				c-0.322-0.256-0.588-0.563-0.786-0.914c-0.193-0.341-0.291-0.73-0.291-1.157c0-0.985,0.345-1.771,1.058-2.406
				c0.358-0.32,0.755-0.56,1.188-0.719v5.944C209.952,375.352,209.919,375.335,209.889,375.32z"/>
		</g>
		<g>
			<path style="fill:#FFD11D;" d="M201.791,314.012c0,14.961-12.128,27.09-27.09,27.09c-14.961,0-27.091-12.129-27.091-27.09
				c0-14.962,12.13-27.091,27.091-27.091C189.663,286.921,201.791,299.05,201.791,314.012z"/>
			<path style="fill:#263642;" d="M195.255,314.012c0,11.351-9.203,20.553-20.554,20.553c-11.352,0-20.554-9.202-20.554-20.553
				c0-11.353,9.202-20.554,20.554-20.554C186.052,293.458,195.255,302.66,195.255,314.012z"/>
			<path style="fill:#FFD11D;" d="M184.477,315.768c-0.682-0.842-1.61-1.472-2.783-1.888v-0.17c0.946-0.303,1.652-0.86,2.116-1.675
				c0.464-0.813,0.695-1.694,0.695-2.641c0-1.229-0.241-2.233-0.724-3.009c-0.482-0.776-1.117-1.382-1.902-1.817
				c-0.786-0.435-1.681-0.728-2.684-0.879c-0.153-0.023-0.307-0.042-0.461-0.061v-2.647h-2.583v2.48c-0.008,0-0.015,0-0.023,0
				h-1.996v-2.48h-2.584v2.48h-1.716h-2.762h-1.678v2.606h1.678v16.196h-1.678v2.607h1.678h2.762h1.716v2.175h2.584v-2.175h2.018
				v2.175h2.583v-2.224c0.573-0.048,1.148-0.128,1.725-0.25c0.938-0.198,1.779-0.529,2.527-0.993
				c0.747-0.464,1.352-1.075,1.817-1.832c0.463-0.757,0.696-1.684,0.696-2.783C185.5,317.675,185.159,316.611,184.477,315.768z
				 M171.165,306.125h1.375c0.723,0,1.469,0.01,2.241,0.03c0.77,0.021,1.482,0.124,2.133,0.313c0.65,0.187,1.181,0.499,1.59,0.935
				c0.409,0.438,0.615,1.093,0.615,1.965c0,0.833-0.181,1.478-0.542,1.936c-0.362,0.458-0.844,0.801-1.447,1.03
				c-0.602,0.229-1.265,0.374-1.988,0.436c-0.723,0.062-1.446,0.094-2.169,0.094h-1.808V306.125z M179.502,320.97
				c-0.464,0.465-1.045,0.804-1.741,1.02c-0.696,0.214-1.447,0.34-2.248,0.375c-0.801,0.036-1.562,0.054-2.279,0.054h-1.963v-6.707
				h1.71c0.675,0,1.434,0.019,2.279,0.053c0.844,0.036,1.636,0.152,2.375,0.349c0.739,0.196,1.351,0.519,1.836,0.965
				c0.485,0.448,0.729,1.1,0.729,1.959C180.199,319.861,179.966,320.505,179.502,320.97z"/>
		</g>
	</g>
	<g>
		<path style="fill:#263642;" d="M336.043,229.145c-0.04,0-0.079,0.001-0.12,0.001v21.184h20.857
			c0.003-0.147,0.007-0.294,0.007-0.442C356.788,238.432,347.5,229.145,336.043,229.145z"/>
		<path style="fill:#FFD11D;" d="M336.072,250.231v-21.086c-0.009,0-0.019,0-0.028,0c-11.456,0-20.743,9.32-20.743,20.817
			c0,0.09,0.003,0.18,0.003,0.27H336.072z"/>
		<path style="fill:#263642;" d="M321.921,234.715c-4.072,3.801-6.621,9.224-6.621,15.246c0,0.09,0.003,0.18,0.003,0.27h20.769
			v-0.008L321.921,234.715z"/>
		<path style="fill:#8BD7F8;" d="M336.072,250.231l11.7,16.786c5.372-3.677,8.927-9.813,9.039-16.786H336.072z"/>
		<path style="fill:#8BD7F8;" d="M336.072,250.231H315.3c0.115,7.106,3.805,13.344,9.348,16.994L336.072,250.231z"/>
		<g>
			<path style="fill:#FFD11D;" d="M336.116,250.182l-11.381,17.022c3.261,2.135,7.159,3.378,11.348,3.378
				c4.329,0,8.348-1.327,11.673-3.595L336.116,250.182z"/>
		</g>
	</g>
	<g>
		<g>
			
				<rect x="367.564" y="284.451" style="fill:#005085;stroke:#FFFFFF;stroke-width:1.0821;stroke-linecap:round;stroke-linejoin:round;stroke-miterlimit:10;" width="46.986" height="31.005"/>
			<g>
				<rect x="367.564" y="305.806" style="fill:#005085;" width="46.986" height="6.536"/>
				
					<rect x="367.564" y="305.806" style="fill:none;stroke:#FFFFFF;stroke-width:1.0821;stroke-linecap:round;stroke-linejoin:round;stroke-miterlimit:10;" width="46.986" height="6.536"/>
			</g>
			<g>
				
					<rect x="378.802" y="293.081" style="fill:#005085;stroke:#FFFFFF;stroke-width:1.0821;stroke-linecap:round;stroke-linejoin:round;stroke-miterlimit:10;" width="10.261" height="6.873"/>
				
					<rect x="372.592" y="289.644" style="fill:#005085;stroke:#FFFFFF;stroke-width:1.0821;stroke-linecap:round;stroke-linejoin:round;stroke-miterlimit:10;" width="10.259" height="6.873"/>
			</g>
			
				<rect x="393.293" y="290.61" style="fill:#005085;stroke:#FFFFFF;stroke-width:1.0821;stroke-linecap:round;stroke-linejoin:round;stroke-miterlimit:10;" width="18.039" height="1.497"/>
			
				<rect x="393.293" y="293.837" style="fill:#005085;stroke:#FFFFFF;stroke-width:1.0821;stroke-linecap:round;stroke-linejoin:round;stroke-miterlimit:10;" width="18.039" height="1.497"/>
		</g>
	</g>
	<g>
		<rect x="370.512" y="369.506" style="fill:#8BD7F8;" width="7.458" height="12.869"/>
		<rect x="382.502" y="353.785" style="fill:#FFD11D;" width="7.459" height="28.59"/>
		<rect x="406.485" y="363.071" style="fill:#FFD11D;" width="7.459" height="19.303"/>
		<rect x="394.494" y="359.781" style="fill:#8BD7F8;" width="7.457" height="22.593"/>
		<rect x="368.351" y="382.375" style="fill:#263642;" width="48.777" height="3.12"/>
		<g>
			
				<polyline style="fill:none;stroke:#263642;stroke-width:0.9874;stroke-linecap:round;stroke-linejoin:round;stroke-miterlimit:10;" points="
				373.606,358.928 386.865,338.748 398.662,357.271 408.508,347.424 			"/>
			<path style="fill:#FFD11D;" d="M375.556,358.501c0,0.93-0.753,1.683-1.682,1.683c-0.928,0-1.681-0.753-1.681-1.683
				c0-0.929,0.753-1.681,1.681-1.681C374.803,356.82,375.556,357.572,375.556,358.501z"/>
			<path style="fill:#FFD11D;" d="M388.425,339.272c0,0.929-0.753,1.682-1.682,1.682c-0.929,0-1.681-0.753-1.681-1.682
				c0-0.928,0.752-1.682,1.681-1.682C387.672,337.59,388.425,338.343,388.425,339.272z"/>
			<path style="fill:#FFD11D;" d="M400.416,356.381c0,0.929-0.753,1.682-1.681,1.682c-0.93,0-1.682-0.752-1.682-1.682
				s0.752-1.682,1.682-1.682C399.663,354.699,400.416,355.452,400.416,356.381z"/>
			<path style="fill:#FFD11D;" d="M410.19,347.156c0,0.929-0.753,1.682-1.682,1.682c-0.93,0-1.681-0.753-1.681-1.682
				c0-0.929,0.751-1.681,1.681-1.681C409.437,345.475,410.19,346.227,410.19,347.156z"/>
		</g>
	</g>
	<g>
		<rect x="80.262" y="277.555" style="fill:#8BD7F8;" width="44.758" height="31.052"/>
		<polygon style="fill:#263642;" points="102.641,297.438 80.262,277.555 125.02,277.555 		"/>
	</g>
	<g>
		<path style="fill:#005085;stroke:#FFFFFF;stroke-width:0.739;stroke-miterlimit:10;" d="M215.505,250.88
			c0,12.005-9.732,21.736-21.736,21.736c-12.004,0-21.736-9.731-21.736-21.736c0-12.004,9.732-21.736,21.736-21.736
			C205.774,229.145,215.505,238.876,215.505,250.88z"/>
		<path style="fill:#005085;stroke:#FFFFFF;stroke-width:0.739;stroke-miterlimit:10;" d="M211.697,250.88
			c0,12.005-8.027,21.736-17.928,21.736c-9.9,0-17.926-9.731-17.926-21.736c0-12.004,8.026-21.736,17.926-21.736
			C203.67,229.145,211.697,238.876,211.697,250.88z"/>
		<path style="fill:#005085;stroke:#FFFFFF;stroke-width:0.739;stroke-miterlimit:10;" d="M206.58,250.88
			c0,12.005-5.735,21.736-12.811,21.736c-7.075,0-12.811-9.731-12.811-21.736c0-12.004,5.735-21.736,12.811-21.736
			C200.845,229.145,206.58,238.876,206.58,250.88z"/>
		<path style="fill:#005085;stroke:#FFFFFF;stroke-width:0.739;stroke-miterlimit:10;" d="M199.836,250.88
			c0,12.005-2.716,21.736-6.067,21.736c-3.351,0-6.066-9.731-6.066-21.736c0-12.004,2.716-21.736,6.066-21.736
			C197.12,229.145,199.836,238.876,199.836,250.88z"/>
		<path style="fill:none;stroke:#FFFFFF;stroke-width:0.739;stroke-miterlimit:10;" d="M215.505,250.88
			c0,9.277-9.732,16.798-21.736,16.798c-12.004,0-21.736-7.521-21.736-16.798c0-9.277,9.732-16.798,21.736-16.798
			C205.774,234.083,215.505,241.604,215.505,250.88z"/>
		<path style="fill:none;stroke:#FFFFFF;stroke-width:0.739;stroke-miterlimit:10;" d="M215.505,250.88
			c0,6.666-9.732,12.07-21.736,12.07c-12.004,0-21.736-5.404-21.736-12.07c0-6.665,9.732-12.069,21.736-12.069
			C205.774,238.811,215.505,244.215,215.505,250.88z"/>
		<path style="fill:none;stroke:#FFFFFF;stroke-width:0.739;stroke-miterlimit:10;" d="M215.505,250.88
			c0,3.241-9.732,5.869-21.736,5.869c-12.004,0-21.736-2.627-21.736-5.869c0-3.241,9.732-5.868,21.736-5.868
			C205.774,245.013,215.505,247.64,215.505,250.88z"/>
	</g>
	<g>
		
			<rect x="82.901" y="336.375" style="fill:#005085;stroke:#FFFFFF;stroke-width:0.9663;stroke-linecap:round;stroke-linejoin:round;stroke-miterlimit:10;" width="37.642" height="36.802"/>
		
			<rect x="79.716" y="336.375" style="fill:#005085;stroke:#FFFFFF;stroke-width:0.9663;stroke-linecap:round;stroke-linejoin:round;stroke-miterlimit:10;" width="6.372" height="34.742"/>
		
			<rect x="99.135" y="336.375" style="fill:#005085;stroke:#FFFFFF;stroke-width:0.9663;stroke-linecap:round;stroke-linejoin:round;stroke-miterlimit:10;" width="6.372" height="34.742"/>
		
			<rect x="118.554" y="336.375" style="fill:#005085;stroke:#FFFFFF;stroke-width:0.9663;stroke-linecap:round;stroke-linejoin:round;stroke-miterlimit:10;" width="6.371" height="34.742"/>
		
			<rect x="76.774" y="337.302" style="fill:#005085;stroke:#FFFFFF;stroke-width:0.9663;stroke-linecap:round;stroke-linejoin:round;stroke-miterlimit:10;" width="51.397" height="3.048"/>
		
			<rect x="75.669" y="373.057" style="fill:#005085;stroke:#FFFFFF;stroke-width:0.9663;stroke-linecap:round;stroke-linejoin:round;stroke-miterlimit:10;" width="53.944" height="3.698"/>
		
			<polygon style="fill:#005085;stroke:#FFFFFF;stroke-width:0.9663;stroke-linecap:round;stroke-linejoin:round;stroke-miterlimit:10;" points="
			128.219,337.347 102.641,321.923 76.859,337.347 		"/>
		
			<path style="fill:#005085;stroke:#FFFFFF;stroke-width:0.9663;stroke-linecap:round;stroke-linejoin:round;stroke-miterlimit:10;" d="
			M105.793,331.873c0,1.918-1.555,3.473-3.472,3.473c-1.919,0-3.473-1.555-3.473-3.473c0-1.918,1.554-3.473,3.473-3.473
			C104.238,328.399,105.793,329.954,105.793,331.873z"/>
		
			<rect x="77.063" y="370.128" style="fill:#005085;stroke:#FFFFFF;stroke-width:0.9663;stroke-linecap:round;stroke-linejoin:round;stroke-miterlimit:10;" width="51.155" height="3.048"/>
	</g>
</g>
<g>
	<path style="fill:#ECC1B0;" d="M112.555,36.716H92.558v-2.859h11.943c3.377,0,6.116-2.738,6.116-6.117
		c0-3.377-2.739-6.115-6.116-6.115H61.421c-3.377,0-6.116,2.738-6.116,6.115c0,3.378,2.739,6.117,6.116,6.117h11.942v2.859h-3.889
		c-3.376,0-6.114,2.738-6.114,6.116c0,3.378,2.738,6.116,6.114,6.116h43.08c3.377,0,6.116-2.738,6.116-6.116
		C118.671,39.455,115.932,36.716,112.555,36.716z"/>
	<path style="fill:#ECC1B0;" d="M390.265,183.855h-19.999v-2.859h11.943c3.378,0,6.116-2.739,6.116-6.116
		c0-3.378-2.738-6.116-6.116-6.116H339.13c-3.376,0-6.114,2.738-6.114,6.116c0,3.377,2.738,6.116,6.114,6.116h11.943v2.859h-3.888
		c-3.377,0-6.115,2.739-6.115,6.117s2.738,6.116,6.115,6.116h43.079c3.376,0,6.115-2.738,6.115-6.116
		S393.642,183.855,390.265,183.855z"/>
	<path style="fill:#ECC1B0;" d="M431.376,45.12h-19.999v-2.859h11.943c3.378,0,6.116-2.739,6.116-6.117
		c0-3.377-2.738-6.115-6.116-6.115h-43.078c-3.377,0-6.116,2.738-6.116,6.115c0,3.378,2.739,6.117,6.116,6.117h11.942v2.859h-3.888
		c-3.377,0-6.115,2.738-6.115,6.115c0,3.378,2.738,6.116,6.115,6.116h43.079c3.377,0,6.115-2.738,6.115-6.116
		C437.492,47.858,434.753,45.12,431.376,45.12z"/>
	<path style="fill:#ECC1B0;" d="M124.601,166.723h-19.998v-2.859h11.942c3.378,0,6.117-2.739,6.117-6.116
		c0-3.378-2.739-6.116-6.117-6.116H73.467c-3.378,0-6.116,2.738-6.116,6.116c0,3.377,2.738,6.116,6.116,6.116h11.942v2.859h-3.887
		c-3.378,0-6.116,2.739-6.116,6.117c0,3.378,2.738,6.116,6.116,6.116h43.078c3.376,0,6.116-2.738,6.116-6.116
		C130.717,169.462,127.977,166.723,124.601,166.723z"/>
	<g>
		
			<path style="fill:none;stroke:#FFFFFF;stroke-width:1.4426;stroke-linecap:round;stroke-linejoin:round;stroke-dasharray:2.6325,3.51;" d="
			M396.217,97.825c0,28.623-23.203,51.826-51.826,51.826c-28.624,0-51.827-23.204-51.827-51.826
			c0-28.623,23.203-51.828,51.827-51.828C373.014,45.997,396.217,69.201,396.217,97.825z"/>
	</g>
	<g>
		
			<ellipse transform="matrix(0.9996 -0.0294 0.0294 0.9996 -2.7141 4.8286)" style="fill:none;stroke:#FFFFFF;stroke-width:1.4426;stroke-linecap:round;stroke-linejoin:round;stroke-dasharray:2.6325,3.51;" cx="162.995" cy="94.793" rx="51.826" ry="51.827"/>
	</g>
	<g>
		<path style="fill:#8BD7F8;stroke:#263642;stroke-width:2.2347;stroke-miterlimit:10;" d="M352.263,84.403
			c0,33.199-26.914,60.112-60.113,60.112c-33.198,0-60.112-26.913-60.112-60.112c0-33.199,26.913-60.113,60.112-60.113
			C325.349,24.29,352.263,51.204,352.263,84.403z"/>
		<path style="fill:none;stroke:#263642;stroke-width:2.2347;stroke-miterlimit:10;" d="M341.727,84.403
			c0,33.199-22.195,60.112-49.577,60.112c-27.38,0-49.577-26.913-49.577-60.112c0-33.199,22.197-60.113,49.577-60.113
			C319.532,24.29,341.727,51.204,341.727,84.403z"/>
		<path style="fill:none;stroke:#263642;stroke-width:2.2347;stroke-miterlimit:10;" d="M327.579,84.403
			c0,33.199-15.861,60.112-35.429,60.112c-19.567,0-35.429-26.913-35.429-60.112c0-33.199,15.862-60.113,35.429-60.113
			C311.718,24.29,327.579,51.204,327.579,84.403z"/>
		<path style="fill:none;stroke:#263642;stroke-width:2.2347;stroke-miterlimit:10;" d="M308.93,84.403
			c0,33.199-7.513,60.112-16.78,60.112c-9.266,0-16.779-26.913-16.779-60.112c0-33.199,7.513-60.113,16.779-60.113
			C301.418,24.29,308.93,51.204,308.93,84.403z"/>
		<path style="fill:none;stroke:#263642;stroke-width:2.2347;stroke-miterlimit:10;" d="M352.263,84.403
			c0,25.656-26.914,46.455-60.113,46.455c-33.198,0-60.112-20.799-60.112-46.455c0-25.657,26.913-46.455,60.112-46.455
			C325.349,37.948,352.263,58.747,352.263,84.403z"/>
		<path style="fill:none;stroke:#263642;stroke-width:2.2347;stroke-miterlimit:10;" d="M352.263,84.403
			c0,18.434-26.914,33.378-60.113,33.378c-33.198,0-60.112-14.943-60.112-33.378c0-18.435,26.913-33.378,60.112-33.378
			C325.349,51.025,352.263,65.968,352.263,84.403z"/>
		<path style="fill:none;stroke:#263642;stroke-width:2.2347;stroke-miterlimit:10;" d="M352.263,84.403
			c0,8.962-26.914,16.228-60.113,16.228c-33.198,0-60.112-7.266-60.112-16.228c0-8.963,26.913-16.229,60.112-16.229
			C325.349,68.174,352.263,75.44,352.263,84.403z"/>
	</g>
	<g>
		<rect x="185.101" y="78.88" style="fill:#0E1D28;" width="139.702" height="94.82"/>
		<rect x="191.845" y="88.067" style="fill:#8BD7F8;" width="126.212" height="80.039"/>
		<path style="fill:#8BD7F8;" d="M257.515,84.123c0,1.417-1.146,2.564-2.562,2.564c-1.417,0-2.565-1.148-2.565-2.564
			c0-1.416,1.148-2.563,2.565-2.563C256.369,81.56,257.515,82.707,257.515,84.123z"/>
		<rect x="174.738" y="173.701" style="fill:#263642;" width="160.429" height="11.262"/>
		<rect x="236.092" y="173.701" style="fill:#8BD7F8;" width="37.719" height="4.66"/>
	</g>
	<g>
		<rect x="137.124" y="105.975" style="fill:#263642;" width="52.747" height="77.714"/>
		<rect x="140.939" y="111.99" style="fill:#8BD7F8;" width="45.117" height="63.911"/>
		<path style="fill:#8BD7F8;" d="M148.624,108.889c0,0.755-0.611,1.368-1.367,1.368c-0.757,0-1.368-0.612-1.368-1.368
			s0.611-1.367,1.368-1.367C148.012,107.522,148.624,108.134,148.624,108.889z"/>
		<path style="fill:#8BD7F8;" d="M166.405,179.769c0,1.467-1.189,2.658-2.657,2.658c-1.467,0-2.657-1.19-2.657-2.658
			c0-1.468,1.19-2.657,2.657-2.657C165.216,177.112,166.405,178.301,166.405,179.769z"/>
		<path style="fill:#8BD7F8;" d="M171.113,109.143c0,0.615-0.499,1.114-1.114,1.114h-12.503c-0.614,0-1.113-0.499-1.113-1.114l0,0
			c0-0.615,0.499-1.113,1.113-1.113h12.503C170.614,108.03,171.113,108.528,171.113,109.143L171.113,109.143z"/>
	</g>
	<g>
		<rect x="236.29" y="123.109" style="fill:#FFD11D;" width="60.705" height="30.997"/>
		<path style="fill:#263642;" d="M291.221,133.335c-2.625,0-4.755-2.128-4.755-4.754c0-0.568,0.105-1.109,0.287-1.615h-39.841
			c0.17,0.489,0.267,1.012,0.267,1.56c0,2.626-2.129,4.754-4.756,4.754c-0.811,0-1.575-0.204-2.244-0.564v11.443
			c0.669-0.359,1.434-0.564,2.244-0.564c2.627,0,4.756,2.129,4.756,4.754c0,0.675-0.143,1.315-0.395,1.897h40.053
			c-0.236-0.566-0.37-1.188-0.37-1.841c0-2.626,2.13-4.755,4.755-4.755c0.671,0,1.307,0.14,1.884,0.39v-11.096
			C292.528,133.195,291.892,133.335,291.221,133.335z"/>
		<path style="fill:#FFD11D;" d="M255.733,138.439c0,2.487-2.017,4.504-4.504,4.504c-2.486,0-4.504-2.017-4.504-4.504
			c0-2.487,2.018-4.503,4.504-4.503C253.716,133.935,255.733,135.952,255.733,138.439z"/>
		<path style="fill:#FFD11D;" d="M285.39,138.439c0,2.487-2.016,4.504-4.502,4.504c-2.488,0-4.505-2.017-4.505-4.504
			c0-2.487,2.017-4.503,4.505-4.503C283.375,133.935,285.39,135.952,285.39,138.439z"/>
		<path style="fill:#FFD11D;" d="M274.447,138.439c0,4.658-3.775,8.432-8.432,8.432c-4.658,0-8.433-3.774-8.433-8.432
			c0-4.658,3.775-8.433,8.433-8.433C270.672,130.006,274.447,133.78,274.447,138.439z"/>
		<path style="fill:#263642;" d="M270.781,139.305c-0.335-0.416-0.793-0.726-1.371-0.931v-0.084
			c0.467-0.149,0.814-0.425,1.043-0.825c0.228-0.402,0.343-0.836,0.343-1.302c0-0.607-0.119-1.102-0.357-1.485
			c-0.236-0.382-0.55-0.681-0.936-0.895c-0.389-0.215-0.829-0.36-1.323-0.434c-0.077-0.012-0.152-0.021-0.228-0.03v-1.305h-1.273
			v1.223h-0.011h-0.983v-1.223h-1.274v1.223h-0.846h-1.362h-0.826v1.285h0.826v7.986h-0.826v1.285h0.826h1.362h0.846v1.072h1.274
			v-1.072h0.995v1.072h1.273v-1.097c0.283-0.023,0.567-0.062,0.852-0.123c0.461-0.097,0.877-0.261,1.245-0.489
			c0.369-0.229,0.666-0.53,0.897-0.903c0.228-0.373,0.341-0.831,0.341-1.372C271.285,140.245,271.116,139.72,270.781,139.305z
			 M264.218,134.55h0.677c0.357,0,0.724,0.005,1.105,0.015c0.38,0.011,0.73,0.062,1.052,0.155c0.321,0.092,0.583,0.246,0.784,0.46
			c0.202,0.216,0.304,0.539,0.304,0.97c0,0.411-0.09,0.729-0.268,0.955c-0.179,0.225-0.416,0.395-0.712,0.507
			c-0.298,0.114-0.625,0.184-0.982,0.216c-0.356,0.031-0.714,0.046-1.068,0.046h-0.892V134.55z M268.33,141.87
			c-0.231,0.229-0.518,0.396-0.859,0.502c-0.345,0.106-0.714,0.168-1.109,0.186c-0.395,0.017-0.77,0.026-1.122,0.026h-0.97v-3.306
			h0.843c0.334,0,0.707,0.009,1.124,0.026c0.416,0.017,0.807,0.075,1.171,0.172c0.364,0.097,0.665,0.256,0.906,0.476
			c0.238,0.22,0.359,0.542,0.359,0.965C268.672,141.323,268.557,141.64,268.33,141.87z"/>
	</g>
	<g>
		<rect x="217.543" y="101.447" style="fill:#FFD11D;" width="60.704" height="30.998"/>
		<path style="fill:#263642;" d="M272.474,111.674c-2.626,0-4.755-2.129-4.755-4.755c0-0.568,0.105-1.11,0.288-1.614h-39.844
			c0.171,0.488,0.268,1.012,0.268,1.56c0,2.625-2.129,4.753-4.754,4.753c-0.813,0-1.577-0.204-2.245-0.563v11.444
			c0.668-0.36,1.432-0.564,2.245-0.564c2.625,0,4.754,2.129,4.754,4.755c0,0.674-0.144,1.315-0.396,1.896h40.054
			c-0.237-0.566-0.37-1.188-0.37-1.842c0-2.625,2.129-4.754,4.755-4.754c0.669,0,1.307,0.139,1.884,0.389v-11.095
			C273.781,111.535,273.143,111.674,272.474,111.674z"/>
		<path style="fill:#FFD11D;" d="M236.985,116.777c0,2.487-2.016,4.503-4.503,4.503c-2.486,0-4.504-2.016-4.504-4.503
			c0-2.488,2.018-4.504,4.504-4.504C234.969,112.273,236.985,114.29,236.985,116.777z"/>
		<path style="fill:#FFD11D;" d="M266.642,116.777c0,2.487-2.015,4.503-4.503,4.503c-2.488,0-4.503-2.016-4.503-4.503
			c0-2.488,2.015-4.504,4.503-4.504C264.627,112.273,266.642,114.29,266.642,116.777z"/>
		<path style="fill:#FFD11D;" d="M255.7,116.777c0,4.657-3.777,8.433-8.434,8.433c-4.656,0-8.433-3.775-8.433-8.433
			c0-4.658,3.776-8.433,8.433-8.433C251.923,108.345,255.7,112.12,255.7,116.777z"/>
		<path style="fill:#263642;" d="M250.688,117.886c-0.146-0.34-0.347-0.641-0.6-0.893c-0.248-0.249-0.532-0.465-0.841-0.645
			c-0.306-0.173-0.678-0.359-1.104-0.548l-0.024-0.01v-3.488c0.147,0.045,0.28,0.106,0.399,0.184
			c0.281,0.188,0.537,0.484,0.766,0.882l0.063,0.109l1.194-0.767l-0.053-0.098c-0.305-0.572-0.726-1.021-1.248-1.332
			c-0.344-0.207-0.722-0.344-1.123-0.416v-0.419h-1.322v0.428c-0.182,0.034-0.365,0.081-0.542,0.144
			c-0.388,0.139-0.74,0.341-1.049,0.602c-0.307,0.262-0.551,0.582-0.721,0.947c-0.171,0.367-0.257,0.777-0.257,1.218
			c0,0.402,0.065,0.76,0.195,1.066c0.13,0.305,0.314,0.578,0.546,0.811c0.231,0.229,0.489,0.429,0.769,0.592
			c0.273,0.158,0.61,0.331,1.003,0.511l0.056,0.026v4.413c-0.366-0.076-0.694-0.251-0.975-0.525
			c-0.391-0.38-0.631-0.855-0.717-1.411l-0.019-0.135l-1.457,0.409l0.022,0.109c0.182,0.895,0.605,1.625,1.252,2.171
			c0.536,0.452,1.172,0.717,1.894,0.796v0.489h1.322v-0.557c0.191-0.045,0.377-0.1,0.557-0.174c0.439-0.178,0.832-0.435,1.168-0.76
			c0.337-0.328,0.601-0.714,0.784-1.148c0.183-0.434,0.278-0.907,0.278-1.406C250.906,118.623,250.833,118.227,250.688,117.886z
			 M248.284,117.481c0.203,0.11,0.395,0.244,0.571,0.4c0.169,0.151,0.309,0.337,0.41,0.55c0.101,0.21,0.152,0.463,0.152,0.751
			c0,0.288-0.059,0.561-0.176,0.812c-0.117,0.252-0.279,0.474-0.484,0.66c-0.189,0.17-0.403,0.307-0.639,0.408v-3.666
			C248.178,117.425,248.232,117.454,248.284,117.481z M246.753,115.165c-0.182-0.094-0.355-0.209-0.518-0.337
			c-0.154-0.124-0.283-0.272-0.379-0.441c-0.093-0.165-0.141-0.352-0.141-0.558c0-0.475,0.168-0.854,0.51-1.159
			c0.174-0.154,0.365-0.27,0.57-0.347v2.866C246.784,115.181,246.767,115.173,246.753,115.165z"/>
	</g>
	<g>
		<g>
			<g>
				<path style="fill:#FDBA12;" d="M148.07,164.148v3.744c0,1.141,6.907,2.065,15.427,2.065c8.52,0,15.426-0.925,15.426-2.065
					v-3.744H148.07z"/>
				<path style="fill:#FFD11D;" d="M178.924,164.148c0,1.141-6.906,2.065-15.426,2.065c-8.52,0-15.427-0.924-15.427-2.065
					c0-1.14,6.907-2.065,15.427-2.065C172.018,162.083,178.924,163.009,178.924,164.148z"/>
				<path style="fill:#263642;" d="M175.421,164.148c0,0.633-5.338,1.146-11.923,1.146c-6.585,0-11.924-0.513-11.924-1.146
					c0-0.632,5.339-1.145,11.924-1.145C170.083,163.003,175.421,163.517,175.421,164.148z"/>
			</g>
			<g>
				<path style="fill:#FDBA12;" d="M148.07,158.617v3.744c0,1.141,6.907,2.065,15.427,2.065c8.52,0,15.426-0.924,15.426-2.065
					v-3.744H148.07z"/>
				<path style="fill:#FFD11D;" d="M178.924,158.617c0,1.141-6.906,2.066-15.426,2.066c-8.52,0-15.427-0.925-15.427-2.066
					c0-1.141,6.907-2.066,15.427-2.066C172.018,156.551,178.924,157.476,178.924,158.617z"/>
				<path style="fill:#263642;" d="M175.421,158.617c0,0.632-5.338,1.146-11.923,1.146c-6.585,0-11.924-0.513-11.924-1.146
					c0-0.633,5.339-1.146,11.924-1.146C170.083,157.471,175.421,157.983,175.421,158.617z"/>
			</g>
			<g>
				<path style="fill:#FDBA12;" d="M148.07,153.083v3.743c0,1.142,6.907,2.066,15.427,2.066c8.52,0,15.426-0.925,15.426-2.066
					v-3.743H148.07z"/>
				<path style="fill:#FFD11D;" d="M178.924,153.083c0,1.142-6.906,2.066-15.426,2.066c-8.52,0-15.427-0.924-15.427-2.066
					c0-1.141,6.907-2.065,15.427-2.065C172.018,151.019,178.924,151.943,178.924,153.083z"/>
				<path style="fill:#263642;" d="M175.421,153.083c0,0.633-5.338,1.146-11.923,1.146c-6.585,0-11.924-0.513-11.924-1.146
					c0-0.632,5.339-1.145,11.924-1.145C170.083,151.938,175.421,152.451,175.421,153.083z"/>
			</g>
			<g>
				<path style="fill:#FDBA12;" d="M148.07,147.552v3.743c0,1.141,6.907,2.065,15.427,2.065c8.52,0,15.426-0.924,15.426-2.065
					v-3.743H148.07z"/>
				<path style="fill:#FFD11D;" d="M178.924,147.552c0,1.14-6.906,2.065-15.426,2.065c-8.52,0-15.427-0.925-15.427-2.065
					c0-1.141,6.907-2.066,15.427-2.066C172.018,145.486,178.924,146.411,178.924,147.552z"/>
				<path style="fill:#263642;" d="M175.421,147.552c0,0.633-5.338,1.145-11.923,1.145c-6.585,0-11.924-0.512-11.924-1.145
					s5.339-1.146,11.924-1.146C170.083,146.406,175.421,146.919,175.421,147.552z"/>
			</g>
		</g>
		<g>
			<path style="fill:#263642;" d="M176.455,136.591v-4.711h-2.184c-0.323-1.562-0.977-3.003-1.885-4.246l1.407-1.612l-3.55-3.098
				l-1.383,1.585c-0.926-0.52-1.938-0.907-3.005-1.141v-2.09h-4.712v2.09c-1.338,0.292-2.587,0.827-3.693,1.559l-1.497-1.484
				l-3.316,3.347l1.523,1.51c-0.675,1.083-1.167,2.29-1.434,3.58h-2.185v4.711h2.239c0.353,1.524,1.017,2.926,1.928,4.134
				l-1.503,1.724l3.547,3.098l1.527-1.749c0.888,0.48,1.851,0.839,2.863,1.06v2.335h4.712v-2.335
				c1.277-0.278,2.474-0.78,3.543-1.462l1.648,1.633l3.314-3.346l-1.62-1.607c0.681-1.051,1.184-2.227,1.474-3.484H176.455z"/>
			<path style="fill:#8BD7F8;" d="M168.518,134.236c0,2.773-2.248,5.021-5.021,5.021c-2.774,0-5.022-2.248-5.022-5.021
				c0-2.774,2.249-5.022,5.022-5.022C166.27,129.214,168.518,131.462,168.518,134.236z"/>
		</g>
	</g>
	<g>
		
			<rect x="380.391" y="127.597" style="fill:#F99D30;stroke:#FFFFFF;stroke-width:1.2867;stroke-linecap:round;stroke-linejoin:round;stroke-miterlimit:10;" width="32.599" height="31.872"/>
		
			<rect x="377.632" y="127.597" style="fill:#F99D30;stroke:#FFFFFF;stroke-width:1.2867;stroke-linecap:round;stroke-linejoin:round;stroke-miterlimit:10;" width="5.518" height="30.089"/>
		
			<rect x="394.45" y="127.597" style="fill:#F99D30;stroke:#FFFFFF;stroke-width:1.2867;stroke-linecap:round;stroke-linejoin:round;stroke-miterlimit:10;" width="5.518" height="30.089"/>
		
			<rect x="411.267" y="127.597" style="fill:#F99D30;stroke:#FFFFFF;stroke-width:1.2867;stroke-linecap:round;stroke-linejoin:round;stroke-miterlimit:10;" width="5.519" height="30.089"/>
		
			<rect x="375.083" y="128.4" style="fill:#F99D30;stroke:#FFFFFF;stroke-width:1.2867;stroke-linecap:round;stroke-linejoin:round;stroke-miterlimit:10;" width="44.515" height="2.639"/>
		
			<rect x="374.127" y="159.366" style="fill:#F99D30;stroke:#FFFFFF;stroke-width:1.2867;stroke-linecap:round;stroke-linejoin:round;stroke-miterlimit:10;" width="46.719" height="3.202"/>
		
			<polygon style="fill:#F99D30;stroke:#FFFFFF;stroke-width:1.2867;stroke-linecap:round;stroke-linejoin:round;stroke-miterlimit:10;" points="
			419.638,128.439 397.487,115.081 375.157,128.439 		"/>
		
			<path style="fill:#F99D30;stroke:#FFFFFF;stroke-width:1.2867;stroke-linecap:round;stroke-linejoin:round;stroke-miterlimit:10;" d="
			M400.216,123.697c0,1.661-1.346,3.007-3.007,3.007c-1.662,0-3.008-1.346-3.008-3.007c0-1.662,1.346-3.008,3.008-3.008
			C398.87,120.689,400.216,122.036,400.216,123.697z"/>
		
			<rect x="375.333" y="156.83" style="fill:#F99D30;stroke:#FFFFFF;stroke-width:1.2867;stroke-linecap:round;stroke-linejoin:round;stroke-miterlimit:10;" width="44.305" height="2.639"/>
	</g>
	<g>
		
			<rect x="76.104" y="117.75" style="fill:#F99D30;stroke:#FFFFFF;stroke-width:1.2867;stroke-linecap:round;stroke-linejoin:round;stroke-miterlimit:10;" width="6.838" height="11.8"/>
		
			<rect x="87.1" y="103.334" style="fill:#F99D30;stroke:#FFFFFF;stroke-width:1.2867;stroke-linecap:round;stroke-linejoin:round;stroke-miterlimit:10;" width="6.839" height="26.216"/>
		
			<rect x="109.092" y="111.849" style="fill:#F99D30;stroke:#FFFFFF;stroke-width:1.2867;stroke-linecap:round;stroke-linejoin:round;stroke-miterlimit:10;" width="6.839" height="17.701"/>
		
			<rect x="98.096" y="108.832" style="fill:#F99D30;stroke:#FFFFFF;stroke-width:1.2867;stroke-linecap:round;stroke-linejoin:round;stroke-miterlimit:10;" width="6.84" height="20.719"/>
		
			<rect x="74.122" y="129.55" style="fill:#F99D30;stroke:#FFFFFF;stroke-width:1.2867;stroke-linecap:round;stroke-linejoin:round;stroke-miterlimit:10;" width="44.729" height="2.86"/>
		<g>
			
				<polyline style="fill:none;stroke:#FFFFFF;stroke-width:1.2867;stroke-linecap:round;stroke-linejoin:round;stroke-miterlimit:10;" points="
				78.942,108.05 91.1,89.544 101.919,106.53 110.948,97.501 			"/>
			
				<path style="fill:#F99D30;stroke:#FFFFFF;stroke-width:1.2867;stroke-linecap:round;stroke-linejoin:round;stroke-miterlimit:10;" d="
				M80.729,107.659c0,0.851-0.69,1.541-1.54,1.541c-0.853,0-1.543-0.69-1.543-1.541c0-0.853,0.689-1.543,1.543-1.543
				C80.039,106.117,80.729,106.807,80.729,107.659z"/>
			
				<path style="fill:#F99D30;stroke:#FFFFFF;stroke-width:1.2867;stroke-linecap:round;stroke-linejoin:round;stroke-miterlimit:10;" d="
				M92.53,90.024c0,0.852-0.69,1.543-1.541,1.543c-0.851,0-1.542-0.69-1.542-1.543c0-0.852,0.69-1.541,1.542-1.541
				C91.84,88.483,92.53,89.173,92.53,90.024z"/>
			
				<path style="fill:#F99D30;stroke:#FFFFFF;stroke-width:1.2867;stroke-linecap:round;stroke-linejoin:round;stroke-miterlimit:10;" d="
				M103.526,105.715c0,0.851-0.69,1.541-1.542,1.541c-0.852,0-1.542-0.69-1.542-1.541c0-0.853,0.691-1.543,1.542-1.543
				C102.836,104.172,103.526,104.862,103.526,105.715z"/>
			
				<path style="fill:#F99D30;stroke:#FFFFFF;stroke-width:1.2867;stroke-linecap:round;stroke-linejoin:round;stroke-miterlimit:10;" d="
				M112.489,97.255c0,0.852-0.69,1.542-1.541,1.542c-0.852,0-1.543-0.69-1.543-1.542c0-0.852,0.691-1.542,1.543-1.542
				C111.799,95.712,112.489,96.403,112.489,97.255z"/>
		</g>
	</g>
	<g>
		
			<rect x="102.67" y="32.747" style="fill:#F99D30;stroke:#FFFFFF;stroke-width:1.2867;stroke-linecap:round;stroke-linejoin:round;stroke-miterlimit:10;" width="42.613" height="28.118"/>
		
			<rect x="102.67" y="52.114" style="fill:#F99D30;stroke:#FFFFFF;stroke-width:1.2867;stroke-linecap:round;stroke-linejoin:round;stroke-miterlimit:10;" width="42.613" height="5.928"/>
		<g>
			
				<rect x="112.862" y="40.573" style="fill:#F99D30;stroke:#FFFFFF;stroke-width:1.2867;stroke-linecap:round;stroke-linejoin:round;stroke-miterlimit:10;" width="9.306" height="6.234"/>
			
				<rect x="107.229" y="37.457" style="fill:#F99D30;stroke:#FFFFFF;stroke-width:1.2867;stroke-linecap:round;stroke-linejoin:round;stroke-miterlimit:10;" width="9.305" height="6.233"/>
		</g>
		
			<rect x="126.003" y="38.333" style="fill:#F99D30;stroke:#FFFFFF;stroke-width:1.2867;stroke-linecap:round;stroke-linejoin:round;stroke-miterlimit:10;" width="16.361" height="1.358"/>
		
			<rect x="126.003" y="40.573" style="fill:#F99D30;stroke:#FFFFFF;stroke-width:1.2867;stroke-linecap:round;stroke-linejoin:round;stroke-miterlimit:10;" width="16.361" height="1.357"/>
	</g>
	<g>
		
			<rect x="358.699" y="48.948" style="fill:#F99D30;stroke:#FFFFFF;stroke-width:0.9296;stroke-linecap:round;stroke-linejoin:round;stroke-miterlimit:10;" width="40.494" height="28.095"/>
		
			<polygon style="fill:#F99D30;stroke:#FFFFFF;stroke-width:0.9296;stroke-linecap:round;stroke-linejoin:round;stroke-miterlimit:10;" points="
			378.947,66.938 358.699,48.948 399.193,48.948 		"/>
	</g>
</g>
</svg>
